#usda 1.0
(
    defaultPrim = "Asset"
    metersPerUnit = 1
    upAxis = "Z"
)
def Xform "Asset" (
    kind = "component"
) {
    def Xform "Geometry" {
        def Mesh "Finger0" (
            prepend apiSchemas = ["MaterialBindingAPI"]
        ) {
            point3f[] points = [(-0.047120, -0.011550, -0.052500), (-0.049007, -0.005070, -0.052500), (-0.053947, -0.001065, -0.052500), (-0.060053, -0.001065, -0.052500), (-0.064993, -0.005070, -0.052500), (-0.066880, -0.011550, -0.052500), (-0.064993, -0.018030, -0.052500), (-0.060053, -0.022035, -0.052500), (-0.053947, -0.022035, -0.052500), (-0.049007, -0.018030, -0.052500), (-0.043477, -0.011550, -0.042262), (-0.045296, -0.005263, -0.042262), (-0.050058, -0.001377, -0.042262), (-0.055944, -0.001377, -0.042262), (-0.060706, -0.005263, -0.042262), (-0.062525, -0.011550, -0.042262), (-0.060706, -0.017837, -0.042262), (-0.055944, -0.021723, -0.042262), (-0.050058, -0.021723, -0.042262), (-0.045296, -0.017837, -0.042262), (-0.040443, -0.011550, -0.032025), (-0.042194, -0.005455, -0.032025), (-0.046778, -0.001689, -0.032025), (-0.052444, -0.001689, -0.032025), (-0.057027, -0.005455, -0.032025), (-0.058778, -0.011550, -0.032025), (-0.057027, -0.017645, -0.032025), (-0.052444, -0.021411, -0.032025), (-0.046778, -0.021411, -0.032025), (-0.042194, -0.017645, -0.032025), (-0.038534, -0.011550, -0.021787), (-0.040217, -0.005648, -0.021787), (-0.044623, -0.002001, -0.021787), (-0.050068, -0.002001, -0.021787), (-0.054474, -0.005648, -0.021787), (-0.056157, -0.011550, -0.021787), (-0.054474, -0.017452, -0.021787), (-0.050068, -0.021099, -0.021787), (-0.044623, -0.021099, -0.021787), (-0.040217, -0.017452, -0.021787), (-0.038095, -0.011550, -0.011550), (-0.039710, -0.005841, -0.011550), (-0.043937, -0.002313, -0.011550), (-0.049163, -0.002313, -0.011550), (-0.053390, -0.005841, -0.011550), (-0.055005, -0.011550, -0.011550), (-0.053390, -0.017259, -0.011550), (-0.049163, -0.020787, -0.011550), (-0.043937, -0.020787, -0.011550), (-0.039710, -0.017259, -0.011550), (-0.039247, -0.011550, -0.001312), (-0.040793, -0.006034, -0.001312), (-0.044843, -0.002625, -0.001312), (-0.049848, -0.002625, -0.001312), (-0.053897, -0.006034, -0.001312), (-0.055444, -0.011550, -0.001312), (-0.053897, -0.017066, -0.001312), (-0.049848, -0.020475, -0.001312), (-0.044843, -0.020475, -0.001312), (-0.040793, -0.017066, -0.001312), (-0.041868, -0.011550, 0.008925), (-0.043347, -0.006227, 0.008925), (-0.047218, -0.002937, 0.008925), (-0.052003, -0.002937, 0.008925), (-0.055875, -0.006227, 0.008925), (-0.057353, -0.011550, 0.008925), (-0.055875, -0.016873, 0.008925), (-0.052003, -0.020163, 0.008925), (-0.047218, -0.020163, 0.008925), (-0.043347, -0.016873, 0.008925), (-0.045615, -0.011550, 0.019163), (-0.047025, -0.006420, 0.019163), (-0.050718, -0.003249, 0.019163), (-0.055283, -0.003249, 0.019163), (-0.058977, -0.006420, 0.019163), (-0.060387, -0.011550, 0.019163), (-0.058977, -0.016680, 0.019163), (-0.055283, -0.019851, 0.019163), (-0.050718, -0.019851, 0.019163), (-0.047025, -0.016680, 0.019163), (-0.049970, -0.011550, 0.029400), (-0.051313, -0.006613, 0.029400), (-0.054828, -0.003561, 0.029400), (-0.059172, -0.003561, 0.029400), (-0.062687, -0.006613, 0.029400), (-0.064030, -0.011550, 0.029400), (-0.062687, -0.016487, 0.029400), (-0.059172, -0.019539, 0.029400), (-0.054828, -0.019539, 0.029400), (-0.051313, -0.016487, 0.029400)]
            int[] faceVertexCounts = [10, 10, 4, 4, 4, 4, 4, 4, 4, 4, 4, 4, 4, 4, 4, 4, 4, 4, 4, 4, 4, 4, 4, 4, 4, 4, 4, 4, 4, 4, 4, 4, 4, 4, 4, 4, 4, 4, 4, 4, 4, 4, 4, 4, 4, 4, 4, 4, 4, 4, 4, 4, 4, 4, 4, 4, 4, 4, 4, 4, 4, 4, 4, 4, 4, 4, 4, 4, 4, 4, 4, 4, 4, 4, 4, 4, 4, 4, 4, 4, 4, 4]
            int[] faceVertexIndices = [9, 8, 7, 6, 5, 4, 3, 2, 1, 0, 80, 81, 82, 83, 84, 85, 86, 87, 88, 89, 0, 1, 11, 10, 1, 2, 12, 11, 2, 3, 13, 12, 3, 4, 14, 13, 4, 5, 15, 14, 5, 6, 16, 15, 6, 7, 17, 16, 7, 8, 18, 17, 8, 9, 19, 18, 9, 0, 10, 19, 10, 11, 21, 20, 11, 12, 22, 21, 12, 13, 23, 22, 13, 14, 24, 23, 14, 15, 25, 24, 15, 16, 26, 25, 16, 17, 27, 26, 17, 18, 28, 27, 18, 19, 29, 28, 19, 10, 20, 29, 20, 21, 31, 30, 21, 22, 32, 31, 22, 23, 33, 32, 23, 24, 34, 33, 24, 25, 35, 34, 25, 26, 36, 35, 26, 27, 37, 36, 27, 28, 38, 37, 28, 29, 39, 38, 29, 20, 30, 39, 30, 31, 41, 40, 31, 32, 42, 41, 32, 33, 43, 42, 33, 34, 44, 43, 34, 35, 45, 44, 35, 36, 46, 45, 36, 37, 47, 46, 37, 38, 48, 47, 38, 39, 49, 48, 39, 30, 40, 49, 40, 41, 51, 50, 41, 42, 52, 51, 42, 43, 53, 52, 43, 44, 54, 53, 44, 45, 55, 54, 45, 46, 56, 55, 46, 47, 57, 56, 47, 48, 58, 57, 48, 49, 59, 58, 49, 40, 50, 59, 50, 51, 61, 60, 51, 52, 62, 61, 52, 53, 63, 62, 53, 54, 64, 63, 54, 55, 65, 64, 55, 56, 66, 65, 56, 57, 67, 66, 57, 58, 68, 67, 58, 59, 69, 68, 59, 50, 60, 69, 60, 61, 71, 70, 61, 62, 72, 71, 62, 63, 73, 72, 63, 64, 74, 73, 64, 65, 75, 74, 65, 66, 76, 75, 66, 67, 77, 76, 67, 68, 78, 77, 68, 69, 79, 78, 69, 60, 70, 79, 70, 71, 81, 80, 71, 72, 82, 81, 72, 73, 83, 82, 73, 74, 84, 83, 74, 75, 85, 84, 75, 76, 86, 85, 76, 77, 87, 86, 77, 78, 88, 87, 78, 79, 89, 88, 79, 70, 80, 89]
            rel material:binding = </Asset/Looks/Body>
        }
        def Mesh "Finger1" (
            prepend apiSchemas = ["MaterialBindingAPI"]
        ) {
            point3f[] points = [(-0.018620, -0.005775, -0.052500), (-0.020507, 0.000705, -0.052500), (-0.025447, 0.004710, -0.052500), (-0.031553, 0.004710, -0.052500), (-0.036493, 0.000705, -0.052500), (-0.038380, -0.005775, -0.052500), (-0.036493, -0.012255, -0.052500), (-0.031553, -0.016260, -0.052500), (-0.025447, -0.016260, -0.052500), (-0.020507, -0.012255, -0.052500), (-0.014686, -0.005775, -0.042262), (-0.016505, 0.000512, -0.042262), (-0.021267, 0.004398, -0.042262), (-0.027153, 0.004398, -0.042262), (-0.031915, 0.000512, -0.042262), (-0.033734, -0.005775, -0.042262), (-0.031915, -0.012062, -0.042262), (-0.027153, -0.015948, -0.042262), (-0.021267, -0.015948, -0.042262), (-0.016505, -0.012062, -0.042262), (-0.011406, -0.005775, -0.032025), (-0.013157, 0.000320, -0.032025), (-0.017740, 0.004086, -0.032025), (-0.023406, 0.004086, -0.032025), (-0.027990, 0.000320, -0.032025), (-0.029741, -0.005775, -0.032025), (-0.027990, -0.011870, -0.032025), (-0.023406, -0.015636, -0.032025), (-0.017740, -0.015636, -0.032025), (-0.013157, -0.011870, -0.032025), (-0.009332, -0.005775, -0.021787), (-0.011015, 0.000127, -0.021787), (-0.015420, 0.003774, -0.021787), (-0.020866, 0.003774, -0.021787), (-0.025272, 0.000127, -0.021787), (-0.026955, -0.005775, -0.021787), (-0.025272, -0.011677, -0.021787), (-0.020866, -0.015324, -0.021787), (-0.015420, -0.015324, -0.021787), (-0.011015, -0.011677, -0.021787), (-0.008835, -0.005775, -0.011550), (-0.010450, -0.000066, -0.011550), (-0.014677, 0.003462, -0.011550), (-0.019903, 0.003462, -0.011550), (-0.024130, -0.000066, -0.011550), (-0.025745, -0.005775, -0.011550), (-0.024130, -0.011484, -0.011550), (-0.019903, -0.015012, -0.011550), (-0.014677, -0.015012, -0.011550), (-0.010450, -0.011484, -0.011550), (-0.010045, -0.005775, -0.001312), (-0.011591, -0.000259, -0.001312), (-0.015641, 0.003150, -0.001312), (-0.020646, 0.003150, -0.001312), (-0.024695, -0.000259, -0.001312), (-0.026242, -0.005775, -0.001312), (-0.024695, -0.011291, -0.001312), (-0.020646, -0.014700, -0.001312), (-0.015641, -0.014700, -0.001312), (-0.011591, -0.011291, -0.001312), (-0.012831, -0.005775, 0.008925), (-0.014310, -0.000452, 0.008925), (-0.018181, 0.002838, 0.008925), (-0.022966, 0.002838, 0.008925), (-0.026837, -0.000452, 0.008925), (-0.028316, -0.005775, 0.008925), (-0.026837, -0.011098, 0.008925), (-0.022966, -0.014388, 0.008925), (-0.018181, -0.014388, 0.008925), (-0.014310, -0.011098, 0.008925), (-0.016824, -0.005775, 0.019163), (-0.018235, -0.000645, 0.019163), (-0.021928, 0.002526, 0.019163), (-0.026493, 0.002526, 0.019163), (-0.030186, -0.000645, 0.019163), (-0.031596, -0.005775, 0.019163), (-0.030186, -0.010905, 0.019163), (-0.026493, -0.014076, 0.019163), (-0.021928, -0.014076, 0.019163), (-0.018235, -0.010905, 0.019163), (-0.021470, -0.005775, 0.029400), (-0.022813, -0.000838, 0.029400), (-0.026328, 0.002214, 0.029400), (-0.030672, 0.002214, 0.029400), (-0.034187, -0.000838, 0.029400), (-0.035530, -0.005775, 0.029400), (-0.034187, -0.010712, 0.029400), (-0.030672, -0.013764, 0.029400), (-0.026328, -0.013764, 0.029400), (-0.022813, -0.010712, 0.029400)]
            int[] faceVertexCounts = [10, 10, 4, 4, 4, 4, 4, 4, 4, 4, 4, 4, 4, 4, 4, 4, 4, 4, 4, 4, 4, 4, 4, 4, 4, 4, 4, 4, 4, 4, 4, 4, 4, 4, 4, 4, 4, 4, 4, 4, 4, 4, 4, 4, 4, 4, 4, 4, 4, 4, 4, 4, 4, 4, 4, 4, 4, 4, 4, 4, 4, 4, 4, 4, 4, 4, 4, 4, 4, 4, 4, 4, 4, 4, 4, 4, 4, 4, 4, 4, 4, 4]
            int[] faceVertexIndices = [9, 8, 7, 6, 5, 4, 3, 2, 1, 0, 80, 81, 82, 83, 84, 85, 86, 87, 88, 89, 0, 1, 11, 10, 1, 2, 12, 11, 2, 3, 13, 12, 3, 4, 14, 13, 4, 5, 15, 14, 5, 6, 16, 15, 6, 7, 17, 16, 7, 8, 18, 17, 8, 9, 19, 18, 9, 0, 10, 19, 10, 11, 21, 20, 11, 12, 22, 21, 12, 13, 23, 22, 13, 14, 24, 23, 14, 15, 25, 24, 15, 16, 26, 25, 16, 17, 27, 26, 17, 18, 28, 27, 18, 19, 29, 28, 19, 10, 20, 29, 20, 21, 31, 30, 21, 22, 32, 31, 22, 23, 33, 32, 23, 24, 34, 33, 24, 25, 35, 34, 25, 26, 36, 35, 26, 27, 37, 36, 27, 28, 38, 37, 28, 29, 39, 38, 29, 20, 30, 39, 30, 31, 41, 40, 31, 32, 42, 41, 32, 33, 43, 42, 33, 34, 44, 43, 34, 35, 45, 44, 35, 36, 46, 45, 36, 37, 47, 46, 37, 38, 48, 47, 38, 39, 49, 48, 39, 30, 40, 49, 40, 41, 51, 50, 41, 42, 52, 51, 42, 43, 53, 52, 43, 44, 54, 53, 44, 45, 55, 54, 45, 46, 56, 55, 46, 47, 57, 56, 47, 48, 58, 57, 48, 49, 59, 58, 49, 40, 50, 59, 50, 51, 61, 60, 51, 52, 62, 61, 52, 53, 63, 62, 53, 54, 64, 63, 54, 55, 65, 64, 55, 56, 66, 65, 56, 57, 67, 66, 57, 58, 68, 67, 58, 59, 69, 68, 59, 50, 60, 69, 60, 61, 71, 70, 61, 62, 72, 71, 62, 63, 73, 72, 63, 64, 74, 73, 64, 65, 75, 74, 65, 66, 76, 75, 66, 67, 77, 76, 67, 68, 78, 77, 68, 69, 79, 78, 69, 60, 70, 79, 70, 71, 81, 80, 71, 72, 82, 81, 72, 73, 83, 82, 73, 74, 84, 83, 74, 75, 85, 84, 75, 76, 86, 85, 76, 77, 87, 86, 77, 78, 88, 87, 78, 79, 89, 88, 79, 70, 80, 89]
            rel material:binding = </Asset/Looks/Body>
        }
        def Mesh "Finger2" (
            prepend apiSchemas = ["MaterialBindingAPI"]
        ) {
            point3f[] points = [(0.009880, 0.000000, -0.052500), (0.007993, 0.006480, -0.052500), (0.003053, 0.010485, -0.052500), (-0.003053, 0.010485, -0.052500), (-0.007993, 0.006480, -0.052500), (-0.009880, 0.000000, -0.052500), (-0.007993, -0.006480, -0.052500), (-0.003053, -0.010485, -0.052500), (0.003053, -0.010485, -0.052500), (0.007993, -0.006480, -0.052500), (0.014104, 0.000000, -0.042262), (0.012286, 0.006287, -0.042262), (0.007524, 0.010173, -0.042262), (0.001638, 0.010173, -0.042262), (-0.003124, 0.006287, -0.042262), (-0.004943, 0.000000, -0.042262), (-0.003124, -0.006287, -0.042262), (0.001638, -0.010173, -0.042262), (0.007524, -0.010173, -0.042262), (0.012286, -0.006287, -0.042262), (0.017632, 0.000000, -0.032025), (0.015881, 0.006095, -0.032025), (0.011297, 0.009861, -0.032025), (0.005631, 0.009861, -0.032025), (0.001047, 0.006095, -0.032025), (-0.000703, 0.000000, -0.032025), (0.001047, -0.006095, -0.032025), (0.005631, -0.009861, -0.032025), (0.011297, -0.009861, -0.032025), (0.015881, -0.006095, -0.032025), (0.019870, 0.000000, -0.021787), (0.018187, 0.005902, -0.021787), (0.013782, 0.009549, -0.021787), (0.008336, 0.009549, -0.021787), (0.003930, 0.005902, -0.021787), (0.002248, 0.000000, -0.021787), (0.003930, -0.005902, -0.021787), (0.008336, -0.009549, -0.021787), (0.013782, -0.009549, -0.021787), (0.018187, -0.005902, -0.021787), (0.020425, 0.000000, -0.011550), (0.018810, 0.005709, -0.011550), (0.014583, 0.009237, -0.011550), (0.009357, 0.009237, -0.011550), (0.005130, 0.005709, -0.011550), (0.003515, 0.000000, -0.011550), (0.005130, -0.005709, -0.011550), (0.009357, -0.009237, -0.011550), (0.014583, -0.009237, -0.011550), (0.018810, -0.005709, -0.011550), (0.019158, 0.000000, -0.001312), (0.017611, 0.005516, -0.001312), (0.013561, 0.008925, -0.001312), (0.008556, 0.008925, -0.001312), (0.004507, 0.005516, -0.001312), (0.002960, 0.000000, -0.001312), (0.004507, -0.005516, -0.001312), (0.008556, -0.008925, -0.001312), (0.013561, -0.008925, -0.001312), (0.017611, -0.005516, -0.001312), (0.016207, 0.000000, 0.008925), (0.014728, 0.005323, 0.008925), (0.010857, 0.008613, 0.008925), (0.006072, 0.008613, 0.008925), (0.002200, 0.005323, 0.008925), (0.000722, 0.000000, 0.008925), (0.002200, -0.005323, 0.008925), (0.006072, -0.008613, 0.008925), (0.010857, -0.008613, 0.008925), (0.014728, -0.005323, 0.008925), (0.011967, 0.000000, 0.019163), (0.010556, 0.005130, 0.019163), (0.006863, 0.008301, 0.019163), (0.002298, 0.008301, 0.019163), (-0.001395, 0.005130, 0.019163), (-0.002806, 0.000000, 0.019163), (-0.001395, -0.005130, 0.019163), (0.002298, -0.008301, 0.019163), (0.006863, -0.008301, 0.019163), (0.010556, -0.005130, 0.019163), (0.007030, 0.000000, 0.029400), (0.005687, 0.004937, 0.029400), (0.002172, 0.007989, 0.029400), (-0.002172, 0.007989, 0.029400), (-0.005687, 0.004937, 0.029400), (-0.007030, 0.000000, 0.029400), (-0.005687, -0.004937, 0.029400), (-0.002172, -0.007989, 0.029400), (0.002172, -0.007989, 0.029400), (0.005687, -0.004937, 0.029400)]
            int[] faceVertexCounts = [10, 10, 4, 4, 4, 4, 4, 4, 4, 4, 4, 4, 4, 4, 4, 4, 4, 4, 4, 4, 4, 4, 4, 4, 4, 4, 4, 4, 4, 4, 4, 4, 4, 4, 4, 4, 4, 4, 4, 4, 4, 4, 4, 4, 4, 4, 4, 4, 4, 4, 4, 4, 4, 4, 4, 4, 4, 4, 4, 4, 4, 4, 4, 4, 4, 4, 4, 4, 4, 4, 4, 4, 4, 4, 4, 4, 4, 4, 4, 4, 4, 4]
            int[] faceVertexIndices = [9, 8, 7, 6, 5, 4, 3, 2, 1, 0, 80, 81, 82, 83, 84, 85, 86, 87, 88, 89, 0, 1, 11, 10, 1, 2, 12, 11, 2, 3, 13, 12, 3, 4, 14, 13, 4, 5, 15, 14, 5, 6, 16, 15, 6, 7, 17, 16, 7, 8, 18, 17, 8, 9, 19, 18, 9, 0, 10, 19, 10, 11, 21, 20, 11, 12, 22, 21, 12, 13, 23, 22, 13, 14, 24, 23, 14, 15, 25, 24, 15, 16, 26, 25, 16, 17, 27, 26, 17, 18, 28, 27, 18, 19, 29, 28, 19, 10, 20, 29, 20, 21, 31, 30, 21, 22, 32, 31, 22, 23, 33, 32, 23, 24, 34, 33, 24, 25, 35, 34, 25, 26, 36, 35, 26, 27, 37, 36, 27, 28, 38, 37, 28, 29, 39, 38, 29, 20, 30, 39, 30, 31, 41, 40, 31, 32, 42, 41, 32, 33, 43, 42, 33, 34, 44, 43, 34, 35, 45, 44, 35, 36, 46, 45, 36, 37, 47, 46, 37, 38, 48, 47, 38, 39, 49, 48, 39, 30, 40, 49, 40, 41, 51, 50, 41, 42, 52, 51, 42, 43, 53, 52, 43, 44, 54, 53, 44, 45, 55, 54, 45, 46, 56, 55, 46, 47, 57, 56, 47, 48, 58, 57, 48, 49, 59, 58, 49, 40, 50, 59, 50, 51, 61, 60, 51, 52, 62, 61, 52, 53, 63, 62, 53, 54, 64, 63, 54, 55, 65, 64, 55, 56, 66, 65, 56, 57, 67, 66, 57, 58, 68, 67, 58, 59, 69, 68, 59, 50, 60, 69, 60, 61, 71, 70, 61, 62, 72, 71, 62, 63, 73, 72, 63, 64, 74, 73, 64, 65, 75, 74, 65, 66, 76, 75, 66, 67, 77, 76, 67, 68, 78, 77, 68, 69, 79, 78, 69, 60, 70, 79, 70, 71, 81, 80, 71, 72, 82, 81, 72, 73, 83, 82, 73, 74, 84, 83, 74, 75, 85, 84, 75, 76, 86, 85, 76, 77, 87, 86, 77, 78, 88, 87, 78, 79, 89, 88, 79, 70, 80, 89]
            rel material:binding = </Asset/Looks/Body>
        }
        def Mesh "Finger3" (
            prepend apiSchemas = ["MaterialBindingAPI"]
        ) {
            point3f[] points = [(0.038380, 0.005775, -0.052500), (0.036493, 0.012255, -0.052500), (0.031553, 0.016260, -0.052500), (0.025447, 0.016260, -0.052500), (0.020507, 0.012255, -0.052500), (0.018620, 0.005775, -0.052500), (0.020507, -0.000705, -0.052500), (0.025447, -0.004710, -0.052500), (0.031553, -0.004710, -0.052500), (0.036493, -0.000705, -0.052500), (0.042895, 0.005775, -0.042262), (0.041076, 0.012062, -0.042262), (0.036315, 0.015948, -0.042262), (0.030429, 0.015948, -0.042262), (0.025667, 0.012062, -0.042262), (0.023848, 0.005775, -0.042262), (0.025667, -0.000512, -0.042262), (0.030429, -0.004398, -0.042262), (0.036315, -0.004398, -0.042262), (0.041076, -0.000512, -0.042262), (0.046669, 0.005775, -0.032025), (0.044918, 0.011870, -0.032025), (0.040334, 0.015636, -0.032025), (0.034669, 0.015636, -0.032025), (0.030085, 0.011870, -0.032025), (0.028334, 0.005775, -0.032025), (0.030085, -0.000320, -0.032025), (0.034669, -0.004086, -0.032025), (0.040334, -0.004086, -0.032025), (0.044918, -0.000320, -0.032025), (0.049072, 0.005775, -0.021787), (0.047389, 0.011677, -0.021787), (0.042984, 0.015324, -0.021787), (0.037538, 0.015324, -0.021787), (0.033133, 0.011677, -0.021787), (0.031450, 0.005775, -0.021787), (0.033133, -0.000127, -0.021787), (0.037538, -0.003774, -0.021787), (0.042984, -0.003774, -0.021787), (0.047389, -0.000127, -0.021787), (0.049685, 0.005775, -0.011550), (0.048070, 0.011484, -0.011550), (0.043843, 0.015012, -0.011550), (0.038617, 0.015012, -0.011550), (0.034390, 0.011484, -0.011550), (0.032775, 0.005775, -0.011550), (0.034390, 0.000066, -0.011550), (0.038617, -0.003462, -0.011550), (0.043843, -0.003462, -0.011550), (0.048070, 0.000066, -0.011550), (0.048360, 0.005775, -0.001312), (0.046813, 0.011291, -0.001312), (0.042764, 0.014700, -0.001312), (0.037758, 0.014700, -0.001312), (0.033709, 0.011291, -0.001312), (0.032162, 0.005775, -0.001312), (0.033709, 0.000259, -0.001312), (0.037758, -0.003150, -0.001312), (0.042764, -0.003150, -0.001312), (0.046813, 0.000259, -0.001312), (0.045244, 0.005775, 0.008925), (0.043765, 0.011098, 0.008925), (0.039894, 0.014388, 0.008925), (0.035109, 0.014388, 0.008925), (0.031238, 0.011098, 0.008925), (0.029759, 0.005775, 0.008925), (0.031238, 0.000452, 0.008925), (0.035109, -0.002838, 0.008925), (0.039894, -0.002838, 0.008925), (0.043765, 0.000452, 0.008925), (0.040758, 0.005775, 0.019163), (0.039347, 0.010905, 0.019163), (0.035654, 0.014076, 0.019163), (0.031089, 0.014076, 0.019163), (0.027396, 0.010905, 0.019163), (0.025985, 0.005775, 0.019163), (0.027396, 0.000645, 0.019163), (0.031089, -0.002526, 0.019163), (0.035654, -0.002526, 0.019163), (0.039347, 0.000645, 0.019163), (0.035530, 0.005775, 0.029400), (0.034187, 0.010712, 0.029400), (0.030672, 0.013764, 0.029400), (0.026328, 0.013764, 0.029400), (0.022813, 0.010712, 0.029400), (0.021470, 0.005775, 0.029400), (0.022813, 0.000838, 0.029400), (0.026328, -0.002214, 0.029400), (0.030672, -0.002214, 0.029400), (0.034187, 0.000838, 0.029400)]
            int[] faceVertexCounts = [10, 10, 4, 4, 4, 4, 4, 4, 4, 4, 4, 4, 4, 4, 4, 4, 4, 4, 4, 4, 4, 4, 4, 4, 4, 4, 4, 4, 4, 4, 4, 4, 4, 4, 4, 4, 4, 4, 4, 4, 4, 4, 4, 4, 4, 4, 4, 4, 4, 4, 4, 4, 4, 4, 4, 4, 4, 4, 4, 4, 4, 4, 4, 4, 4, 4, 4, 4, 4, 4, 4, 4, 4, 4, 4, 4, 4, 4, 4, 4, 4, 4]
            int[] faceVertexIndices = [9, 8, 7, 6, 5, 4, 3, 2, 1, 0, 80, 81, 82, 83, 84, 85, 86, 87, 88, 89, 0, 1, 11, 10, 1, 2, 12, 11, 2, 3, 13, 12, 3, 4, 14, 13, 4, 5, 15, 14, 5, 6, 16, 15, 6, 7, 17, 16, 7, 8, 18, 17, 8, 9, 19, 18, 9, 0, 10, 19, 10, 11, 21, 20, 11, 12, 22, 21, 12, 13, 23, 22, 13, 14, 24, 23, 14, 15, 25, 24, 15, 16, 26, 25, 16, 17, 27, 26, 17, 18, 28, 27, 18, 19, 29, 28, 19, 10, 20, 29, 20, 21, 31, 30, 21, 22, 32, 31, 22, 23, 33, 32, 23, 24, 34, 33, 24, 25, 35, 34, 25, 26, 36, 35, 26, 27, 37, 36, 27, 28, 38, 37, 28, 29, 39, 38, 29, 20, 30, 39, 30, 31, 41, 40, 31, 32, 42, 41, 32, 33, 43, 42, 33, 34, 44, 43, 34, 35, 45, 44, 35, 36, 46, 45, 36, 37, 47, 46, 37, 38, 48, 47, 38, 39, 49, 48, 39, 30, 40, 49, 40, 41, 51, 50, 41, 42, 52, 51, 42, 43, 53, 52, 43, 44, 54, 53, 44, 45, 55, 54, 45, 46, 56, 55, 46, 47, 57, 56, 47, 48, 58, 57, 48, 49, 59, 58, 49, 40, 50, 59, 50, 51, 61, 60, 51, 52, 62, 61, 52, 53, 63, 62, 53, 54, 64, 63, 54, 55, 65, 64, 55, 56, 66, 65, 56, 57, 67, 66, 57, 58, 68, 67, 58, 59, 69, 68, 59, 50, 60, 69, 60, 61, 71, 70, 61, 62, 72, 71, 62, 63, 73, 72, 63, 64, 74, 73, 64, 65, 75, 74, 65, 66, 76, 75, 66, 67, 77, 76, 67, 68, 78, 77, 68, 69, 79, 78, 69, 60, 70, 79, 70, 71, 81, 80, 71, 72, 82, 81, 72, 73, 83, 82, 73, 74, 84, 83, 74, 75, 85, 84, 75, 76, 86, 85, 76, 77, 87, 86, 77, 78, 88, 87, 78, 79, 89, 88, 79, 70, 80, 89]
            rel material:binding = </Asset/Looks/Body>
        }
        def Mesh "Finger4" (
            prepend apiSchemas = ["MaterialBindingAPI"]
        ) {
            point3f[] points = [(0.066880, 0.011550, -0.052500), (0.064993, 0.018030, -0.052500), (0.060053, 0.022035, -0.052500), (0.053947, 0.022035, -0.052500), (0.049007, 0.018030, -0.052500), (0.047120, 0.011550, -0.052500), (0.049007, 0.005070, -0.052500), (0.053947, 0.001065, -0.052500), (0.060053, 0.001065, -0.052500), (0.064993, 0.005070, -0.052500), (0.071686, 0.011550, -0.042262), (0.069867, 0.017837, -0.042262), (0.065105, 0.021723, -0.042262), (0.059219, 0.021723, -0.042262), (0.054458, 0.017837, -0.042262), (0.052639, 0.011550, -0.042262), (0.054458, 0.005263, -0.042262), (0.059219, 0.001377, -0.042262), (0.065105, 0.001377, -0.042262), (0.069867, 0.005263, -0.042262), (0.075706, 0.011550, -0.032025), (0.073956, 0.017645, -0.032025), (0.069372, 0.021411, -0.032025), (0.063706, 0.021411, -0.032025), (0.059122, 0.017645, -0.032025), (0.057371, 0.011550, -0.032025), (0.059122, 0.005455, -0.032025), (0.063706, 0.001689, -0.032025), (0.069372, 0.001689, -0.032025), (0.073956, 0.005455, -0.032025), (0.078274, 0.011550, -0.021787), (0.076592, 0.017452, -0.021787), (0.072186, 0.021099, -0.021787), (0.066740, 0.021099, -0.021787), (0.062335, 0.017452, -0.021787), (0.060652, 0.011550, -0.021787), (0.062335, 0.005648, -0.021787), (0.066740, 0.002001, -0.021787), (0.072186, 0.002001, -0.021787), (0.076592, 0.005648, -0.021787), (0.078945, 0.011550, -0.011550), (0.077330, 0.017259, -0.011550), (0.073103, 0.020787, -0.011550), (0.067877, 0.020787, -0.011550), (0.063650, 0.017259, -0.011550), (0.062035, 0.011550, -0.011550), (0.063650, 0.005841, -0.011550), (0.067877, 0.002313, -0.011550), (0.073103, 0.002313, -0.011550), (0.077330, 0.005841, -0.011550), (0.077562, 0.011550, -0.001312), (0.076015, 0.017066, -0.001312), (0.071966, 0.020475, -0.001312), (0.066960, 0.020475, -0.001312), (0.062911, 0.017066, -0.001312), (0.061364, 0.011550, -0.001312), (0.062911, 0.006034, -0.001312), (0.066960, 0.002625, -0.001312), (0.071966, 0.002625, -0.001312), (0.076015, 0.006034, -0.001312), (0.074281, 0.011550, 0.008925), (0.072803, 0.016873, 0.008925), (0.068931, 0.020163, 0.008925), (0.064146, 0.020163, 0.008925), (0.060275, 0.016873, 0.008925), (0.058796, 0.011550, 0.008925), (0.060275, 0.006227, 0.008925), (0.064146, 0.002937, 0.008925), (0.068931, 0.002937, 0.008925), (0.072803, 0.006227, 0.008925), (0.069549, 0.011550, 0.019163), (0.068138, 0.016680, 0.019163), (0.064445, 0.019851, 0.019163), (0.059880, 0.019851, 0.019163), (0.056187, 0.016680, 0.019163), (0.054776, 0.011550, 0.019163), (0.056187, 0.006420, 0.019163), (0.059880, 0.003249, 0.019163), (0.064445, 0.003249, 0.019163), (0.068138, 0.006420, 0.019163), (0.064030, 0.011550, 0.029400), (0.062687, 0.016487, 0.029400), (0.059172, 0.019539, 0.029400), (0.054828, 0.019539, 0.029400), (0.051313, 0.016487, 0.029400), (0.049970, 0.011550, 0.029400), (0.051313, 0.006613, 0.029400), (0.054828, 0.003561, 0.029400), (0.059172, 0.003561, 0.029400), (0.062687, 0.006613, 0.029400)]
            int[] faceVertexCounts = [10, 10, 4, 4, 4, 4, 4, 4, 4, 4, 4, 4, 4, 4, 4, 4, 4, 4, 4, 4, 4, 4, 4, 4, 4, 4, 4, 4, 4, 4, 4, 4, 4, 4, 4, 4, 4, 4, 4, 4, 4, 4, 4, 4, 4, 4, 4, 4, 4, 4, 4, 4, 4, 4, 4, 4, 4, 4, 4, 4, 4, 4, 4, 4, 4, 4, 4, 4, 4, 4, 4, 4, 4, 4, 4, 4, 4, 4, 4, 4, 4, 4]
            int[] faceVertexIndices = [9, 8, 7, 6, 5, 4, 3, 2, 1, 0, 80, 81, 82, 83, 84, 85, 86, 87, 88, 89, 0, 1, 11, 10, 1, 2, 12, 11, 2, 3, 13, 12, 3, 4, 14, 13, 4, 5, 15, 14, 5, 6, 16, 15, 6, 7, 17, 16, 7, 8, 18, 17, 8, 9, 19, 18, 9, 0, 10, 19, 10, 11, 21, 20, 11, 12, 22, 21, 12, 13, 23, 22, 13, 14, 24, 23, 14, 15, 25, 24, 15, 16, 26, 25, 16, 17, 27, 26, 17, 18, 28, 27, 18, 19, 29, 28, 19, 10, 20, 29, 20, 21, 31, 30, 21, 22, 32, 31, 22, 23, 33, 32, 23, 24, 34, 33, 24, 25, 35, 34, 25, 26, 36, 35, 26, 27, 37, 36, 27, 28, 38, 37, 28, 29, 39, 38, 29, 20, 30, 39, 30, 31, 41, 40, 31, 32, 42, 41, 32, 33, 43, 42, 33, 34, 44, 43, 34, 35, 45, 44, 35, 36, 46, 45, 36, 37, 47, 46, 37, 38, 48, 47, 38, 39, 49, 48, 39, 30, 40, 49, 40, 41, 51, 50, 41, 42, 52, 51, 42, 43, 53, 52, 43, 44, 54, 53, 44, 45, 55, 54, 45, 46, 56, 55, 46, 47, 57, 56, 47, 48, 58, 57, 48, 49, 59, 58, 49, 40, 50, 59, 50, 51, 61, 60, 51, 52, 62, 61, 52, 53, 63, 62, 53, 54, 64, 63, 54, 55, 65, 64, 55, 56, 66, 65, 56, 57, 67, 66, 57, 58, 68, 67, 58, 59, 69, 68, 59, 50, 60, 69, 60, 61, 71, 70, 61, 62, 72, 71, 62, 63, 73, 72, 63, 64, 74, 73, 64, 65, 75, 74, 65, 66, 76, 75, 66, 67, 77, 76, 67, 68, 78, 77, 68, 69, 79, 78, 69, 60, 70, 79, 70, 71, 81, 80, 71, 72, 82, 81, 72, 73, 83, 82, 73, 74, 84, 83, 74, 75, 85, 84, 75, 76, 86, 85, 76, 77, 87, 86, 77, 78, 88, 87, 78, 79, 89, 88, 79, 70, 80, 89]
            rel material:binding = </Asset/Looks/Body>
        }
        def Xform "Crown" {
            double3 xformOp:translate = (0.00000, 0.00000, 0.01890)
            double3 xformOp:scale = (0.05320, 0.03570, 0.02310)
            uniform token[] xformOpOrder = ["xformOp:translate", "xformOp:scale"]
            def Sphere "Shape" (
                prepend apiSchemas = ["MaterialBindingAPI"]
            ) {
                double radius = 0.5
                rel material:binding = </Asset/Looks/Accent>
            }
        }
        def Cylinder "Stem" (
            prepend apiSchemas = ["MaterialBindingAPI"]
        ) {
            int vertices = 14
            double radius = 0.00760
            double height = 0.02520
            double3 xformOp:translate = (0, 0, 0.03885)
            uniform token[] xformOpOrder = ["xformOp:translate"]
            rel material:binding = </Asset/Looks/Stem>
        }
    }
    def Scope "Looks" {
        def Material "Body" {
            token outputs:surface.connect = </Asset/Looks/Body/Preview.outputs:surface>
            def Shader "Preview" {
                uniform token info:id = "UsdPreviewSurface"
                color3f inputs:diffuseColor = (0.88235, 0.75294, 0.21569)
                float inputs:roughness = 0.8200
                float inputs:metallic = 0.0000
                token outputs:surface
            }
        }
        def Material "Front" {
            token outputs:surface.connect = </Asset/Looks/Front/Preview.outputs:surface>
            def Shader "Preview" {
                uniform token info:id = "UsdPreviewSurface"
                color3f inputs:diffuseColor = (0.37255, 0.47451, 0.21176)
                float inputs:roughness = 0.8000
                float inputs:metallic = 0.0000
                token outputs:surface
            }
        }
        def Material "Metal" {
            token outputs:surface.connect = </Asset/Looks/Metal/Preview.outputs:surface>
            def Shader "Preview" {
                uniform token info:id = "UsdPreviewSurface"
                color3f inputs:diffuseColor = (0.48000, 0.52000, 0.55000)
                float inputs:roughness = 0.2800
                float inputs:metallic = 0.7000
                token outputs:surface
            }
        }
        def Material "Stem" {
            token outputs:surface.connect = </Asset/Looks/Stem/Preview.outputs:surface>
            def Shader "Preview" {
                uniform token info:id = "UsdPreviewSurface"
                color3f inputs:diffuseColor = (0.12000, 0.23000, 0.08000)
                float inputs:roughness = 0.7200
                float inputs:metallic = 0.0000
                token outputs:surface
            }
        }
        def Material "Glass" {
            token outputs:surface.connect = </Asset/Looks/Glass/Preview.outputs:surface>
            def Shader "Preview" {
                uniform token info:id = "UsdPreviewSurface"
                color3f inputs:diffuseColor = (0.55000, 0.68000, 0.58000)
                float inputs:roughness = 0.1600
                float inputs:metallic = 0.0000
                float inputs:opacity = 0.7200
                token outputs:surface
            }
        }
        def Material "Paper" {
            token outputs:surface.connect = </Asset/Looks/Paper/Preview.outputs:surface>
            def Shader "Preview" {
                uniform token info:id = "UsdPreviewSurface"
                color3f inputs:diffuseColor = (0.82000, 0.79000, 0.69000)
                float inputs:roughness = 0.7800
                float inputs:metallic = 0.0000
                token outputs:surface
            }
        }
        def Material "Clear" {
            token outputs:surface.connect = </Asset/Looks/Clear/Preview.outputs:surface>
            def Shader "Preview" {
                uniform token info:id = "UsdPreviewSurface"
                color3f inputs:diffuseColor = (0.74000, 0.86000, 0.91000)
                float inputs:roughness = 0.1200
                float inputs:metallic = 0.0000
                float inputs:opacity = 0.3800
                token outputs:surface
            }
        }
        def Material "Dark" {
            token outputs:surface.connect = </Asset/Looks/Dark/Preview.outputs:surface>
            def Shader "Preview" {
                uniform token info:id = "UsdPreviewSurface"
                color3f inputs:diffuseColor = (0.05500, 0.06500, 0.07500)
                float inputs:roughness = 0.3800
                float inputs:metallic = 0.0500
                token outputs:surface
            }
        }
        def Material "Accent" {
            token outputs:surface.connect = </Asset/Looks/Accent/Preview.outputs:surface>
            def Shader "Preview" {
                uniform token info:id = "UsdPreviewSurface"
                color3f inputs:diffuseColor = (0.37255, 0.47451, 0.21176)
                float inputs:roughness = 0.8000
                float inputs:metallic = 0.0000
                token outputs:surface
            }
        }
        def Material "Print" {
            token outputs:surface.connect = </Asset/Looks/Print/Preview.outputs:surface>
            def Shader "Preview" {
                uniform token info:id = "UsdPreviewSurface"
                color3f inputs:diffuseColor = (0.37255, 0.47451, 0.21176)
                float inputs:roughness = 0.8000
                float inputs:metallic = 0.0000
                token outputs:surface
            }
        }
    }
}
