#usda 1.0
(
    defaultPrim = "Asset"
    metersPerUnit = 1
    upAxis = "Z"
)
def Xform "Asset" (
    kind = "component"
) {
    def Xform "Geometry" {
        def Mesh "Stalk" (
            prepend apiSchemas = ["MaterialBindingAPI"]
        ) {
            point3f[] points = [(0.028000, 0.000000, -0.074250), (0.026630, 0.008652, -0.074250), (0.022652, 0.016458, -0.074250), (0.016458, 0.022652, -0.074250), (0.008652, 0.026630, -0.074250), (0.000000, 0.028000, -0.074250), (-0.008652, 0.026630, -0.074250), (-0.016458, 0.022652, -0.074250), (-0.022652, 0.016458, -0.074250), (-0.026630, 0.008652, -0.074250), (-0.028000, 0.000000, -0.074250), (-0.026630, -0.008652, -0.074250), (-0.022652, -0.016458, -0.074250), (-0.016458, -0.022652, -0.074250), (-0.008652, -0.026630, -0.074250), (-0.000000, -0.028000, -0.074250), (0.008652, -0.026630, -0.074250), (0.016458, -0.022652, -0.074250), (0.022652, -0.016458, -0.074250), (0.026630, -0.008652, -0.074250), (0.042000, 0.000000, 0.008250), (0.039944, 0.012979, 0.008250), (0.033979, 0.024687, 0.008250), (0.024687, 0.033979, 0.008250), (0.012979, 0.039944, 0.008250), (0.000000, 0.042000, 0.008250), (-0.012979, 0.039944, 0.008250), (-0.024687, 0.033979, 0.008250), (-0.033979, 0.024687, 0.008250), (-0.039944, 0.012979, 0.008250), (-0.042000, 0.000000, 0.008250), (-0.039944, -0.012979, 0.008250), (-0.033979, -0.024687, 0.008250), (-0.024687, -0.033979, 0.008250), (-0.012979, -0.039944, 0.008250), (-0.000000, -0.042000, 0.008250), (0.012979, -0.039944, 0.008250), (0.024687, -0.033979, 0.008250), (0.033979, -0.024687, 0.008250), (0.039944, -0.012979, 0.008250)]
            int[] faceVertexCounts = [20, 20, 4, 4, 4, 4, 4, 4, 4, 4, 4, 4, 4, 4, 4, 4, 4, 4, 4, 4, 4, 4]
            int[] faceVertexIndices = [19, 18, 17, 16, 15, 14, 13, 12, 11, 10, 9, 8, 7, 6, 5, 4, 3, 2, 1, 0, 20, 21, 22, 23, 24, 25, 26, 27, 28, 29, 30, 31, 32, 33, 34, 35, 36, 37, 38, 39, 0, 1, 21, 20, 1, 2, 22, 21, 2, 3, 23, 22, 3, 4, 24, 23, 4, 5, 25, 24, 5, 6, 26, 25, 6, 7, 27, 26, 7, 8, 28, 27, 8, 9, 29, 28, 9, 10, 30, 29, 10, 11, 31, 30, 11, 12, 32, 31, 12, 13, 33, 32, 13, 14, 34, 33, 14, 15, 35, 34, 15, 16, 36, 35, 16, 17, 37, 36, 17, 18, 38, 37, 18, 19, 39, 38, 19, 0, 20, 39]
            rel material:binding = </Asset/Looks/Stem>
        }
        def Mesh "Branch0" (
            prepend apiSchemas = ["MaterialBindingAPI"]
        ) {
            point3f[] points = [(-0.020300, 0.000000, -0.025500), (-0.021340, 0.004556, -0.025500), (-0.024253, 0.008209, -0.025500), (-0.028464, 0.010237, -0.025500), (-0.033136, 0.010237, -0.025500), (-0.037347, 0.008209, -0.025500), (-0.040260, 0.004556, -0.025500), (-0.041300, 0.000000, -0.025500), (-0.040260, -0.004556, -0.025500), (-0.037347, -0.008209, -0.025500), (-0.033136, -0.010237, -0.025500), (-0.028464, -0.010237, -0.025500), (-0.024253, -0.008209, -0.025500), (-0.021340, -0.004556, -0.025500), (-0.016100, 0.000000, 0.025500), (-0.017556, 0.006378, 0.025500), (-0.021635, 0.011493, 0.025500), (-0.027529, 0.014331, 0.025500), (-0.034071, 0.014331, 0.025500), (-0.039965, 0.011493, 0.025500), (-0.044044, 0.006378, 0.025500), (-0.045500, 0.000000, 0.025500), (-0.044044, -0.006378, 0.025500), (-0.039965, -0.011493, 0.025500), (-0.034071, -0.014331, 0.025500), (-0.027529, -0.014331, 0.025500), (-0.021635, -0.011493, 0.025500), (-0.017556, -0.006378, 0.025500)]
            int[] faceVertexCounts = [14, 14, 4, 4, 4, 4, 4, 4, 4, 4, 4, 4, 4, 4, 4, 4]
            int[] faceVertexIndices = [13, 12, 11, 10, 9, 8, 7, 6, 5, 4, 3, 2, 1, 0, 14, 15, 16, 17, 18, 19, 20, 21, 22, 23, 24, 25, 26, 27, 0, 1, 15, 14, 1, 2, 16, 15, 2, 3, 17, 16, 3, 4, 18, 17, 4, 5, 19, 18, 5, 6, 20, 19, 6, 7, 21, 20, 7, 8, 22, 21, 8, 9, 23, 22, 9, 10, 24, 23, 10, 11, 25, 24, 11, 12, 26, 25, 12, 13, 27, 26, 13, 0, 14, 27]
            rel material:binding = </Asset/Looks/Stem>
        }
        def Mesh "Floret0_0" (
            prepend apiSchemas = ["MaterialBindingAPI"]
        ) {
            point3f[] points = [(-0.036017, 0.000000, 0.013500), (-0.036279, 0.002385, 0.013500), (-0.039105, 0.003128, 0.013500), (-0.041300, 0.005195, 0.013500), (-0.043495, 0.003128, 0.013500), (-0.046321, 0.002385, 0.013500), (-0.046583, 0.000000, 0.013500), (-0.045429, -0.001961, 0.013500), (-0.044388, -0.004401, 0.013500), (-0.041300, -0.003499, 0.013500), (-0.038212, -0.004401, 0.013500), (-0.037171, -0.001961, 0.013500), (-0.026049, 0.000000, 0.022500), (-0.030665, 0.005052, 0.022500), (-0.034875, 0.009157, 0.022500), (-0.041300, 0.012206, 0.022500), (-0.046714, 0.007716, 0.022500), (-0.054968, 0.006493, 0.022500), (-0.052507, 0.000000, 0.022500), (-0.053578, -0.005833, 0.022500), (-0.048104, -0.009697, 0.022500), (-0.041300, -0.009565, 0.022500), (-0.033485, -0.011138, 0.022500), (-0.032055, -0.004392, 0.022500), (-0.025558, 0.000000, 0.031500), (-0.031983, 0.004426, 0.031500), (-0.033803, 0.010685, 0.031500), (-0.041300, 0.010403, 0.031500), (-0.047540, 0.008893, 0.031500), (-0.054388, 0.006218, 0.031500), (-0.052015, 0.000000, 0.031500), (-0.054896, -0.006459, 0.031500), (-0.047032, -0.008169, 0.031500), (-0.041300, -0.011368, 0.031500), (-0.034311, -0.009961, 0.031500), (-0.031475, -0.004668, 0.031500), (-0.035577, 0.000000, 0.040500), (-0.037459, 0.001825, 0.040500), (-0.038145, 0.004497, 0.040500), (-0.041300, 0.003580, 0.040500), (-0.044235, 0.004183, 0.040500), (-0.045802, 0.002139, 0.040500), (-0.046142, 0.000000, 0.040500), (-0.046609, -0.002522, 0.040500), (-0.043428, -0.003032, 0.040500), (-0.041300, -0.005114, 0.040500), (-0.038952, -0.003346, 0.040500), (-0.036652, -0.002208, 0.040500)]
            int[] faceVertexCounts = [12, 12, 4, 4, 4, 4, 4, 4, 4, 4, 4, 4, 4, 4, 4, 4, 4, 4, 4, 4, 4, 4, 4, 4, 4, 4, 4, 4, 4, 4, 4, 4, 4, 4, 4, 4, 4, 4]
            int[] faceVertexIndices = [11, 10, 9, 8, 7, 6, 5, 4, 3, 2, 1, 0, 36, 37, 38, 39, 40, 41, 42, 43, 44, 45, 46, 47, 0, 1, 13, 12, 1, 2, 14, 13, 2, 3, 15, 14, 3, 4, 16, 15, 4, 5, 17, 16, 5, 6, 18, 17, 6, 7, 19, 18, 7, 8, 20, 19, 8, 9, 21, 20, 9, 10, 22, 21, 10, 11, 23, 22, 11, 0, 12, 23, 12, 13, 25, 24, 13, 14, 26, 25, 14, 15, 27, 26, 15, 16, 28, 27, 16, 17, 29, 28, 17, 18, 30, 29, 18, 19, 31, 30, 19, 20, 32, 31, 20, 21, 33, 32, 21, 22, 34, 33, 22, 23, 35, 34, 23, 12, 24, 35, 24, 25, 37, 36, 25, 26, 38, 37, 26, 27, 39, 38, 27, 28, 40, 39, 28, 29, 41, 40, 29, 30, 42, 41, 30, 31, 43, 42, 31, 32, 44, 43, 32, 33, 45, 44, 33, 34, 46, 45, 34, 35, 47, 46, 35, 24, 36, 47]
            rel material:binding = </Asset/Looks/Body>
        }
        def Mesh "Floret0_1" (
            prepend apiSchemas = ["MaterialBindingAPI"]
        ) {
            point3f[] points = [(-0.025517, 0.006600, 0.018750), (-0.025779, 0.008985, 0.018750), (-0.028605, 0.009728, 0.018750), (-0.030800, 0.011795, 0.018750), (-0.032995, 0.009728, 0.018750), (-0.035821, 0.008985, 0.018750), (-0.036083, 0.006600, 0.018750), (-0.034929, 0.004639, 0.018750), (-0.033888, 0.002199, 0.018750), (-0.030800, 0.003101, 0.018750), (-0.027712, 0.002199, 0.018750), (-0.026671, 0.004639, 0.018750), (-0.015549, 0.006600, 0.027750), (-0.020165, 0.011652, 0.027750), (-0.024375, 0.015757, 0.027750), (-0.030800, 0.018806, 0.027750), (-0.036214, 0.014316, 0.027750), (-0.044468, 0.013093, 0.027750), (-0.042007, 0.006600, 0.027750), (-0.043078, 0.000767, 0.027750), (-0.037604, -0.003097, 0.027750), (-0.030800, -0.002965, 0.027750), (-0.022985, -0.004538, 0.027750), (-0.021555, 0.002208, 0.027750), (-0.015058, 0.006600, 0.036750), (-0.021483, 0.011026, 0.036750), (-0.023303, 0.017285, 0.036750), (-0.030800, 0.017003, 0.036750), (-0.037040, 0.015493, 0.036750), (-0.043888, 0.012818, 0.036750), (-0.041515, 0.006600, 0.036750), (-0.044396, 0.000141, 0.036750), (-0.036532, -0.001569, 0.036750), (-0.030800, -0.004768, 0.036750), (-0.023811, -0.003361, 0.036750), (-0.020975, 0.001932, 0.036750), (-0.025077, 0.006600, 0.045750), (-0.026959, 0.008425, 0.045750), (-0.027645, 0.011097, 0.045750), (-0.030800, 0.010180, 0.045750), (-0.033735, 0.010783, 0.045750), (-0.035302, 0.008739, 0.045750), (-0.035642, 0.006600, 0.045750), (-0.036109, 0.004078, 0.045750), (-0.032928, 0.003568, 0.045750), (-0.030800, 0.001486, 0.045750), (-0.028452, 0.003254, 0.045750), (-0.026152, 0.004392, 0.045750)]
            int[] faceVertexCounts = [12, 12, 4, 4, 4, 4, 4, 4, 4, 4, 4, 4, 4, 4, 4, 4, 4, 4, 4, 4, 4, 4, 4, 4, 4, 4, 4, 4, 4, 4, 4, 4, 4, 4, 4, 4, 4, 4]
            int[] faceVertexIndices = [11, 10, 9, 8, 7, 6, 5, 4, 3, 2, 1, 0, 36, 37, 38, 39, 40, 41, 42, 43, 44, 45, 46, 47, 0, 1, 13, 12, 1, 2, 14, 13, 2, 3, 15, 14, 3, 4, 16, 15, 4, 5, 17, 16, 5, 6, 18, 17, 6, 7, 19, 18, 7, 8, 20, 19, 8, 9, 21, 20, 9, 10, 22, 21, 10, 11, 23, 22, 11, 0, 12, 23, 12, 13, 25, 24, 13, 14, 26, 25, 14, 15, 27, 26, 15, 16, 28, 27, 16, 17, 29, 28, 17, 18, 30, 29, 18, 19, 31, 30, 19, 20, 32, 31, 20, 21, 33, 32, 21, 22, 34, 33, 22, 23, 35, 34, 23, 12, 24, 35, 24, 25, 37, 36, 25, 26, 38, 37, 26, 27, 39, 38, 27, 28, 40, 39, 28, 29, 41, 40, 29, 30, 42, 41, 30, 31, 43, 42, 31, 32, 44, 43, 32, 33, 45, 44, 33, 34, 46, 45, 34, 35, 47, 46, 35, 24, 36, 47]
            rel material:binding = </Asset/Looks/Body>
        }
        def Mesh "Floret0_2" (
            prepend apiSchemas = ["MaterialBindingAPI"]
        ) {
            point3f[] points = [(-0.015017, 0.000000, 0.013500), (-0.015279, 0.002385, 0.013500), (-0.018105, 0.003128, 0.013500), (-0.020300, 0.005195, 0.013500), (-0.022495, 0.003128, 0.013500), (-0.025321, 0.002385, 0.013500), (-0.025583, 0.000000, 0.013500), (-0.024429, -0.001961, 0.013500), (-0.023388, -0.004401, 0.013500), (-0.020300, -0.003499, 0.013500), (-0.017212, -0.004401, 0.013500), (-0.016171, -0.001961, 0.013500), (-0.005049, 0.000000, 0.022500), (-0.009665, 0.005052, 0.022500), (-0.013875, 0.009157, 0.022500), (-0.020300, 0.012206, 0.022500), (-0.025714, 0.007716, 0.022500), (-0.033968, 0.006493, 0.022500), (-0.031507, 0.000000, 0.022500), (-0.032578, -0.005833, 0.022500), (-0.027104, -0.009697, 0.022500), (-0.020300, -0.009565, 0.022500), (-0.012485, -0.011138, 0.022500), (-0.011055, -0.004392, 0.022500), (-0.004558, 0.000000, 0.031500), (-0.010983, 0.004426, 0.031500), (-0.012803, 0.010685, 0.031500), (-0.020300, 0.010403, 0.031500), (-0.026540, 0.008893, 0.031500), (-0.033388, 0.006218, 0.031500), (-0.031015, 0.000000, 0.031500), (-0.033896, -0.006459, 0.031500), (-0.026032, -0.008169, 0.031500), (-0.020300, -0.011368, 0.031500), (-0.013311, -0.009961, 0.031500), (-0.010475, -0.004668, 0.031500), (-0.014577, 0.000000, 0.040500), (-0.016459, 0.001825, 0.040500), (-0.017145, 0.004497, 0.040500), (-0.020300, 0.003580, 0.040500), (-0.023235, 0.004183, 0.040500), (-0.024802, 0.002139, 0.040500), (-0.025142, 0.000000, 0.040500), (-0.025609, -0.002522, 0.040500), (-0.022428, -0.003032, 0.040500), (-0.020300, -0.005114, 0.040500), (-0.017952, -0.003346, 0.040500), (-0.015652, -0.002208, 0.040500)]
            int[] faceVertexCounts = [12, 12, 4, 4, 4, 4, 4, 4, 4, 4, 4, 4, 4, 4, 4, 4, 4, 4, 4, 4, 4, 4, 4, 4, 4, 4, 4, 4, 4, 4, 4, 4, 4, 4, 4, 4, 4, 4]
            int[] faceVertexIndices = [11, 10, 9, 8, 7, 6, 5, 4, 3, 2, 1, 0, 36, 37, 38, 39, 40, 41, 42, 43, 44, 45, 46, 47, 0, 1, 13, 12, 1, 2, 14, 13, 2, 3, 15, 14, 3, 4, 16, 15, 4, 5, 17, 16, 5, 6, 18, 17, 6, 7, 19, 18, 7, 8, 20, 19, 8, 9, 21, 20, 9, 10, 22, 21, 10, 11, 23, 22, 11, 0, 12, 23, 12, 13, 25, 24, 13, 14, 26, 25, 14, 15, 27, 26, 15, 16, 28, 27, 16, 17, 29, 28, 17, 18, 30, 29, 18, 19, 31, 30, 19, 20, 32, 31, 20, 21, 33, 32, 21, 22, 34, 33, 22, 23, 35, 34, 23, 12, 24, 35, 24, 25, 37, 36, 25, 26, 38, 37, 26, 27, 39, 38, 27, 28, 40, 39, 28, 29, 41, 40, 29, 30, 42, 41, 30, 31, 43, 42, 31, 32, 44, 43, 32, 33, 45, 44, 33, 34, 46, 45, 34, 35, 47, 46, 35, 24, 36, 47]
            rel material:binding = </Asset/Looks/Body>
        }
        def Mesh "Branch1" (
            prepend apiSchemas = ["MaterialBindingAPI"]
        ) {
            point3f[] points = [(0.041300, 0.000000, -0.022500), (0.040260, 0.004556, -0.022500), (0.037347, 0.008209, -0.022500), (0.033136, 0.010237, -0.022500), (0.028464, 0.010237, -0.022500), (0.024253, 0.008209, -0.022500), (0.021340, 0.004556, -0.022500), (0.020300, 0.000000, -0.022500), (0.021340, -0.004556, -0.022500), (0.024253, -0.008209, -0.022500), (0.028464, -0.010237, -0.022500), (0.033136, -0.010237, -0.022500), (0.037347, -0.008209, -0.022500), (0.040260, -0.004556, -0.022500), (0.045500, 0.000000, 0.028500), (0.044044, 0.006378, 0.028500), (0.039965, 0.011493, 0.028500), (0.034071, 0.014331, 0.028500), (0.027529, 0.014331, 0.028500), (0.021635, 0.011493, 0.028500), (0.017556, 0.006378, 0.028500), (0.016100, 0.000000, 0.028500), (0.017556, -0.006378, 0.028500), (0.021635, -0.011493, 0.028500), (0.027529, -0.014331, 0.028500), (0.034071, -0.014331, 0.028500), (0.039965, -0.011493, 0.028500), (0.044044, -0.006378, 0.028500)]
            int[] faceVertexCounts = [14, 14, 4, 4, 4, 4, 4, 4, 4, 4, 4, 4, 4, 4, 4, 4]
            int[] faceVertexIndices = [13, 12, 11, 10, 9, 8, 7, 6, 5, 4, 3, 2, 1, 0, 14, 15, 16, 17, 18, 19, 20, 21, 22, 23, 24, 25, 26, 27, 0, 1, 15, 14, 1, 2, 16, 15, 2, 3, 17, 16, 3, 4, 18, 17, 4, 5, 19, 18, 5, 6, 20, 19, 6, 7, 21, 20, 7, 8, 22, 21, 8, 9, 23, 22, 9, 10, 24, 23, 10, 11, 25, 24, 11, 12, 26, 25, 12, 13, 27, 26, 13, 0, 14, 27]
            rel material:binding = </Asset/Looks/Stem>
        }
        def Mesh "Floret1_0" (
            prepend apiSchemas = ["MaterialBindingAPI"]
        ) {
            point3f[] points = [(0.025583, 0.000000, 0.016500), (0.025321, 0.002385, 0.016500), (0.022495, 0.003128, 0.016500), (0.020300, 0.005195, 0.016500), (0.018105, 0.003128, 0.016500), (0.015279, 0.002385, 0.016500), (0.015017, 0.000000, 0.016500), (0.016171, -0.001961, 0.016500), (0.017212, -0.004401, 0.016500), (0.020300, -0.003499, 0.016500), (0.023388, -0.004401, 0.016500), (0.024429, -0.001961, 0.016500), (0.035551, 0.000000, 0.025500), (0.030935, 0.005052, 0.025500), (0.026725, 0.009157, 0.025500), (0.020300, 0.012206, 0.025500), (0.014886, 0.007716, 0.025500), (0.006632, 0.006493, 0.025500), (0.009093, 0.000000, 0.025500), (0.008022, -0.005833, 0.025500), (0.013496, -0.009697, 0.025500), (0.020300, -0.009565, 0.025500), (0.028115, -0.011138, 0.025500), (0.029545, -0.004392, 0.025500), (0.036042, 0.000000, 0.034500), (0.029617, 0.004426, 0.034500), (0.027797, 0.010685, 0.034500), (0.020300, 0.010403, 0.034500), (0.014060, 0.008893, 0.034500), (0.007212, 0.006218, 0.034500), (0.009585, 0.000000, 0.034500), (0.006704, -0.006459, 0.034500), (0.014568, -0.008169, 0.034500), (0.020300, -0.011368, 0.034500), (0.027289, -0.009961, 0.034500), (0.030125, -0.004668, 0.034500), (0.026023, 0.000000, 0.043500), (0.024141, 0.001825, 0.043500), (0.023455, 0.004497, 0.043500), (0.020300, 0.003580, 0.043500), (0.017365, 0.004183, 0.043500), (0.015798, 0.002139, 0.043500), (0.015458, 0.000000, 0.043500), (0.014991, -0.002522, 0.043500), (0.018172, -0.003032, 0.043500), (0.020300, -0.005114, 0.043500), (0.022648, -0.003346, 0.043500), (0.024948, -0.002208, 0.043500)]
            int[] faceVertexCounts = [12, 12, 4, 4, 4, 4, 4, 4, 4, 4, 4, 4, 4, 4, 4, 4, 4, 4, 4, 4, 4, 4, 4, 4, 4, 4, 4, 4, 4, 4, 4, 4, 4, 4, 4, 4, 4, 4]
            int[] faceVertexIndices = [11, 10, 9, 8, 7, 6, 5, 4, 3, 2, 1, 0, 36, 37, 38, 39, 40, 41, 42, 43, 44, 45, 46, 47, 0, 1, 13, 12, 1, 2, 14, 13, 2, 3, 15, 14, 3, 4, 16, 15, 4, 5, 17, 16, 5, 6, 18, 17, 6, 7, 19, 18, 7, 8, 20, 19, 8, 9, 21, 20, 9, 10, 22, 21, 10, 11, 23, 22, 11, 0, 12, 23, 12, 13, 25, 24, 13, 14, 26, 25, 14, 15, 27, 26, 15, 16, 28, 27, 16, 17, 29, 28, 17, 18, 30, 29, 18, 19, 31, 30, 19, 20, 32, 31, 20, 21, 33, 32, 21, 22, 34, 33, 22, 23, 35, 34, 23, 12, 24, 35, 24, 25, 37, 36, 25, 26, 38, 37, 26, 27, 39, 38, 27, 28, 40, 39, 28, 29, 41, 40, 29, 30, 42, 41, 30, 31, 43, 42, 31, 32, 44, 43, 32, 33, 45, 44, 33, 34, 46, 45, 34, 35, 47, 46, 35, 24, 36, 47]
            rel material:binding = </Asset/Looks/Body>
        }
        def Mesh "Floret1_1" (
            prepend apiSchemas = ["MaterialBindingAPI"]
        ) {
            point3f[] points = [(0.036083, 0.006600, 0.021750), (0.035821, 0.008985, 0.021750), (0.032995, 0.009728, 0.021750), (0.030800, 0.011795, 0.021750), (0.028605, 0.009728, 0.021750), (0.025779, 0.008985, 0.021750), (0.025517, 0.006600, 0.021750), (0.026671, 0.004639, 0.021750), (0.027712, 0.002199, 0.021750), (0.030800, 0.003101, 0.021750), (0.033888, 0.002199, 0.021750), (0.034929, 0.004639, 0.021750), (0.046051, 0.006600, 0.030750), (0.041435, 0.011652, 0.030750), (0.037225, 0.015757, 0.030750), (0.030800, 0.018806, 0.030750), (0.025386, 0.014316, 0.030750), (0.017132, 0.013093, 0.030750), (0.019593, 0.006600, 0.030750), (0.018522, 0.000767, 0.030750), (0.023996, -0.003097, 0.030750), (0.030800, -0.002965, 0.030750), (0.038615, -0.004538, 0.030750), (0.040045, 0.002208, 0.030750), (0.046542, 0.006600, 0.039750), (0.040117, 0.011026, 0.039750), (0.038297, 0.017285, 0.039750), (0.030800, 0.017003, 0.039750), (0.024560, 0.015493, 0.039750), (0.017712, 0.012818, 0.039750), (0.020085, 0.006600, 0.039750), (0.017204, 0.000141, 0.039750), (0.025068, -0.001569, 0.039750), (0.030800, -0.004768, 0.039750), (0.037789, -0.003361, 0.039750), (0.040625, 0.001932, 0.039750), (0.036523, 0.006600, 0.048750), (0.034641, 0.008425, 0.048750), (0.033955, 0.011097, 0.048750), (0.030800, 0.010180, 0.048750), (0.027865, 0.010783, 0.048750), (0.026298, 0.008739, 0.048750), (0.025958, 0.006600, 0.048750), (0.025491, 0.004078, 0.048750), (0.028672, 0.003568, 0.048750), (0.030800, 0.001486, 0.048750), (0.033148, 0.003254, 0.048750), (0.035448, 0.004392, 0.048750)]
            int[] faceVertexCounts = [12, 12, 4, 4, 4, 4, 4, 4, 4, 4, 4, 4, 4, 4, 4, 4, 4, 4, 4, 4, 4, 4, 4, 4, 4, 4, 4, 4, 4, 4, 4, 4, 4, 4, 4, 4, 4, 4]
            int[] faceVertexIndices = [11, 10, 9, 8, 7, 6, 5, 4, 3, 2, 1, 0, 36, 37, 38, 39, 40, 41, 42, 43, 44, 45, 46, 47, 0, 1, 13, 12, 1, 2, 14, 13, 2, 3, 15, 14, 3, 4, 16, 15, 4, 5, 17, 16, 5, 6, 18, 17, 6, 7, 19, 18, 7, 8, 20, 19, 8, 9, 21, 20, 9, 10, 22, 21, 10, 11, 23, 22, 11, 0, 12, 23, 12, 13, 25, 24, 13, 14, 26, 25, 14, 15, 27, 26, 15, 16, 28, 27, 16, 17, 29, 28, 17, 18, 30, 29, 18, 19, 31, 30, 19, 20, 32, 31, 20, 21, 33, 32, 21, 22, 34, 33, 22, 23, 35, 34, 23, 12, 24, 35, 24, 25, 37, 36, 25, 26, 38, 37, 26, 27, 39, 38, 27, 28, 40, 39, 28, 29, 41, 40, 29, 30, 42, 41, 30, 31, 43, 42, 31, 32, 44, 43, 32, 33, 45, 44, 33, 34, 46, 45, 34, 35, 47, 46, 35, 24, 36, 47]
            rel material:binding = </Asset/Looks/Body>
        }
        def Mesh "Floret1_2" (
            prepend apiSchemas = ["MaterialBindingAPI"]
        ) {
            point3f[] points = [(0.046583, 0.000000, 0.016500), (0.046321, 0.002385, 0.016500), (0.043495, 0.003128, 0.016500), (0.041300, 0.005195, 0.016500), (0.039105, 0.003128, 0.016500), (0.036279, 0.002385, 0.016500), (0.036017, 0.000000, 0.016500), (0.037171, -0.001961, 0.016500), (0.038212, -0.004401, 0.016500), (0.041300, -0.003499, 0.016500), (0.044388, -0.004401, 0.016500), (0.045429, -0.001961, 0.016500), (0.056551, 0.000000, 0.025500), (0.051935, 0.005052, 0.025500), (0.047725, 0.009157, 0.025500), (0.041300, 0.012206, 0.025500), (0.035886, 0.007716, 0.025500), (0.027632, 0.006493, 0.025500), (0.030093, 0.000000, 0.025500), (0.029022, -0.005833, 0.025500), (0.034496, -0.009697, 0.025500), (0.041300, -0.009565, 0.025500), (0.049115, -0.011138, 0.025500), (0.050545, -0.004392, 0.025500), (0.057042, 0.000000, 0.034500), (0.050617, 0.004426, 0.034500), (0.048797, 0.010685, 0.034500), (0.041300, 0.010403, 0.034500), (0.035060, 0.008893, 0.034500), (0.028212, 0.006218, 0.034500), (0.030585, 0.000000, 0.034500), (0.027704, -0.006459, 0.034500), (0.035568, -0.008169, 0.034500), (0.041300, -0.011368, 0.034500), (0.048289, -0.009961, 0.034500), (0.051125, -0.004668, 0.034500), (0.047023, 0.000000, 0.043500), (0.045141, 0.001825, 0.043500), (0.044455, 0.004497, 0.043500), (0.041300, 0.003580, 0.043500), (0.038365, 0.004183, 0.043500), (0.036798, 0.002139, 0.043500), (0.036458, 0.000000, 0.043500), (0.035991, -0.002522, 0.043500), (0.039172, -0.003032, 0.043500), (0.041300, -0.005114, 0.043500), (0.043648, -0.003346, 0.043500), (0.045948, -0.002208, 0.043500)]
            int[] faceVertexCounts = [12, 12, 4, 4, 4, 4, 4, 4, 4, 4, 4, 4, 4, 4, 4, 4, 4, 4, 4, 4, 4, 4, 4, 4, 4, 4, 4, 4, 4, 4, 4, 4, 4, 4, 4, 4, 4, 4]
            int[] faceVertexIndices = [11, 10, 9, 8, 7, 6, 5, 4, 3, 2, 1, 0, 36, 37, 38, 39, 40, 41, 42, 43, 44, 45, 46, 47, 0, 1, 13, 12, 1, 2, 14, 13, 2, 3, 15, 14, 3, 4, 16, 15, 4, 5, 17, 16, 5, 6, 18, 17, 6, 7, 19, 18, 7, 8, 20, 19, 8, 9, 21, 20, 9, 10, 22, 21, 10, 11, 23, 22, 11, 0, 12, 23, 12, 13, 25, 24, 13, 14, 26, 25, 14, 15, 27, 26, 15, 16, 28, 27, 16, 17, 29, 28, 17, 18, 30, 29, 18, 19, 31, 30, 19, 20, 32, 31, 20, 21, 33, 32, 21, 22, 34, 33, 22, 23, 35, 34, 23, 12, 24, 35, 24, 25, 37, 36, 25, 26, 38, 37, 26, 27, 39, 38, 27, 28, 40, 39, 28, 29, 41, 40, 29, 30, 42, 41, 30, 31, 43, 42, 31, 32, 44, 43, 32, 33, 45, 44, 33, 34, 46, 45, 34, 35, 47, 46, 35, 24, 36, 47]
            rel material:binding = </Asset/Looks/Body>
        }
        def Mesh "Branch2" (
            prepend apiSchemas = ["MaterialBindingAPI"]
        ) {
            point3f[] points = [(0.010500, 0.024000, -0.012000), (0.009460, 0.028556, -0.012000), (0.006547, 0.032209, -0.012000), (0.002336, 0.034237, -0.012000), (-0.002336, 0.034237, -0.012000), (-0.006547, 0.032209, -0.012000), (-0.009460, 0.028556, -0.012000), (-0.010500, 0.024000, -0.012000), (-0.009460, 0.019444, -0.012000), (-0.006547, 0.015791, -0.012000), (-0.002336, 0.013763, -0.012000), (0.002336, 0.013763, -0.012000), (0.006547, 0.015791, -0.012000), (0.009460, 0.019444, -0.012000), (0.014700, 0.024000, 0.039000), (0.013244, 0.030378, 0.039000), (0.009165, 0.035493, 0.039000), (0.003271, 0.038331, 0.039000), (-0.003271, 0.038331, 0.039000), (-0.009165, 0.035493, 0.039000), (-0.013244, 0.030378, 0.039000), (-0.014700, 0.024000, 0.039000), (-0.013244, 0.017622, 0.039000), (-0.009165, 0.012507, 0.039000), (-0.003271, 0.009669, 0.039000), (0.003271, 0.009669, 0.039000), (0.009165, 0.012507, 0.039000), (0.013244, 0.017622, 0.039000)]
            int[] faceVertexCounts = [14, 14, 4, 4, 4, 4, 4, 4, 4, 4, 4, 4, 4, 4, 4, 4]
            int[] faceVertexIndices = [13, 12, 11, 10, 9, 8, 7, 6, 5, 4, 3, 2, 1, 0, 14, 15, 16, 17, 18, 19, 20, 21, 22, 23, 24, 25, 26, 27, 0, 1, 15, 14, 1, 2, 16, 15, 2, 3, 17, 16, 3, 4, 18, 17, 4, 5, 19, 18, 5, 6, 20, 19, 6, 7, 21, 20, 7, 8, 22, 21, 8, 9, 23, 22, 9, 10, 24, 23, 10, 11, 25, 24, 11, 12, 26, 25, 12, 13, 27, 26, 13, 0, 14, 27]
            rel material:binding = </Asset/Looks/Stem>
        }
        def Mesh "Floret2_0" (
            prepend apiSchemas = ["MaterialBindingAPI"]
        ) {
            point3f[] points = [(-0.005217, 0.024000, 0.027000), (-0.005479, 0.026385, 0.027000), (-0.008305, 0.027128, 0.027000), (-0.010500, 0.029195, 0.027000), (-0.012695, 0.027128, 0.027000), (-0.015521, 0.026385, 0.027000), (-0.015783, 0.024000, 0.027000), (-0.014629, 0.022039, 0.027000), (-0.013588, 0.019599, 0.027000), (-0.010500, 0.020501, 0.027000), (-0.007412, 0.019599, 0.027000), (-0.006371, 0.022039, 0.027000), (0.004751, 0.024000, 0.036000), (0.000135, 0.029052, 0.036000), (-0.004075, 0.033157, 0.036000), (-0.010500, 0.036206, 0.036000), (-0.015914, 0.031716, 0.036000), (-0.024168, 0.030493, 0.036000), (-0.021707, 0.024000, 0.036000), (-0.022778, 0.018167, 0.036000), (-0.017304, 0.014303, 0.036000), (-0.010500, 0.014435, 0.036000), (-0.002685, 0.012862, 0.036000), (-0.001255, 0.019608, 0.036000), (0.005242, 0.024000, 0.045000), (-0.001183, 0.028426, 0.045000), (-0.003003, 0.034685, 0.045000), (-0.010500, 0.034403, 0.045000), (-0.016740, 0.032893, 0.045000), (-0.023588, 0.030218, 0.045000), (-0.021215, 0.024000, 0.045000), (-0.024096, 0.017541, 0.045000), (-0.016232, 0.015831, 0.045000), (-0.010500, 0.012632, 0.045000), (-0.003511, 0.014039, 0.045000), (-0.000675, 0.019332, 0.045000), (-0.004777, 0.024000, 0.054000), (-0.006659, 0.025825, 0.054000), (-0.007345, 0.028497, 0.054000), (-0.010500, 0.027580, 0.054000), (-0.013435, 0.028183, 0.054000), (-0.015002, 0.026139, 0.054000), (-0.015342, 0.024000, 0.054000), (-0.015809, 0.021478, 0.054000), (-0.012628, 0.020968, 0.054000), (-0.010500, 0.018886, 0.054000), (-0.008152, 0.020654, 0.054000), (-0.005852, 0.021792, 0.054000)]
            int[] faceVertexCounts = [12, 12, 4, 4, 4, 4, 4, 4, 4, 4, 4, 4, 4, 4, 4, 4, 4, 4, 4, 4, 4, 4, 4, 4, 4, 4, 4, 4, 4, 4, 4, 4, 4, 4, 4, 4, 4, 4]
            int[] faceVertexIndices = [11, 10, 9, 8, 7, 6, 5, 4, 3, 2, 1, 0, 36, 37, 38, 39, 40, 41, 42, 43, 44, 45, 46, 47, 0, 1, 13, 12, 1, 2, 14, 13, 2, 3, 15, 14, 3, 4, 16, 15, 4, 5, 17, 16, 5, 6, 18, 17, 6, 7, 19, 18, 7, 8, 20, 19, 8, 9, 21, 20, 9, 10, 22, 21, 10, 11, 23, 22, 11, 0, 12, 23, 12, 13, 25, 24, 13, 14, 26, 25, 14, 15, 27, 26, 15, 16, 28, 27, 16, 17, 29, 28, 17, 18, 30, 29, 18, 19, 31, 30, 19, 20, 32, 31, 20, 21, 33, 32, 21, 22, 34, 33, 22, 23, 35, 34, 23, 12, 24, 35, 24, 25, 37, 36, 25, 26, 38, 37, 26, 27, 39, 38, 27, 28, 40, 39, 28, 29, 41, 40, 29, 30, 42, 41, 30, 31, 43, 42, 31, 32, 44, 43, 32, 33, 45, 44, 33, 34, 46, 45, 34, 35, 47, 46, 35, 24, 36, 47]
            rel material:binding = </Asset/Looks/Body>
        }
        def Mesh "Floret2_1" (
            prepend apiSchemas = ["MaterialBindingAPI"]
        ) {
            point3f[] points = [(0.005283, 0.030600, 0.032250), (0.005021, 0.032985, 0.032250), (0.002195, 0.033728, 0.032250), (0.000000, 0.035795, 0.032250), (-0.002195, 0.033728, 0.032250), (-0.005021, 0.032985, 0.032250), (-0.005283, 0.030600, 0.032250), (-0.004129, 0.028639, 0.032250), (-0.003088, 0.026199, 0.032250), (-0.000000, 0.027101, 0.032250), (0.003088, 0.026199, 0.032250), (0.004129, 0.028639, 0.032250), (0.015251, 0.030600, 0.041250), (0.010635, 0.035652, 0.041250), (0.006425, 0.039757, 0.041250), (0.000000, 0.042806, 0.041250), (-0.005414, 0.038316, 0.041250), (-0.013668, 0.037093, 0.041250), (-0.011207, 0.030600, 0.041250), (-0.012278, 0.024767, 0.041250), (-0.006804, 0.020903, 0.041250), (-0.000000, 0.021035, 0.041250), (0.007815, 0.019462, 0.041250), (0.009245, 0.026208, 0.041250), (0.015742, 0.030600, 0.050250), (0.009317, 0.035026, 0.050250), (0.007497, 0.041285, 0.050250), (0.000000, 0.041003, 0.050250), (-0.006240, 0.039493, 0.050250), (-0.013088, 0.036818, 0.050250), (-0.010715, 0.030600, 0.050250), (-0.013596, 0.024141, 0.050250), (-0.005732, 0.022431, 0.050250), (-0.000000, 0.019232, 0.050250), (0.006989, 0.020639, 0.050250), (0.009825, 0.025932, 0.050250), (0.005723, 0.030600, 0.059250), (0.003841, 0.032425, 0.059250), (0.003155, 0.035097, 0.059250), (0.000000, 0.034180, 0.059250), (-0.002935, 0.034783, 0.059250), (-0.004502, 0.032739, 0.059250), (-0.004842, 0.030600, 0.059250), (-0.005309, 0.028078, 0.059250), (-0.002128, 0.027568, 0.059250), (-0.000000, 0.025486, 0.059250), (0.002348, 0.027254, 0.059250), (0.004648, 0.028392, 0.059250)]
            int[] faceVertexCounts = [12, 12, 4, 4, 4, 4, 4, 4, 4, 4, 4, 4, 4, 4, 4, 4, 4, 4, 4, 4, 4, 4, 4, 4, 4, 4, 4, 4, 4, 4, 4, 4, 4, 4, 4, 4, 4, 4]
            int[] faceVertexIndices = [11, 10, 9, 8, 7, 6, 5, 4, 3, 2, 1, 0, 36, 37, 38, 39, 40, 41, 42, 43, 44, 45, 46, 47, 0, 1, 13, 12, 1, 2, 14, 13, 2, 3, 15, 14, 3, 4, 16, 15, 4, 5, 17, 16, 5, 6, 18, 17, 6, 7, 19, 18, 7, 8, 20, 19, 8, 9, 21, 20, 9, 10, 22, 21, 10, 11, 23, 22, 11, 0, 12, 23, 12, 13, 25, 24, 13, 14, 26, 25, 14, 15, 27, 26, 15, 16, 28, 27, 16, 17, 29, 28, 17, 18, 30, 29, 18, 19, 31, 30, 19, 20, 32, 31, 20, 21, 33, 32, 21, 22, 34, 33, 22, 23, 35, 34, 23, 12, 24, 35, 24, 25, 37, 36, 25, 26, 38, 37, 26, 27, 39, 38, 27, 28, 40, 39, 28, 29, 41, 40, 29, 30, 42, 41, 30, 31, 43, 42, 31, 32, 44, 43, 32, 33, 45, 44, 33, 34, 46, 45, 34, 35, 47, 46, 35, 24, 36, 47]
            rel material:binding = </Asset/Looks/Body>
        }
        def Mesh "Floret2_2" (
            prepend apiSchemas = ["MaterialBindingAPI"]
        ) {
            point3f[] points = [(0.015783, 0.024000, 0.027000), (0.015521, 0.026385, 0.027000), (0.012695, 0.027128, 0.027000), (0.010500, 0.029195, 0.027000), (0.008305, 0.027128, 0.027000), (0.005479, 0.026385, 0.027000), (0.005217, 0.024000, 0.027000), (0.006371, 0.022039, 0.027000), (0.007412, 0.019599, 0.027000), (0.010500, 0.020501, 0.027000), (0.013588, 0.019599, 0.027000), (0.014629, 0.022039, 0.027000), (0.025751, 0.024000, 0.036000), (0.021135, 0.029052, 0.036000), (0.016925, 0.033157, 0.036000), (0.010500, 0.036206, 0.036000), (0.005086, 0.031716, 0.036000), (-0.003168, 0.030493, 0.036000), (-0.000707, 0.024000, 0.036000), (-0.001778, 0.018167, 0.036000), (0.003696, 0.014303, 0.036000), (0.010500, 0.014435, 0.036000), (0.018315, 0.012862, 0.036000), (0.019745, 0.019608, 0.036000), (0.026242, 0.024000, 0.045000), (0.019817, 0.028426, 0.045000), (0.017997, 0.034685, 0.045000), (0.010500, 0.034403, 0.045000), (0.004260, 0.032893, 0.045000), (-0.002588, 0.030218, 0.045000), (-0.000215, 0.024000, 0.045000), (-0.003096, 0.017541, 0.045000), (0.004768, 0.015831, 0.045000), (0.010500, 0.012632, 0.045000), (0.017489, 0.014039, 0.045000), (0.020325, 0.019332, 0.045000), (0.016223, 0.024000, 0.054000), (0.014341, 0.025825, 0.054000), (0.013655, 0.028497, 0.054000), (0.010500, 0.027580, 0.054000), (0.007565, 0.028183, 0.054000), (0.005998, 0.026139, 0.054000), (0.005658, 0.024000, 0.054000), (0.005191, 0.021478, 0.054000), (0.008372, 0.020968, 0.054000), (0.010500, 0.018886, 0.054000), (0.012848, 0.020654, 0.054000), (0.015148, 0.021792, 0.054000)]
            int[] faceVertexCounts = [12, 12, 4, 4, 4, 4, 4, 4, 4, 4, 4, 4, 4, 4, 4, 4, 4, 4, 4, 4, 4, 4, 4, 4, 4, 4, 4, 4, 4, 4, 4, 4, 4, 4, 4, 4, 4, 4]
            int[] faceVertexIndices = [11, 10, 9, 8, 7, 6, 5, 4, 3, 2, 1, 0, 36, 37, 38, 39, 40, 41, 42, 43, 44, 45, 46, 47, 0, 1, 13, 12, 1, 2, 14, 13, 2, 3, 15, 14, 3, 4, 16, 15, 4, 5, 17, 16, 5, 6, 18, 17, 6, 7, 19, 18, 7, 8, 20, 19, 8, 9, 21, 20, 9, 10, 22, 21, 10, 11, 23, 22, 11, 0, 12, 23, 12, 13, 25, 24, 13, 14, 26, 25, 14, 15, 27, 26, 15, 16, 28, 27, 16, 17, 29, 28, 17, 18, 30, 29, 18, 19, 31, 30, 19, 20, 32, 31, 20, 21, 33, 32, 21, 22, 34, 33, 22, 23, 35, 34, 23, 12, 24, 35, 24, 25, 37, 36, 25, 26, 38, 37, 26, 27, 39, 38, 27, 28, 40, 39, 28, 29, 41, 40, 29, 30, 42, 41, 30, 31, 43, 42, 31, 32, 44, 43, 32, 33, 45, 44, 33, 34, 46, 45, 34, 35, 47, 46, 35, 24, 36, 47]
            rel material:binding = </Asset/Looks/Body>
        }
        def Mesh "Branch3" (
            prepend apiSchemas = ["MaterialBindingAPI"]
        ) {
            point3f[] points = [(-0.034300, -0.019200, -0.004500), (-0.035340, -0.014644, -0.004500), (-0.038253, -0.010991, -0.004500), (-0.042464, -0.008963, -0.004500), (-0.047136, -0.008963, -0.004500), (-0.051347, -0.010991, -0.004500), (-0.054260, -0.014644, -0.004500), (-0.055300, -0.019200, -0.004500), (-0.054260, -0.023756, -0.004500), (-0.051347, -0.027409, -0.004500), (-0.047136, -0.029437, -0.004500), (-0.042464, -0.029437, -0.004500), (-0.038253, -0.027409, -0.004500), (-0.035340, -0.023756, -0.004500), (-0.030100, -0.019200, 0.046500), (-0.031556, -0.012822, 0.046500), (-0.035635, -0.007707, 0.046500), (-0.041529, -0.004869, 0.046500), (-0.048071, -0.004869, 0.046500), (-0.053965, -0.007707, 0.046500), (-0.058044, -0.012822, 0.046500), (-0.059500, -0.019200, 0.046500), (-0.058044, -0.025578, 0.046500), (-0.053965, -0.030693, 0.046500), (-0.048071, -0.033531, 0.046500), (-0.041529, -0.033531, 0.046500), (-0.035635, -0.030693, 0.046500), (-0.031556, -0.025578, 0.046500)]
            int[] faceVertexCounts = [14, 14, 4, 4, 4, 4, 4, 4, 4, 4, 4, 4, 4, 4, 4, 4]
            int[] faceVertexIndices = [13, 12, 11, 10, 9, 8, 7, 6, 5, 4, 3, 2, 1, 0, 14, 15, 16, 17, 18, 19, 20, 21, 22, 23, 24, 25, 26, 27, 0, 1, 15, 14, 1, 2, 16, 15, 2, 3, 17, 16, 3, 4, 18, 17, 4, 5, 19, 18, 5, 6, 20, 19, 6, 7, 21, 20, 7, 8, 22, 21, 8, 9, 23, 22, 9, 10, 24, 23, 10, 11, 25, 24, 11, 12, 26, 25, 12, 13, 27, 26, 13, 0, 14, 27]
            rel material:binding = </Asset/Looks/Stem>
        }
        def Mesh "Floret3_0" (
            prepend apiSchemas = ["MaterialBindingAPI"]
        ) {
            point3f[] points = [(-0.050017, -0.019200, 0.034500), (-0.050279, -0.016815, 0.034500), (-0.053105, -0.016072, 0.034500), (-0.055300, -0.014005, 0.034500), (-0.057495, -0.016072, 0.034500), (-0.060321, -0.016815, 0.034500), (-0.060583, -0.019200, 0.034500), (-0.059429, -0.021161, 0.034500), (-0.058388, -0.023601, 0.034500), (-0.055300, -0.022699, 0.034500), (-0.052212, -0.023601, 0.034500), (-0.051171, -0.021161, 0.034500), (-0.040049, -0.019200, 0.043500), (-0.044665, -0.014148, 0.043500), (-0.048875, -0.010043, 0.043500), (-0.055300, -0.006994, 0.043500), (-0.060714, -0.011484, 0.043500), (-0.068968, -0.012707, 0.043500), (-0.066507, -0.019200, 0.043500), (-0.067578, -0.025033, 0.043500), (-0.062104, -0.028897, 0.043500), (-0.055300, -0.028765, 0.043500), (-0.047485, -0.030338, 0.043500), (-0.046055, -0.023592, 0.043500), (-0.039558, -0.019200, 0.052500), (-0.045983, -0.014774, 0.052500), (-0.047803, -0.008515, 0.052500), (-0.055300, -0.008797, 0.052500), (-0.061540, -0.010307, 0.052500), (-0.068388, -0.012982, 0.052500), (-0.066015, -0.019200, 0.052500), (-0.068896, -0.025659, 0.052500), (-0.061032, -0.027369, 0.052500), (-0.055300, -0.030568, 0.052500), (-0.048311, -0.029161, 0.052500), (-0.045475, -0.023868, 0.052500), (-0.049577, -0.019200, 0.061500), (-0.051459, -0.017375, 0.061500), (-0.052145, -0.014703, 0.061500), (-0.055300, -0.015620, 0.061500), (-0.058235, -0.015017, 0.061500), (-0.059802, -0.017061, 0.061500), (-0.060142, -0.019200, 0.061500), (-0.060609, -0.021722, 0.061500), (-0.057428, -0.022232, 0.061500), (-0.055300, -0.024314, 0.061500), (-0.052952, -0.022546, 0.061500), (-0.050652, -0.021408, 0.061500)]
            int[] faceVertexCounts = [12, 12, 4, 4, 4, 4, 4, 4, 4, 4, 4, 4, 4, 4, 4, 4, 4, 4, 4, 4, 4, 4, 4, 4, 4, 4, 4, 4, 4, 4, 4, 4, 4, 4, 4, 4, 4, 4]
            int[] faceVertexIndices = [11, 10, 9, 8, 7, 6, 5, 4, 3, 2, 1, 0, 36, 37, 38, 39, 40, 41, 42, 43, 44, 45, 46, 47, 0, 1, 13, 12, 1, 2, 14, 13, 2, 3, 15, 14, 3, 4, 16, 15, 4, 5, 17, 16, 5, 6, 18, 17, 6, 7, 19, 18, 7, 8, 20, 19, 8, 9, 21, 20, 9, 10, 22, 21, 10, 11, 23, 22, 11, 0, 12, 23, 12, 13, 25, 24, 13, 14, 26, 25, 14, 15, 27, 26, 15, 16, 28, 27, 16, 17, 29, 28, 17, 18, 30, 29, 18, 19, 31, 30, 19, 20, 32, 31, 20, 21, 33, 32, 21, 22, 34, 33, 22, 23, 35, 34, 23, 12, 24, 35, 24, 25, 37, 36, 25, 26, 38, 37, 26, 27, 39, 38, 27, 28, 40, 39, 28, 29, 41, 40, 29, 30, 42, 41, 30, 31, 43, 42, 31, 32, 44, 43, 32, 33, 45, 44, 33, 34, 46, 45, 34, 35, 47, 46, 35, 24, 36, 47]
            rel material:binding = </Asset/Looks/Body>
        }
        def Mesh "Floret3_1" (
            prepend apiSchemas = ["MaterialBindingAPI"]
        ) {
            point3f[] points = [(-0.039517, -0.012600, 0.039750), (-0.039779, -0.010215, 0.039750), (-0.042605, -0.009472, 0.039750), (-0.044800, -0.007405, 0.039750), (-0.046995, -0.009472, 0.039750), (-0.049821, -0.010215, 0.039750), (-0.050083, -0.012600, 0.039750), (-0.048929, -0.014561, 0.039750), (-0.047888, -0.017001, 0.039750), (-0.044800, -0.016099, 0.039750), (-0.041712, -0.017001, 0.039750), (-0.040671, -0.014561, 0.039750), (-0.029549, -0.012600, 0.048750), (-0.034165, -0.007548, 0.048750), (-0.038375, -0.003443, 0.048750), (-0.044800, -0.000394, 0.048750), (-0.050214, -0.004884, 0.048750), (-0.058468, -0.006107, 0.048750), (-0.056007, -0.012600, 0.048750), (-0.057078, -0.018433, 0.048750), (-0.051604, -0.022297, 0.048750), (-0.044800, -0.022165, 0.048750), (-0.036985, -0.023738, 0.048750), (-0.035555, -0.016992, 0.048750), (-0.029058, -0.012600, 0.057750), (-0.035483, -0.008174, 0.057750), (-0.037303, -0.001915, 0.057750), (-0.044800, -0.002197, 0.057750), (-0.051040, -0.003707, 0.057750), (-0.057888, -0.006382, 0.057750), (-0.055515, -0.012600, 0.057750), (-0.058396, -0.019059, 0.057750), (-0.050532, -0.020769, 0.057750), (-0.044800, -0.023968, 0.057750), (-0.037811, -0.022561, 0.057750), (-0.034975, -0.017268, 0.057750), (-0.039077, -0.012600, 0.066750), (-0.040959, -0.010775, 0.066750), (-0.041645, -0.008103, 0.066750), (-0.044800, -0.009020, 0.066750), (-0.047735, -0.008417, 0.066750), (-0.049302, -0.010461, 0.066750), (-0.049642, -0.012600, 0.066750), (-0.050109, -0.015122, 0.066750), (-0.046928, -0.015632, 0.066750), (-0.044800, -0.017714, 0.066750), (-0.042452, -0.015946, 0.066750), (-0.040152, -0.014808, 0.066750)]
            int[] faceVertexCounts = [12, 12, 4, 4, 4, 4, 4, 4, 4, 4, 4, 4, 4, 4, 4, 4, 4, 4, 4, 4, 4, 4, 4, 4, 4, 4, 4, 4, 4, 4, 4, 4, 4, 4, 4, 4, 4, 4]
            int[] faceVertexIndices = [11, 10, 9, 8, 7, 6, 5, 4, 3, 2, 1, 0, 36, 37, 38, 39, 40, 41, 42, 43, 44, 45, 46, 47, 0, 1, 13, 12, 1, 2, 14, 13, 2, 3, 15, 14, 3, 4, 16, 15, 4, 5, 17, 16, 5, 6, 18, 17, 6, 7, 19, 18, 7, 8, 20, 19, 8, 9, 21, 20, 9, 10, 22, 21, 10, 11, 23, 22, 11, 0, 12, 23, 12, 13, 25, 24, 13, 14, 26, 25, 14, 15, 27, 26, 15, 16, 28, 27, 16, 17, 29, 28, 17, 18, 30, 29, 18, 19, 31, 30, 19, 20, 32, 31, 20, 21, 33, 32, 21, 22, 34, 33, 22, 23, 35, 34, 23, 12, 24, 35, 24, 25, 37, 36, 25, 26, 38, 37, 26, 27, 39, 38, 27, 28, 40, 39, 28, 29, 41, 40, 29, 30, 42, 41, 30, 31, 43, 42, 31, 32, 44, 43, 32, 33, 45, 44, 33, 34, 46, 45, 34, 35, 47, 46, 35, 24, 36, 47]
            rel material:binding = </Asset/Looks/Body>
        }
        def Mesh "Floret3_2" (
            prepend apiSchemas = ["MaterialBindingAPI"]
        ) {
            point3f[] points = [(-0.029017, -0.019200, 0.034500), (-0.029279, -0.016815, 0.034500), (-0.032105, -0.016072, 0.034500), (-0.034300, -0.014005, 0.034500), (-0.036495, -0.016072, 0.034500), (-0.039321, -0.016815, 0.034500), (-0.039583, -0.019200, 0.034500), (-0.038429, -0.021161, 0.034500), (-0.037388, -0.023601, 0.034500), (-0.034300, -0.022699, 0.034500), (-0.031212, -0.023601, 0.034500), (-0.030171, -0.021161, 0.034500), (-0.019049, -0.019200, 0.043500), (-0.023665, -0.014148, 0.043500), (-0.027875, -0.010043, 0.043500), (-0.034300, -0.006994, 0.043500), (-0.039714, -0.011484, 0.043500), (-0.047968, -0.012707, 0.043500), (-0.045507, -0.019200, 0.043500), (-0.046578, -0.025033, 0.043500), (-0.041104, -0.028897, 0.043500), (-0.034300, -0.028765, 0.043500), (-0.026485, -0.030338, 0.043500), (-0.025055, -0.023592, 0.043500), (-0.018558, -0.019200, 0.052500), (-0.024983, -0.014774, 0.052500), (-0.026803, -0.008515, 0.052500), (-0.034300, -0.008797, 0.052500), (-0.040540, -0.010307, 0.052500), (-0.047388, -0.012982, 0.052500), (-0.045015, -0.019200, 0.052500), (-0.047896, -0.025659, 0.052500), (-0.040032, -0.027369, 0.052500), (-0.034300, -0.030568, 0.052500), (-0.027311, -0.029161, 0.052500), (-0.024475, -0.023868, 0.052500), (-0.028577, -0.019200, 0.061500), (-0.030459, -0.017375, 0.061500), (-0.031145, -0.014703, 0.061500), (-0.034300, -0.015620, 0.061500), (-0.037235, -0.015017, 0.061500), (-0.038802, -0.017061, 0.061500), (-0.039142, -0.019200, 0.061500), (-0.039609, -0.021722, 0.061500), (-0.036428, -0.022232, 0.061500), (-0.034300, -0.024314, 0.061500), (-0.031952, -0.022546, 0.061500), (-0.029652, -0.021408, 0.061500)]
            int[] faceVertexCounts = [12, 12, 4, 4, 4, 4, 4, 4, 4, 4, 4, 4, 4, 4, 4, 4, 4, 4, 4, 4, 4, 4, 4, 4, 4, 4, 4, 4, 4, 4, 4, 4, 4, 4, 4, 4, 4, 4]
            int[] faceVertexIndices = [11, 10, 9, 8, 7, 6, 5, 4, 3, 2, 1, 0, 36, 37, 38, 39, 40, 41, 42, 43, 44, 45, 46, 47, 0, 1, 13, 12, 1, 2, 14, 13, 2, 3, 15, 14, 3, 4, 16, 15, 4, 5, 17, 16, 5, 6, 18, 17, 6, 7, 19, 18, 7, 8, 20, 19, 8, 9, 21, 20, 9, 10, 22, 21, 10, 11, 23, 22, 11, 0, 12, 23, 12, 13, 25, 24, 13, 14, 26, 25, 14, 15, 27, 26, 15, 16, 28, 27, 16, 17, 29, 28, 17, 18, 30, 29, 18, 19, 31, 30, 19, 20, 32, 31, 20, 21, 33, 32, 21, 22, 34, 33, 22, 23, 35, 34, 23, 12, 24, 35, 24, 25, 37, 36, 25, 26, 38, 37, 26, 27, 39, 38, 27, 28, 40, 39, 28, 29, 41, 40, 29, 30, 42, 41, 30, 31, 43, 42, 31, 32, 44, 43, 32, 33, 45, 44, 33, 34, 46, 45, 34, 35, 47, 46, 35, 24, 36, 47]
            rel material:binding = </Asset/Looks/Body>
        }
        def Mesh "Branch4" (
            prepend apiSchemas = ["MaterialBindingAPI"]
        ) {
            point3f[] points = [(0.055300, -0.019200, -0.004500), (0.054260, -0.014644, -0.004500), (0.051347, -0.010991, -0.004500), (0.047136, -0.008963, -0.004500), (0.042464, -0.008963, -0.004500), (0.038253, -0.010991, -0.004500), (0.035340, -0.014644, -0.004500), (0.034300, -0.019200, -0.004500), (0.035340, -0.023756, -0.004500), (0.038253, -0.027409, -0.004500), (0.042464, -0.029437, -0.004500), (0.047136, -0.029437, -0.004500), (0.051347, -0.027409, -0.004500), (0.054260, -0.023756, -0.004500), (0.059500, -0.019200, 0.046500), (0.058044, -0.012822, 0.046500), (0.053965, -0.007707, 0.046500), (0.048071, -0.004869, 0.046500), (0.041529, -0.004869, 0.046500), (0.035635, -0.007707, 0.046500), (0.031556, -0.012822, 0.046500), (0.030100, -0.019200, 0.046500), (0.031556, -0.025578, 0.046500), (0.035635, -0.030693, 0.046500), (0.041529, -0.033531, 0.046500), (0.048071, -0.033531, 0.046500), (0.053965, -0.030693, 0.046500), (0.058044, -0.025578, 0.046500)]
            int[] faceVertexCounts = [14, 14, 4, 4, 4, 4, 4, 4, 4, 4, 4, 4, 4, 4, 4, 4]
            int[] faceVertexIndices = [13, 12, 11, 10, 9, 8, 7, 6, 5, 4, 3, 2, 1, 0, 14, 15, 16, 17, 18, 19, 20, 21, 22, 23, 24, 25, 26, 27, 0, 1, 15, 14, 1, 2, 16, 15, 2, 3, 17, 16, 3, 4, 18, 17, 4, 5, 19, 18, 5, 6, 20, 19, 6, 7, 21, 20, 7, 8, 22, 21, 8, 9, 23, 22, 9, 10, 24, 23, 10, 11, 25, 24, 11, 12, 26, 25, 12, 13, 27, 26, 13, 0, 14, 27]
            rel material:binding = </Asset/Looks/Stem>
        }
        def Mesh "Floret4_0" (
            prepend apiSchemas = ["MaterialBindingAPI"]
        ) {
            point3f[] points = [(0.039583, -0.019200, 0.034500), (0.039321, -0.016815, 0.034500), (0.036495, -0.016072, 0.034500), (0.034300, -0.014005, 0.034500), (0.032105, -0.016072, 0.034500), (0.029279, -0.016815, 0.034500), (0.029017, -0.019200, 0.034500), (0.030171, -0.021161, 0.034500), (0.031212, -0.023601, 0.034500), (0.034300, -0.022699, 0.034500), (0.037388, -0.023601, 0.034500), (0.038429, -0.021161, 0.034500), (0.049551, -0.019200, 0.043500), (0.044935, -0.014148, 0.043500), (0.040725, -0.010043, 0.043500), (0.034300, -0.006994, 0.043500), (0.028886, -0.011484, 0.043500), (0.020632, -0.012707, 0.043500), (0.023093, -0.019200, 0.043500), (0.022022, -0.025033, 0.043500), (0.027496, -0.028897, 0.043500), (0.034300, -0.028765, 0.043500), (0.042115, -0.030338, 0.043500), (0.043545, -0.023592, 0.043500), (0.050042, -0.019200, 0.052500), (0.043617, -0.014774, 0.052500), (0.041797, -0.008515, 0.052500), (0.034300, -0.008797, 0.052500), (0.028060, -0.010307, 0.052500), (0.021212, -0.012982, 0.052500), (0.023585, -0.019200, 0.052500), (0.020704, -0.025659, 0.052500), (0.028568, -0.027369, 0.052500), (0.034300, -0.030568, 0.052500), (0.041289, -0.029161, 0.052500), (0.044125, -0.023868, 0.052500), (0.040023, -0.019200, 0.061500), (0.038141, -0.017375, 0.061500), (0.037455, -0.014703, 0.061500), (0.034300, -0.015620, 0.061500), (0.031365, -0.015017, 0.061500), (0.029798, -0.017061, 0.061500), (0.029458, -0.019200, 0.061500), (0.028991, -0.021722, 0.061500), (0.032172, -0.022232, 0.061500), (0.034300, -0.024314, 0.061500), (0.036648, -0.022546, 0.061500), (0.038948, -0.021408, 0.061500)]
            int[] faceVertexCounts = [12, 12, 4, 4, 4, 4, 4, 4, 4, 4, 4, 4, 4, 4, 4, 4, 4, 4, 4, 4, 4, 4, 4, 4, 4, 4, 4, 4, 4, 4, 4, 4, 4, 4, 4, 4, 4, 4]
            int[] faceVertexIndices = [11, 10, 9, 8, 7, 6, 5, 4, 3, 2, 1, 0, 36, 37, 38, 39, 40, 41, 42, 43, 44, 45, 46, 47, 0, 1, 13, 12, 1, 2, 14, 13, 2, 3, 15, 14, 3, 4, 16, 15, 4, 5, 17, 16, 5, 6, 18, 17, 6, 7, 19, 18, 7, 8, 20, 19, 8, 9, 21, 20, 9, 10, 22, 21, 10, 11, 23, 22, 11, 0, 12, 23, 12, 13, 25, 24, 13, 14, 26, 25, 14, 15, 27, 26, 15, 16, 28, 27, 16, 17, 29, 28, 17, 18, 30, 29, 18, 19, 31, 30, 19, 20, 32, 31, 20, 21, 33, 32, 21, 22, 34, 33, 22, 23, 35, 34, 23, 12, 24, 35, 24, 25, 37, 36, 25, 26, 38, 37, 26, 27, 39, 38, 27, 28, 40, 39, 28, 29, 41, 40, 29, 30, 42, 41, 30, 31, 43, 42, 31, 32, 44, 43, 32, 33, 45, 44, 33, 34, 46, 45, 34, 35, 47, 46, 35, 24, 36, 47]
            rel material:binding = </Asset/Looks/Body>
        }
        def Mesh "Floret4_1" (
            prepend apiSchemas = ["MaterialBindingAPI"]
        ) {
            point3f[] points = [(0.050083, -0.012600, 0.039750), (0.049821, -0.010215, 0.039750), (0.046995, -0.009472, 0.039750), (0.044800, -0.007405, 0.039750), (0.042605, -0.009472, 0.039750), (0.039779, -0.010215, 0.039750), (0.039517, -0.012600, 0.039750), (0.040671, -0.014561, 0.039750), (0.041712, -0.017001, 0.039750), (0.044800, -0.016099, 0.039750), (0.047888, -0.017001, 0.039750), (0.048929, -0.014561, 0.039750), (0.060051, -0.012600, 0.048750), (0.055435, -0.007548, 0.048750), (0.051225, -0.003443, 0.048750), (0.044800, -0.000394, 0.048750), (0.039386, -0.004884, 0.048750), (0.031132, -0.006107, 0.048750), (0.033593, -0.012600, 0.048750), (0.032522, -0.018433, 0.048750), (0.037996, -0.022297, 0.048750), (0.044800, -0.022165, 0.048750), (0.052615, -0.023738, 0.048750), (0.054045, -0.016992, 0.048750), (0.060542, -0.012600, 0.057750), (0.054117, -0.008174, 0.057750), (0.052297, -0.001915, 0.057750), (0.044800, -0.002197, 0.057750), (0.038560, -0.003707, 0.057750), (0.031712, -0.006382, 0.057750), (0.034085, -0.012600, 0.057750), (0.031204, -0.019059, 0.057750), (0.039068, -0.020769, 0.057750), (0.044800, -0.023968, 0.057750), (0.051789, -0.022561, 0.057750), (0.054625, -0.017268, 0.057750), (0.050523, -0.012600, 0.066750), (0.048641, -0.010775, 0.066750), (0.047955, -0.008103, 0.066750), (0.044800, -0.009020, 0.066750), (0.041865, -0.008417, 0.066750), (0.040298, -0.010461, 0.066750), (0.039958, -0.012600, 0.066750), (0.039491, -0.015122, 0.066750), (0.042672, -0.015632, 0.066750), (0.044800, -0.017714, 0.066750), (0.047148, -0.015946, 0.066750), (0.049448, -0.014808, 0.066750)]
            int[] faceVertexCounts = [12, 12, 4, 4, 4, 4, 4, 4, 4, 4, 4, 4, 4, 4, 4, 4, 4, 4, 4, 4, 4, 4, 4, 4, 4, 4, 4, 4, 4, 4, 4, 4, 4, 4, 4, 4, 4, 4]
            int[] faceVertexIndices = [11, 10, 9, 8, 7, 6, 5, 4, 3, 2, 1, 0, 36, 37, 38, 39, 40, 41, 42, 43, 44, 45, 46, 47, 0, 1, 13, 12, 1, 2, 14, 13, 2, 3, 15, 14, 3, 4, 16, 15, 4, 5, 17, 16, 5, 6, 18, 17, 6, 7, 19, 18, 7, 8, 20, 19, 8, 9, 21, 20, 9, 10, 22, 21, 10, 11, 23, 22, 11, 0, 12, 23, 12, 13, 25, 24, 13, 14, 26, 25, 14, 15, 27, 26, 15, 16, 28, 27, 16, 17, 29, 28, 17, 18, 30, 29, 18, 19, 31, 30, 19, 20, 32, 31, 20, 21, 33, 32, 21, 22, 34, 33, 22, 23, 35, 34, 23, 12, 24, 35, 24, 25, 37, 36, 25, 26, 38, 37, 26, 27, 39, 38, 27, 28, 40, 39, 28, 29, 41, 40, 29, 30, 42, 41, 30, 31, 43, 42, 31, 32, 44, 43, 32, 33, 45, 44, 33, 34, 46, 45, 34, 35, 47, 46, 35, 24, 36, 47]
            rel material:binding = </Asset/Looks/Body>
        }
        def Mesh "Floret4_2" (
            prepend apiSchemas = ["MaterialBindingAPI"]
        ) {
            point3f[] points = [(0.060583, -0.019200, 0.034500), (0.060321, -0.016815, 0.034500), (0.057495, -0.016072, 0.034500), (0.055300, -0.014005, 0.034500), (0.053105, -0.016072, 0.034500), (0.050279, -0.016815, 0.034500), (0.050017, -0.019200, 0.034500), (0.051171, -0.021161, 0.034500), (0.052212, -0.023601, 0.034500), (0.055300, -0.022699, 0.034500), (0.058388, -0.023601, 0.034500), (0.059429, -0.021161, 0.034500), (0.070551, -0.019200, 0.043500), (0.065935, -0.014148, 0.043500), (0.061725, -0.010043, 0.043500), (0.055300, -0.006994, 0.043500), (0.049886, -0.011484, 0.043500), (0.041632, -0.012707, 0.043500), (0.044093, -0.019200, 0.043500), (0.043022, -0.025033, 0.043500), (0.048496, -0.028897, 0.043500), (0.055300, -0.028765, 0.043500), (0.063115, -0.030338, 0.043500), (0.064545, -0.023592, 0.043500), (0.071042, -0.019200, 0.052500), (0.064617, -0.014774, 0.052500), (0.062797, -0.008515, 0.052500), (0.055300, -0.008797, 0.052500), (0.049060, -0.010307, 0.052500), (0.042212, -0.012982, 0.052500), (0.044585, -0.019200, 0.052500), (0.041704, -0.025659, 0.052500), (0.049568, -0.027369, 0.052500), (0.055300, -0.030568, 0.052500), (0.062289, -0.029161, 0.052500), (0.065125, -0.023868, 0.052500), (0.061023, -0.019200, 0.061500), (0.059141, -0.017375, 0.061500), (0.058455, -0.014703, 0.061500), (0.055300, -0.015620, 0.061500), (0.052365, -0.015017, 0.061500), (0.050798, -0.017061, 0.061500), (0.050458, -0.019200, 0.061500), (0.049991, -0.021722, 0.061500), (0.053172, -0.022232, 0.061500), (0.055300, -0.024314, 0.061500), (0.057648, -0.022546, 0.061500), (0.059948, -0.021408, 0.061500)]
            int[] faceVertexCounts = [12, 12, 4, 4, 4, 4, 4, 4, 4, 4, 4, 4, 4, 4, 4, 4, 4, 4, 4, 4, 4, 4, 4, 4, 4, 4, 4, 4, 4, 4, 4, 4, 4, 4, 4, 4, 4, 4]
            int[] faceVertexIndices = [11, 10, 9, 8, 7, 6, 5, 4, 3, 2, 1, 0, 36, 37, 38, 39, 40, 41, 42, 43, 44, 45, 46, 47, 0, 1, 13, 12, 1, 2, 14, 13, 2, 3, 15, 14, 3, 4, 16, 15, 4, 5, 17, 16, 5, 6, 18, 17, 6, 7, 19, 18, 7, 8, 20, 19, 8, 9, 21, 20, 9, 10, 22, 21, 10, 11, 23, 22, 11, 0, 12, 23, 12, 13, 25, 24, 13, 14, 26, 25, 14, 15, 27, 26, 15, 16, 28, 27, 16, 17, 29, 28, 17, 18, 30, 29, 18, 19, 31, 30, 19, 20, 32, 31, 20, 21, 33, 32, 21, 22, 34, 33, 22, 23, 35, 34, 23, 12, 24, 35, 24, 25, 37, 36, 25, 26, 38, 37, 26, 27, 39, 38, 27, 28, 40, 39, 28, 29, 41, 40, 29, 30, 42, 41, 30, 31, 43, 42, 31, 32, 44, 43, 32, 33, 45, 44, 33, 34, 46, 45, 34, 35, 47, 46, 35, 24, 36, 47]
            rel material:binding = </Asset/Looks/Body>
        }
    }
    def Scope "Looks" {
        def Material "Body" {
            token outputs:surface.connect = </Asset/Looks/Body/Preview.outputs:surface>
            def Shader "Preview" {
                uniform token info:id = "UsdPreviewSurface"
                color3f inputs:diffuseColor = (0.20784, 0.43922, 0.23529)
                float inputs:roughness = 0.8200
                float inputs:metallic = 0.0000
                token outputs:surface
            }
        }
        def Material "Front" {
            token outputs:surface.connect = </Asset/Looks/Front/Preview.outputs:surface>
            def Shader "Preview" {
                uniform token info:id = "UsdPreviewSurface"
                color3f inputs:diffuseColor = (0.45882, 0.61569, 0.29020)
                float inputs:roughness = 0.8000
                float inputs:metallic = 0.0000
                token outputs:surface
            }
        }
        def Material "Metal" {
            token outputs:surface.connect = </Asset/Looks/Metal/Preview.outputs:surface>
            def Shader "Preview" {
                uniform token info:id = "UsdPreviewSurface"
                color3f inputs:diffuseColor = (0.48000, 0.52000, 0.55000)
                float inputs:roughness = 0.2800
                float inputs:metallic = 0.7000
                token outputs:surface
            }
        }
        def Material "Stem" {
            token outputs:surface.connect = </Asset/Looks/Stem/Preview.outputs:surface>
            def Shader "Preview" {
                uniform token info:id = "UsdPreviewSurface"
                color3f inputs:diffuseColor = (0.12000, 0.23000, 0.08000)
                float inputs:roughness = 0.7200
                float inputs:metallic = 0.0000
                token outputs:surface
            }
        }
        def Material "Glass" {
            token outputs:surface.connect = </Asset/Looks/Glass/Preview.outputs:surface>
            def Shader "Preview" {
                uniform token info:id = "UsdPreviewSurface"
                color3f inputs:diffuseColor = (0.55000, 0.68000, 0.58000)
                float inputs:roughness = 0.1600
                float inputs:metallic = 0.0000
                float inputs:opacity = 0.7200
                token outputs:surface
            }
        }
        def Material "Paper" {
            token outputs:surface.connect = </Asset/Looks/Paper/Preview.outputs:surface>
            def Shader "Preview" {
                uniform token info:id = "UsdPreviewSurface"
                color3f inputs:diffuseColor = (0.82000, 0.79000, 0.69000)
                float inputs:roughness = 0.7800
                float inputs:metallic = 0.0000
                token outputs:surface
            }
        }
        def Material "Clear" {
            token outputs:surface.connect = </Asset/Looks/Clear/Preview.outputs:surface>
            def Shader "Preview" {
                uniform token info:id = "UsdPreviewSurface"
                color3f inputs:diffuseColor = (0.74000, 0.86000, 0.91000)
                float inputs:roughness = 0.1200
                float inputs:metallic = 0.0000
                float inputs:opacity = 0.3800
                token outputs:surface
            }
        }
        def Material "Dark" {
            token outputs:surface.connect = </Asset/Looks/Dark/Preview.outputs:surface>
            def Shader "Preview" {
                uniform token info:id = "UsdPreviewSurface"
                color3f inputs:diffuseColor = (0.05500, 0.06500, 0.07500)
                float inputs:roughness = 0.3800
                float inputs:metallic = 0.0500
                token outputs:surface
            }
        }
        def Material "Accent" {
            token outputs:surface.connect = </Asset/Looks/Accent/Preview.outputs:surface>
            def Shader "Preview" {
                uniform token info:id = "UsdPreviewSurface"
                color3f inputs:diffuseColor = (0.45882, 0.61569, 0.29020)
                float inputs:roughness = 0.8000
                float inputs:metallic = 0.0000
                token outputs:surface
            }
        }
        def Material "Print" {
            token outputs:surface.connect = </Asset/Looks/Print/Preview.outputs:surface>
            def Shader "Preview" {
                uniform token info:id = "UsdPreviewSurface"
                color3f inputs:diffuseColor = (0.45882, 0.61569, 0.29020)
                float inputs:roughness = 0.8000
                float inputs:metallic = 0.0000
                token outputs:surface
            }
        }
    }
}
