#usda 1.0
(
    defaultPrim = "Asset"
    metersPerUnit = 1
    upAxis = "Z"
)
def Xform "Asset" (
    kind = "component"
) {
    def Xform "Geometry" {
        def Mesh "Root0" (
            prepend apiSchemas = ["MaterialBindingAPI"]
        ) {
            point3f[] points = [(-0.021000, 0.000000, -0.110000), (-0.021754, 0.004759, -0.110000), (-0.023941, 0.009052, -0.110000), (-0.027348, 0.012459, -0.110000), (-0.031641, 0.014646, -0.110000), (-0.036400, 0.015400, -0.110000), (-0.041159, 0.014646, -0.110000), (-0.045452, 0.012459, -0.110000), (-0.048859, 0.009052, -0.110000), (-0.051046, 0.004759, -0.110000), (-0.051800, 0.000000, -0.110000), (-0.051046, -0.004759, -0.110000), (-0.048859, -0.009052, -0.110000), (-0.045452, -0.012459, -0.110000), (-0.041159, -0.014646, -0.110000), (-0.036400, -0.015400, -0.110000), (-0.031641, -0.014646, -0.110000), (-0.027348, -0.012459, -0.110000), (-0.023941, -0.009052, -0.110000), (-0.021754, -0.004759, -0.110000), (-0.032900, 0.000000, 0.048400), (-0.033071, 0.001082, 0.048400), (-0.033568, 0.002057, 0.048400), (-0.034343, 0.002832, 0.048400), (-0.035318, 0.003329, 0.048400), (-0.036400, 0.003500, 0.048400), (-0.037482, 0.003329, 0.048400), (-0.038457, 0.002832, 0.048400), (-0.039232, 0.002057, 0.048400), (-0.039729, 0.001082, 0.048400), (-0.039900, 0.000000, 0.048400), (-0.039729, -0.001082, 0.048400), (-0.039232, -0.002057, 0.048400), (-0.038457, -0.002832, 0.048400), (-0.037482, -0.003329, 0.048400), (-0.036400, -0.003500, 0.048400), (-0.035318, -0.003329, 0.048400), (-0.034343, -0.002832, 0.048400), (-0.033568, -0.002057, 0.048400), (-0.033071, -0.001082, 0.048400)]
            int[] faceVertexCounts = [20, 20, 4, 4, 4, 4, 4, 4, 4, 4, 4, 4, 4, 4, 4, 4, 4, 4, 4, 4, 4, 4]
            int[] faceVertexIndices = [19, 18, 17, 16, 15, 14, 13, 12, 11, 10, 9, 8, 7, 6, 5, 4, 3, 2, 1, 0, 20, 21, 22, 23, 24, 25, 26, 27, 28, 29, 30, 31, 32, 33, 34, 35, 36, 37, 38, 39, 0, 1, 21, 20, 1, 2, 22, 21, 2, 3, 23, 22, 3, 4, 24, 23, 4, 5, 25, 24, 5, 6, 26, 25, 6, 7, 27, 26, 7, 8, 28, 27, 8, 9, 29, 28, 9, 10, 30, 29, 10, 11, 31, 30, 11, 12, 32, 31, 12, 13, 33, 32, 13, 14, 34, 33, 14, 15, 35, 34, 15, 16, 36, 35, 16, 17, 37, 36, 17, 18, 38, 37, 18, 19, 39, 38, 19, 0, 20, 39]
            rel material:binding = </Asset/Looks/Body>
        }
        def Mesh "Leaf0" (
            prepend apiSchemas = ["MaterialBindingAPI"]
        ) {
            point3f[] points = [(-0.05040, -0.00880, 0.04180), (-0.02240, -0.00880, 0.04180), (-0.05040, -0.00880, 0.10780), (-0.05040, 0.00880, 0.04180), (-0.02240, 0.00880, 0.04180), (-0.05040, 0.00880, 0.10780)]
            int[] faceVertexCounts = [3, 3, 4, 4, 4]
            int[] faceVertexIndices = [0, 1, 2, 3, 5, 4, 0, 3, 4, 1, 1, 4, 5, 2, 2, 5, 3, 0]
            rel material:binding = </Asset/Looks/Stem>
        }
        def Mesh "Root1" (
            prepend apiSchemas = ["MaterialBindingAPI"]
        ) {
            point3f[] points = [(0.015400, 0.000000, -0.110000), (0.014646, 0.004759, -0.110000), (0.012459, 0.009052, -0.110000), (0.009052, 0.012459, -0.110000), (0.004759, 0.014646, -0.110000), (0.000000, 0.015400, -0.110000), (-0.004759, 0.014646, -0.110000), (-0.009052, 0.012459, -0.110000), (-0.012459, 0.009052, -0.110000), (-0.014646, 0.004759, -0.110000), (-0.015400, 0.000000, -0.110000), (-0.014646, -0.004759, -0.110000), (-0.012459, -0.009052, -0.110000), (-0.009052, -0.012459, -0.110000), (-0.004759, -0.014646, -0.110000), (-0.000000, -0.015400, -0.110000), (0.004759, -0.014646, -0.110000), (0.009052, -0.012459, -0.110000), (0.012459, -0.009052, -0.110000), (0.014646, -0.004759, -0.110000), (0.003500, 0.000000, 0.048400), (0.003329, 0.001082, 0.048400), (0.002832, 0.002057, 0.048400), (0.002057, 0.002832, 0.048400), (0.001082, 0.003329, 0.048400), (0.000000, 0.003500, 0.048400), (-0.001082, 0.003329, 0.048400), (-0.002057, 0.002832, 0.048400), (-0.002832, 0.002057, 0.048400), (-0.003329, 0.001082, 0.048400), (-0.003500, 0.000000, 0.048400), (-0.003329, -0.001082, 0.048400), (-0.002832, -0.002057, 0.048400), (-0.002057, -0.002832, 0.048400), (-0.001082, -0.003329, 0.048400), (-0.000000, -0.003500, 0.048400), (0.001082, -0.003329, 0.048400), (0.002057, -0.002832, 0.048400), (0.002832, -0.002057, 0.048400), (0.003329, -0.001082, 0.048400)]
            int[] faceVertexCounts = [20, 20, 4, 4, 4, 4, 4, 4, 4, 4, 4, 4, 4, 4, 4, 4, 4, 4, 4, 4, 4, 4]
            int[] faceVertexIndices = [19, 18, 17, 16, 15, 14, 13, 12, 11, 10, 9, 8, 7, 6, 5, 4, 3, 2, 1, 0, 20, 21, 22, 23, 24, 25, 26, 27, 28, 29, 30, 31, 32, 33, 34, 35, 36, 37, 38, 39, 0, 1, 21, 20, 1, 2, 22, 21, 2, 3, 23, 22, 3, 4, 24, 23, 4, 5, 25, 24, 5, 6, 26, 25, 6, 7, 27, 26, 7, 8, 28, 27, 8, 9, 29, 28, 9, 10, 30, 29, 10, 11, 31, 30, 11, 12, 32, 31, 12, 13, 33, 32, 13, 14, 34, 33, 14, 15, 35, 34, 15, 16, 36, 35, 16, 17, 37, 36, 17, 18, 38, 37, 18, 19, 39, 38, 19, 0, 20, 39]
            rel material:binding = </Asset/Looks/Body>
        }
        def Mesh "Leaf1" (
            prepend apiSchemas = ["MaterialBindingAPI"]
        ) {
            point3f[] points = [(-0.01400, -0.00880, 0.04180), (0.01400, -0.00880, 0.04180), (-0.01400, -0.00880, 0.10780), (-0.01400, 0.00880, 0.04180), (0.01400, 0.00880, 0.04180), (-0.01400, 0.00880, 0.10780)]
            int[] faceVertexCounts = [3, 3, 4, 4, 4]
            int[] faceVertexIndices = [0, 1, 2, 3, 5, 4, 0, 3, 4, 1, 1, 4, 5, 2, 2, 5, 3, 0]
            rel material:binding = </Asset/Looks/Stem>
        }
        def Mesh "Root2" (
            prepend apiSchemas = ["MaterialBindingAPI"]
        ) {
            point3f[] points = [(0.051800, 0.000000, -0.110000), (0.051046, 0.004759, -0.110000), (0.048859, 0.009052, -0.110000), (0.045452, 0.012459, -0.110000), (0.041159, 0.014646, -0.110000), (0.036400, 0.015400, -0.110000), (0.031641, 0.014646, -0.110000), (0.027348, 0.012459, -0.110000), (0.023941, 0.009052, -0.110000), (0.021754, 0.004759, -0.110000), (0.021000, 0.000000, -0.110000), (0.021754, -0.004759, -0.110000), (0.023941, -0.009052, -0.110000), (0.027348, -0.012459, -0.110000), (0.031641, -0.014646, -0.110000), (0.036400, -0.015400, -0.110000), (0.041159, -0.014646, -0.110000), (0.045452, -0.012459, -0.110000), (0.048859, -0.009052, -0.110000), (0.051046, -0.004759, -0.110000), (0.039900, 0.000000, 0.048400), (0.039729, 0.001082, 0.048400), (0.039232, 0.002057, 0.048400), (0.038457, 0.002832, 0.048400), (0.037482, 0.003329, 0.048400), (0.036400, 0.003500, 0.048400), (0.035318, 0.003329, 0.048400), (0.034343, 0.002832, 0.048400), (0.033568, 0.002057, 0.048400), (0.033071, 0.001082, 0.048400), (0.032900, 0.000000, 0.048400), (0.033071, -0.001082, 0.048400), (0.033568, -0.002057, 0.048400), (0.034343, -0.002832, 0.048400), (0.035318, -0.003329, 0.048400), (0.036400, -0.003500, 0.048400), (0.037482, -0.003329, 0.048400), (0.038457, -0.002832, 0.048400), (0.039232, -0.002057, 0.048400), (0.039729, -0.001082, 0.048400)]
            int[] faceVertexCounts = [20, 20, 4, 4, 4, 4, 4, 4, 4, 4, 4, 4, 4, 4, 4, 4, 4, 4, 4, 4, 4, 4]
            int[] faceVertexIndices = [19, 18, 17, 16, 15, 14, 13, 12, 11, 10, 9, 8, 7, 6, 5, 4, 3, 2, 1, 0, 20, 21, 22, 23, 24, 25, 26, 27, 28, 29, 30, 31, 32, 33, 34, 35, 36, 37, 38, 39, 0, 1, 21, 20, 1, 2, 22, 21, 2, 3, 23, 22, 3, 4, 24, 23, 4, 5, 25, 24, 5, 6, 26, 25, 6, 7, 27, 26, 7, 8, 28, 27, 8, 9, 29, 28, 9, 10, 30, 29, 10, 11, 31, 30, 11, 12, 32, 31, 12, 13, 33, 32, 13, 14, 34, 33, 14, 15, 35, 34, 15, 16, 36, 35, 16, 17, 37, 36, 17, 18, 38, 37, 18, 19, 39, 38, 19, 0, 20, 39]
            rel material:binding = </Asset/Looks/Body>
        }
        def Mesh "Leaf2" (
            prepend apiSchemas = ["MaterialBindingAPI"]
        ) {
            point3f[] points = [(0.02240, -0.00880, 0.04180), (0.05040, -0.00880, 0.04180), (0.02240, -0.00880, 0.10780), (0.02240, 0.00880, 0.04180), (0.05040, 0.00880, 0.04180), (0.02240, 0.00880, 0.10780)]
            int[] faceVertexCounts = [3, 3, 4, 4, 4]
            int[] faceVertexIndices = [0, 1, 2, 3, 5, 4, 0, 3, 4, 1, 1, 4, 5, 2, 2, 5, 3, 0]
            rel material:binding = </Asset/Looks/Stem>
        }
        def Xform "BindingBand" {
            double3 xformOp:translate = (0.00000, 0.00000, 0.03740)
            double3 xformOp:scale = (0.05600, 0.01920, 0.00605)
            uniform token[] xformOpOrder = ["xformOp:translate", "xformOp:scale"]
            def Cube "Shape" (
                prepend apiSchemas = ["MaterialBindingAPI"]
            ) {
                double size = 2.0
                rel material:binding = </Asset/Looks/Accent>
            }
        }
    }
    def Scope "Looks" {
        def Material "Body" {
            token outputs:surface.connect = </Asset/Looks/Body/Preview.outputs:surface>
            def Shader "Preview" {
                uniform token info:id = "UsdPreviewSurface"
                color3f inputs:diffuseColor = (0.88235, 0.44314, 0.14510)
                float inputs:roughness = 0.8200
                float inputs:metallic = 0.0000
                token outputs:surface
            }
        }
        def Material "Front" {
            token outputs:surface.connect = </Asset/Looks/Front/Preview.outputs:surface>
            def Shader "Preview" {
                uniform token info:id = "UsdPreviewSurface"
                color3f inputs:diffuseColor = (0.24706, 0.49412, 0.23922)
                float inputs:roughness = 0.8000
                float inputs:metallic = 0.0000
                token outputs:surface
            }
        }
        def Material "Metal" {
            token outputs:surface.connect = </Asset/Looks/Metal/Preview.outputs:surface>
            def Shader "Preview" {
                uniform token info:id = "UsdPreviewSurface"
                color3f inputs:diffuseColor = (0.48000, 0.52000, 0.55000)
                float inputs:roughness = 0.2800
                float inputs:metallic = 0.7000
                token outputs:surface
            }
        }
        def Material "Stem" {
            token outputs:surface.connect = </Asset/Looks/Stem/Preview.outputs:surface>
            def Shader "Preview" {
                uniform token info:id = "UsdPreviewSurface"
                color3f inputs:diffuseColor = (0.12000, 0.23000, 0.08000)
                float inputs:roughness = 0.7200
                float inputs:metallic = 0.0000
                token outputs:surface
            }
        }
        def Material "Glass" {
            token outputs:surface.connect = </Asset/Looks/Glass/Preview.outputs:surface>
            def Shader "Preview" {
                uniform token info:id = "UsdPreviewSurface"
                color3f inputs:diffuseColor = (0.55000, 0.68000, 0.58000)
                float inputs:roughness = 0.1600
                float inputs:metallic = 0.0000
                float inputs:opacity = 0.7200
                token outputs:surface
            }
        }
        def Material "Paper" {
            token outputs:surface.connect = </Asset/Looks/Paper/Preview.outputs:surface>
            def Shader "Preview" {
                uniform token info:id = "UsdPreviewSurface"
                color3f inputs:diffuseColor = (0.82000, 0.79000, 0.69000)
                float inputs:roughness = 0.7800
                float inputs:metallic = 0.0000
                token outputs:surface
            }
        }
        def Material "Clear" {
            token outputs:surface.connect = </Asset/Looks/Clear/Preview.outputs:surface>
            def Shader "Preview" {
                uniform token info:id = "UsdPreviewSurface"
                color3f inputs:diffuseColor = (0.74000, 0.86000, 0.91000)
                float inputs:roughness = 0.1200
                float inputs:metallic = 0.0000
                float inputs:opacity = 0.3800
                token outputs:surface
            }
        }
        def Material "Dark" {
            token outputs:surface.connect = </Asset/Looks/Dark/Preview.outputs:surface>
            def Shader "Preview" {
                uniform token info:id = "UsdPreviewSurface"
                color3f inputs:diffuseColor = (0.05500, 0.06500, 0.07500)
                float inputs:roughness = 0.3800
                float inputs:metallic = 0.0500
                token outputs:surface
            }
        }
        def Material "Accent" {
            token outputs:surface.connect = </Asset/Looks/Accent/Preview.outputs:surface>
            def Shader "Preview" {
                uniform token info:id = "UsdPreviewSurface"
                color3f inputs:diffuseColor = (0.24706, 0.49412, 0.23922)
                float inputs:roughness = 0.8000
                float inputs:metallic = 0.0000
                token outputs:surface
            }
        }
        def Material "Print" {
            token outputs:surface.connect = </Asset/Looks/Print/Preview.outputs:surface>
            def Shader "Preview" {
                uniform token info:id = "UsdPreviewSurface"
                color3f inputs:diffuseColor = (0.24706, 0.49412, 0.23922)
                float inputs:roughness = 0.8000
                float inputs:metallic = 0.0000
                token outputs:surface
            }
        }
    }
}
