#usda 1.0
(
    defaultPrim = "Asset"
    metersPerUnit = 1
    upAxis = "Z"
)
def Xform "Asset" (
    kind = "component"
) {
    def Xform "Geometry" {
        def Mesh "OvalTub" (
            prepend apiSchemas = ["MaterialBindingAPI"]
        ) {
            point3f[] points = [(0.062400, 0.000000, -0.072000), (0.061632, 0.008260, -0.072000), (0.059346, 0.016316, -0.072000), (0.055599, 0.023971, -0.072000), (0.050483, 0.031035, -0.072000), (0.044123, 0.037335, -0.072000), (0.036678, 0.042716, -0.072000), (0.028329, 0.047045, -0.072000), (0.019283, 0.050216, -0.072000), (0.009762, 0.052150, -0.072000), (0.000000, 0.052800, -0.072000), (-0.009762, 0.052150, -0.072000), (-0.019283, 0.050216, -0.072000), (-0.028329, 0.047045, -0.072000), (-0.036678, 0.042716, -0.072000), (-0.044123, 0.037335, -0.072000), (-0.050483, 0.031035, -0.072000), (-0.055599, 0.023971, -0.072000), (-0.059346, 0.016316, -0.072000), (-0.061632, 0.008260, -0.072000), (-0.062400, 0.000000, -0.072000), (-0.061632, -0.008260, -0.072000), (-0.059346, -0.016316, -0.072000), (-0.055599, -0.023971, -0.072000), (-0.050483, -0.031035, -0.072000), (-0.044123, -0.037335, -0.072000), (-0.036678, -0.042716, -0.072000), (-0.028329, -0.047045, -0.072000), (-0.019283, -0.050216, -0.072000), (-0.009762, -0.052150, -0.072000), (-0.000000, -0.052800, -0.072000), (0.009762, -0.052150, -0.072000), (0.019283, -0.050216, -0.072000), (0.028329, -0.047045, -0.072000), (0.036678, -0.042716, -0.072000), (0.044123, -0.037335, -0.072000), (0.050483, -0.031035, -0.072000), (0.055599, -0.023971, -0.072000), (0.059346, -0.016316, -0.072000), (0.061632, -0.008260, -0.072000), (0.062400, 0.000000, 0.051000), (0.061632, 0.008260, 0.051000), (0.059346, 0.016316, 0.051000), (0.055599, 0.023971, 0.051000), (0.050483, 0.031035, 0.051000), (0.044123, 0.037335, 0.051000), (0.036678, 0.042716, 0.051000), (0.028329, 0.047045, 0.051000), (0.019283, 0.050216, 0.051000), (0.009762, 0.052150, 0.051000), (0.000000, 0.052800, 0.051000), (-0.009762, 0.052150, 0.051000), (-0.019283, 0.050216, 0.051000), (-0.028329, 0.047045, 0.051000), (-0.036678, 0.042716, 0.051000), (-0.044123, 0.037335, 0.051000), (-0.050483, 0.031035, 0.051000), (-0.055599, 0.023971, 0.051000), (-0.059346, 0.016316, 0.051000), (-0.061632, 0.008260, 0.051000), (-0.062400, 0.000000, 0.051000), (-0.061632, -0.008260, 0.051000), (-0.059346, -0.016316, 0.051000), (-0.055599, -0.023971, 0.051000), (-0.050483, -0.031035, 0.051000), (-0.044123, -0.037335, 0.051000), (-0.036678, -0.042716, 0.051000), (-0.028329, -0.047045, 0.051000), (-0.019283, -0.050216, 0.051000), (-0.009762, -0.052150, 0.051000), (-0.000000, -0.052800, 0.051000), (0.009762, -0.052150, 0.051000), (0.019283, -0.050216, 0.051000), (0.028329, -0.047045, 0.051000), (0.036678, -0.042716, 0.051000), (0.044123, -0.037335, 0.051000), (0.050483, -0.031035, 0.051000), (0.055599, -0.023971, 0.051000), (0.059346, -0.016316, 0.051000), (0.061632, -0.008260, 0.051000)]
            int[] faceVertexCounts = [40, 40, 4, 4, 4, 4, 4, 4, 4, 4, 4, 4, 4, 4, 4, 4, 4, 4, 4, 4, 4, 4, 4, 4, 4, 4, 4, 4, 4, 4, 4, 4, 4, 4, 4, 4, 4, 4, 4, 4, 4, 4]
            int[] faceVertexIndices = [39, 38, 37, 36, 35, 34, 33, 32, 31, 30, 29, 28, 27, 26, 25, 24, 23, 22, 21, 20, 19, 18, 17, 16, 15, 14, 13, 12, 11, 10, 9, 8, 7, 6, 5, 4, 3, 2, 1, 0, 40, 41, 42, 43, 44, 45, 46, 47, 48, 49, 50, 51, 52, 53, 54, 55, 56, 57, 58, 59, 60, 61, 62, 63, 64, 65, 66, 67, 68, 69, 70, 71, 72, 73, 74, 75, 76, 77, 78, 79, 0, 1, 41, 40, 1, 2, 42, 41, 2, 3, 43, 42, 3, 4, 44, 43, 4, 5, 45, 44, 5, 6, 46, 45, 6, 7, 47, 46, 7, 8, 48, 47, 8, 9, 49, 48, 9, 10, 50, 49, 10, 11, 51, 50, 11, 12, 52, 51, 12, 13, 53, 52, 13, 14, 54, 53, 14, 15, 55, 54, 15, 16, 56, 55, 16, 17, 57, 56, 17, 18, 58, 57, 18, 19, 59, 58, 19, 20, 60, 59, 20, 21, 61, 60, 21, 22, 62, 61, 22, 23, 63, 62, 23, 24, 64, 63, 24, 25, 65, 64, 25, 26, 66, 65, 26, 27, 67, 66, 27, 28, 68, 67, 28, 29, 69, 68, 29, 30, 70, 69, 30, 31, 71, 70, 31, 32, 72, 71, 32, 33, 73, 72, 33, 34, 74, 73, 34, 35, 75, 74, 35, 36, 76, 75, 36, 37, 77, 76, 37, 38, 78, 77, 38, 39, 79, 78, 39, 0, 40, 79]
            rel material:binding = </Asset/Looks/Body>
        }
        def Mesh "TubFoot" (
            prepend apiSchemas = ["MaterialBindingAPI"]
        ) {
            point3f[] points = [(0.053300, 0.000000, -0.075000), (0.052644, 0.007055, -0.075000), (0.050691, 0.013937, -0.075000), (0.047491, 0.020475, -0.075000), (0.043121, 0.026509, -0.075000), (0.037689, 0.031891, -0.075000), (0.031329, 0.036487, -0.075000), (0.024198, 0.040184, -0.075000), (0.016471, 0.042893, -0.075000), (0.008338, 0.044545, -0.075000), (0.000000, 0.045100, -0.075000), (-0.008338, 0.044545, -0.075000), (-0.016471, 0.042893, -0.075000), (-0.024198, 0.040184, -0.075000), (-0.031329, 0.036487, -0.075000), (-0.037689, 0.031891, -0.075000), (-0.043121, 0.026509, -0.075000), (-0.047491, 0.020475, -0.075000), (-0.050691, 0.013937, -0.075000), (-0.052644, 0.007055, -0.075000), (-0.053300, 0.000000, -0.075000), (-0.052644, -0.007055, -0.075000), (-0.050691, -0.013937, -0.075000), (-0.047491, -0.020475, -0.075000), (-0.043121, -0.026509, -0.075000), (-0.037689, -0.031891, -0.075000), (-0.031329, -0.036487, -0.075000), (-0.024198, -0.040184, -0.075000), (-0.016471, -0.042893, -0.075000), (-0.008338, -0.044545, -0.075000), (-0.000000, -0.045100, -0.075000), (0.008338, -0.044545, -0.075000), (0.016471, -0.042893, -0.075000), (0.024198, -0.040184, -0.075000), (0.031329, -0.036487, -0.075000), (0.037689, -0.031891, -0.075000), (0.043121, -0.026509, -0.075000), (0.047491, -0.020475, -0.075000), (0.050691, -0.013937, -0.075000), (0.052644, -0.007055, -0.075000), (0.053300, 0.000000, -0.067500), (0.052644, 0.007055, -0.067500), (0.050691, 0.013937, -0.067500), (0.047491, 0.020475, -0.067500), (0.043121, 0.026509, -0.067500), (0.037689, 0.031891, -0.067500), (0.031329, 0.036487, -0.067500), (0.024198, 0.040184, -0.067500), (0.016471, 0.042893, -0.067500), (0.008338, 0.044545, -0.067500), (0.000000, 0.045100, -0.067500), (-0.008338, 0.044545, -0.067500), (-0.016471, 0.042893, -0.067500), (-0.024198, 0.040184, -0.067500), (-0.031329, 0.036487, -0.067500), (-0.037689, 0.031891, -0.067500), (-0.043121, 0.026509, -0.067500), (-0.047491, 0.020475, -0.067500), (-0.050691, 0.013937, -0.067500), (-0.052644, 0.007055, -0.067500), (-0.053300, 0.000000, -0.067500), (-0.052644, -0.007055, -0.067500), (-0.050691, -0.013937, -0.067500), (-0.047491, -0.020475, -0.067500), (-0.043121, -0.026509, -0.067500), (-0.037689, -0.031891, -0.067500), (-0.031329, -0.036487, -0.067500), (-0.024198, -0.040184, -0.067500), (-0.016471, -0.042893, -0.067500), (-0.008338, -0.044545, -0.067500), (-0.000000, -0.045100, -0.067500), (0.008338, -0.044545, -0.067500), (0.016471, -0.042893, -0.067500), (0.024198, -0.040184, -0.067500), (0.031329, -0.036487, -0.067500), (0.037689, -0.031891, -0.067500), (0.043121, -0.026509, -0.067500), (0.047491, -0.020475, -0.067500), (0.050691, -0.013937, -0.067500), (0.052644, -0.007055, -0.067500)]
            int[] faceVertexCounts = [40, 40, 4, 4, 4, 4, 4, 4, 4, 4, 4, 4, 4, 4, 4, 4, 4, 4, 4, 4, 4, 4, 4, 4, 4, 4, 4, 4, 4, 4, 4, 4, 4, 4, 4, 4, 4, 4, 4, 4, 4, 4]
            int[] faceVertexIndices = [39, 38, 37, 36, 35, 34, 33, 32, 31, 30, 29, 28, 27, 26, 25, 24, 23, 22, 21, 20, 19, 18, 17, 16, 15, 14, 13, 12, 11, 10, 9, 8, 7, 6, 5, 4, 3, 2, 1, 0, 40, 41, 42, 43, 44, 45, 46, 47, 48, 49, 50, 51, 52, 53, 54, 55, 56, 57, 58, 59, 60, 61, 62, 63, 64, 65, 66, 67, 68, 69, 70, 71, 72, 73, 74, 75, 76, 77, 78, 79, 0, 1, 41, 40, 1, 2, 42, 41, 2, 3, 43, 42, 3, 4, 44, 43, 4, 5, 45, 44, 5, 6, 46, 45, 6, 7, 47, 46, 7, 8, 48, 47, 8, 9, 49, 48, 9, 10, 50, 49, 10, 11, 51, 50, 11, 12, 52, 51, 12, 13, 53, 52, 13, 14, 54, 53, 14, 15, 55, 54, 15, 16, 56, 55, 16, 17, 57, 56, 17, 18, 58, 57, 18, 19, 59, 58, 19, 20, 60, 59, 20, 21, 61, 60, 21, 22, 62, 61, 22, 23, 63, 62, 23, 24, 64, 63, 24, 25, 65, 64, 25, 26, 66, 65, 26, 27, 67, 66, 27, 28, 68, 67, 28, 29, 69, 68, 29, 30, 70, 69, 30, 31, 71, 70, 31, 32, 72, 71, 32, 33, 73, 72, 33, 34, 74, 73, 34, 35, 75, 74, 35, 36, 76, 75, 36, 37, 77, 76, 37, 38, 78, 77, 38, 39, 79, 78, 39, 0, 40, 79]
            rel material:binding = </Asset/Looks/Body>
        }
        def Mesh "SnapLid" (
            prepend apiSchemas = ["MaterialBindingAPI"]
        ) {
            point3f[] points = [(0.065000, 0.000000, 0.054000), (0.064200, 0.008604, 0.054000), (0.061819, 0.016996, 0.054000), (0.057915, 0.024969, 0.054000), (0.052586, 0.032328, 0.054000), (0.045962, 0.038891, 0.054000), (0.038206, 0.044496, 0.054000), (0.029509, 0.049005, 0.054000), (0.020086, 0.052308, 0.054000), (0.010168, 0.054323, 0.054000), (0.000000, 0.055000, 0.054000), (-0.010168, 0.054323, 0.054000), (-0.020086, 0.052308, 0.054000), (-0.029509, 0.049005, 0.054000), (-0.038206, 0.044496, 0.054000), (-0.045962, 0.038891, 0.054000), (-0.052586, 0.032328, 0.054000), (-0.057915, 0.024969, 0.054000), (-0.061819, 0.016996, 0.054000), (-0.064200, 0.008604, 0.054000), (-0.065000, 0.000000, 0.054000), (-0.064200, -0.008604, 0.054000), (-0.061819, -0.016996, 0.054000), (-0.057915, -0.024969, 0.054000), (-0.052586, -0.032328, 0.054000), (-0.045962, -0.038891, 0.054000), (-0.038206, -0.044496, 0.054000), (-0.029509, -0.049005, 0.054000), (-0.020086, -0.052308, 0.054000), (-0.010168, -0.054323, 0.054000), (-0.000000, -0.055000, 0.054000), (0.010168, -0.054323, 0.054000), (0.020086, -0.052308, 0.054000), (0.029509, -0.049005, 0.054000), (0.038206, -0.044496, 0.054000), (0.045962, -0.038891, 0.054000), (0.052586, -0.032328, 0.054000), (0.057915, -0.024969, 0.054000), (0.061819, -0.016996, 0.054000), (0.064200, -0.008604, 0.054000), (0.065000, 0.000000, 0.075000), (0.064200, 0.008604, 0.075000), (0.061819, 0.016996, 0.075000), (0.057915, 0.024969, 0.075000), (0.052586, 0.032328, 0.075000), (0.045962, 0.038891, 0.075000), (0.038206, 0.044496, 0.075000), (0.029509, 0.049005, 0.075000), (0.020086, 0.052308, 0.075000), (0.010168, 0.054323, 0.075000), (0.000000, 0.055000, 0.075000), (-0.010168, 0.054323, 0.075000), (-0.020086, 0.052308, 0.075000), (-0.029509, 0.049005, 0.075000), (-0.038206, 0.044496, 0.075000), (-0.045962, 0.038891, 0.075000), (-0.052586, 0.032328, 0.075000), (-0.057915, 0.024969, 0.075000), (-0.061819, 0.016996, 0.075000), (-0.064200, 0.008604, 0.075000), (-0.065000, 0.000000, 0.075000), (-0.064200, -0.008604, 0.075000), (-0.061819, -0.016996, 0.075000), (-0.057915, -0.024969, 0.075000), (-0.052586, -0.032328, 0.075000), (-0.045962, -0.038891, 0.075000), (-0.038206, -0.044496, 0.075000), (-0.029509, -0.049005, 0.075000), (-0.020086, -0.052308, 0.075000), (-0.010168, -0.054323, 0.075000), (-0.000000, -0.055000, 0.075000), (0.010168, -0.054323, 0.075000), (0.020086, -0.052308, 0.075000), (0.029509, -0.049005, 0.075000), (0.038206, -0.044496, 0.075000), (0.045962, -0.038891, 0.075000), (0.052586, -0.032328, 0.075000), (0.057915, -0.024969, 0.075000), (0.061819, -0.016996, 0.075000), (0.064200, -0.008604, 0.075000)]
            int[] faceVertexCounts = [40, 40, 4, 4, 4, 4, 4, 4, 4, 4, 4, 4, 4, 4, 4, 4, 4, 4, 4, 4, 4, 4, 4, 4, 4, 4, 4, 4, 4, 4, 4, 4, 4, 4, 4, 4, 4, 4, 4, 4, 4, 4]
            int[] faceVertexIndices = [39, 38, 37, 36, 35, 34, 33, 32, 31, 30, 29, 28, 27, 26, 25, 24, 23, 22, 21, 20, 19, 18, 17, 16, 15, 14, 13, 12, 11, 10, 9, 8, 7, 6, 5, 4, 3, 2, 1, 0, 40, 41, 42, 43, 44, 45, 46, 47, 48, 49, 50, 51, 52, 53, 54, 55, 56, 57, 58, 59, 60, 61, 62, 63, 64, 65, 66, 67, 68, 69, 70, 71, 72, 73, 74, 75, 76, 77, 78, 79, 0, 1, 41, 40, 1, 2, 42, 41, 2, 3, 43, 42, 3, 4, 44, 43, 4, 5, 45, 44, 5, 6, 46, 45, 6, 7, 47, 46, 7, 8, 48, 47, 8, 9, 49, 48, 9, 10, 50, 49, 10, 11, 51, 50, 11, 12, 52, 51, 12, 13, 53, 52, 13, 14, 54, 53, 14, 15, 55, 54, 15, 16, 56, 55, 16, 17, 57, 56, 17, 18, 58, 57, 18, 19, 59, 58, 19, 20, 60, 59, 20, 21, 61, 60, 21, 22, 62, 61, 22, 23, 63, 62, 23, 24, 64, 63, 24, 25, 65, 64, 25, 26, 66, 65, 26, 27, 67, 66, 27, 28, 68, 67, 28, 29, 69, 68, 29, 30, 70, 69, 30, 31, 71, 70, 31, 32, 72, 71, 32, 33, 73, 72, 33, 34, 74, 73, 34, 35, 75, 74, 35, 36, 76, 75, 36, 37, 77, 76, 37, 38, 78, 77, 38, 39, 79, 78, 39, 0, 40, 79]
            rel material:binding = </Asset/Looks/Accent>
        }
        def Mesh "RolledRim" (
            prepend apiSchemas = ["MaterialBindingAPI"]
        ) {
            point3f[] points = [(0.065000, 0.000000, 0.049875), (0.064200, 0.008260, 0.049875), (0.061819, 0.016316, 0.049875), (0.057915, 0.023971, 0.049875), (0.052586, 0.031035, 0.049875), (0.045962, 0.037335, 0.049875), (0.038206, 0.042716, 0.049875), (0.029509, 0.047045, 0.049875), (0.020086, 0.050216, 0.049875), (0.010168, 0.052150, 0.049875), (0.000000, 0.052800, 0.049875), (-0.010168, 0.052150, 0.049875), (-0.020086, 0.050216, 0.049875), (-0.029509, 0.047045, 0.049875), (-0.038206, 0.042716, 0.049875), (-0.045962, 0.037335, 0.049875), (-0.052586, 0.031035, 0.049875), (-0.057915, 0.023971, 0.049875), (-0.061819, 0.016316, 0.049875), (-0.064200, 0.008260, 0.049875), (-0.065000, 0.000000, 0.049875), (-0.064200, -0.008260, 0.049875), (-0.061819, -0.016316, 0.049875), (-0.057915, -0.023971, 0.049875), (-0.052586, -0.031035, 0.049875), (-0.045962, -0.037335, 0.049875), (-0.038206, -0.042716, 0.049875), (-0.029509, -0.047045, 0.049875), (-0.020086, -0.050216, 0.049875), (-0.010168, -0.052150, 0.049875), (-0.000000, -0.052800, 0.049875), (0.010168, -0.052150, 0.049875), (0.020086, -0.050216, 0.049875), (0.029509, -0.047045, 0.049875), (0.038206, -0.042716, 0.049875), (0.045962, -0.037335, 0.049875), (0.052586, -0.031035, 0.049875), (0.057915, -0.023971, 0.049875), (0.061819, -0.016316, 0.049875), (0.064200, -0.008260, 0.049875), (0.065000, 0.000000, 0.055125), (0.064200, 0.008260, 0.055125), (0.061819, 0.016316, 0.055125), (0.057915, 0.023971, 0.055125), (0.052586, 0.031035, 0.055125), (0.045962, 0.037335, 0.055125), (0.038206, 0.042716, 0.055125), (0.029509, 0.047045, 0.055125), (0.020086, 0.050216, 0.055125), (0.010168, 0.052150, 0.055125), (0.000000, 0.052800, 0.055125), (-0.010168, 0.052150, 0.055125), (-0.020086, 0.050216, 0.055125), (-0.029509, 0.047045, 0.055125), (-0.038206, 0.042716, 0.055125), (-0.045962, 0.037335, 0.055125), (-0.052586, 0.031035, 0.055125), (-0.057915, 0.023971, 0.055125), (-0.061819, 0.016316, 0.055125), (-0.064200, 0.008260, 0.055125), (-0.065000, 0.000000, 0.055125), (-0.064200, -0.008260, 0.055125), (-0.061819, -0.016316, 0.055125), (-0.057915, -0.023971, 0.055125), (-0.052586, -0.031035, 0.055125), (-0.045962, -0.037335, 0.055125), (-0.038206, -0.042716, 0.055125), (-0.029509, -0.047045, 0.055125), (-0.020086, -0.050216, 0.055125), (-0.010168, -0.052150, 0.055125), (-0.000000, -0.052800, 0.055125), (0.010168, -0.052150, 0.055125), (0.020086, -0.050216, 0.055125), (0.029509, -0.047045, 0.055125), (0.038206, -0.042716, 0.055125), (0.045962, -0.037335, 0.055125), (0.052586, -0.031035, 0.055125), (0.057915, -0.023971, 0.055125), (0.061819, -0.016316, 0.055125), (0.064200, -0.008260, 0.055125)]
            int[] faceVertexCounts = [40, 40, 4, 4, 4, 4, 4, 4, 4, 4, 4, 4, 4, 4, 4, 4, 4, 4, 4, 4, 4, 4, 4, 4, 4, 4, 4, 4, 4, 4, 4, 4, 4, 4, 4, 4, 4, 4, 4, 4, 4, 4]
            int[] faceVertexIndices = [39, 38, 37, 36, 35, 34, 33, 32, 31, 30, 29, 28, 27, 26, 25, 24, 23, 22, 21, 20, 19, 18, 17, 16, 15, 14, 13, 12, 11, 10, 9, 8, 7, 6, 5, 4, 3, 2, 1, 0, 40, 41, 42, 43, 44, 45, 46, 47, 48, 49, 50, 51, 52, 53, 54, 55, 56, 57, 58, 59, 60, 61, 62, 63, 64, 65, 66, 67, 68, 69, 70, 71, 72, 73, 74, 75, 76, 77, 78, 79, 0, 1, 41, 40, 1, 2, 42, 41, 2, 3, 43, 42, 3, 4, 44, 43, 4, 5, 45, 44, 5, 6, 46, 45, 6, 7, 47, 46, 7, 8, 48, 47, 8, 9, 49, 48, 9, 10, 50, 49, 10, 11, 51, 50, 11, 12, 52, 51, 12, 13, 53, 52, 13, 14, 54, 53, 14, 15, 55, 54, 15, 16, 56, 55, 16, 17, 57, 56, 17, 18, 58, 57, 18, 19, 59, 58, 19, 20, 60, 59, 20, 21, 61, 60, 21, 22, 62, 61, 22, 23, 63, 62, 23, 24, 64, 63, 24, 25, 65, 64, 25, 26, 66, 65, 26, 27, 67, 66, 27, 28, 68, 67, 28, 29, 69, 68, 29, 30, 70, 69, 30, 31, 71, 70, 31, 32, 72, 71, 32, 33, 73, 72, 33, 34, 74, 73, 34, 35, 75, 74, 35, 36, 76, 75, 36, 37, 77, 76, 37, 38, 78, 77, 38, 39, 79, 78, 39, 0, 40, 79]
            rel material:binding = </Asset/Looks/Metal>
        }
        def Mesh "FrontPanel" (
            prepend apiSchemas = ["MaterialBindingAPI"]
        ) {
            point3f[] points = [(-0.04690, 0.05700, -0.03024), (0.04690, 0.05700, -0.03024), (0.04690, 0.05700, 0.03024), (-0.04690, 0.05700, 0.03024)]
            int[] faceVertexCounts = [4]
            # Winding and the authored +Y normal must agree; viewed from the
            # local front (+Y), this order faces outward and preserves upright UVs.
            int[] faceVertexIndices = [0, 3, 2, 1]
            normal3f[] normals = [(0, 1, 0)] (
                interpolation = "uniform"
            )
            texCoord2f[] primvars:st = [(0, 0), (1, 0), (1, 1), (0, 1)] (
                interpolation = "vertex"
            )
            rel material:binding = </Asset/Looks/Front>
        }
        def Mesh "LeftPrintPanel" (
            prepend apiSchemas = ["MaterialBindingAPI"]
        ) {
            point3f[] points = [(-0.06600, -0.03960, -0.04050), (-0.06600, 0.03960, -0.04050), (-0.06600, 0.03960, 0.04050), (-0.06600, -0.03960, 0.04050)]
            int[] faceVertexCounts = [4]
            int[] faceVertexIndices = [0, 1, 2, 3]
            normal3f[] normals = [(-1, 0, 0)] (interpolation = "uniform")
            texCoord2f[] primvars:st = [(0.05, 0.12), (0.34, 0.12), (0.34, 0.88), (0.05, 0.88)] (interpolation = "vertex")
            rel material:binding = </Asset/Looks/Print>
        }
        def Mesh "RightPrintPanel" (
            prepend apiSchemas = ["MaterialBindingAPI"]
        ) {
            point3f[] points = [(0.06600, 0.03960, -0.04050), (0.06600, -0.03960, -0.04050), (0.06600, -0.03960, 0.04050), (0.06600, 0.03960, 0.04050)]
            int[] faceVertexCounts = [4]
            int[] faceVertexIndices = [0, 1, 2, 3]
            normal3f[] normals = [(1, 0, 0)] (interpolation = "uniform")
            texCoord2f[] primvars:st = [(0.05, 0.12), (0.34, 0.12), (0.34, 0.88), (0.05, 0.88)] (interpolation = "vertex")
            rel material:binding = </Asset/Looks/Print>
        }
        def Mesh "BackPrintPanel" (
            prepend apiSchemas = ["MaterialBindingAPI"]
        ) {
            point3f[] points = [(-0.04940, -0.05600, -0.05700), (0.04940, -0.05600, -0.05700), (0.04940, -0.05600, -0.03300), (-0.04940, -0.05600, -0.03300)]
            int[] faceVertexCounts = [4]
            int[] faceVertexIndices = [0, 3, 2, 1]
            normal3f[] normals = [(0, -1, 0)] (interpolation = "uniform")
            texCoord2f[] primvars:st = [(0.08, 0.08), (0.92, 0.08), (0.92, 0.34), (0.08, 0.34)] (interpolation = "vertex")
            rel material:binding = </Asset/Looks/Print>
        }
    }
    def Scope "Looks" {
        def Material "Body" {
            token outputs:surface.connect = </Asset/Looks/Body/Preview.outputs:surface>
            def Shader "Preview" {
                uniform token info:id = "UsdPreviewSurface"
                color3f inputs:diffuseColor = (0.34902, 0.55686, 0.72157)
                float inputs:roughness = 0.4800
                float inputs:metallic = 0.0000
                token outputs:surface
            }
        }
        def Material "Front" {
            token outputs:surface.connect = </Asset/Looks/Front/Preview.outputs:surface>
            def Shader "StReader" {
                uniform token info:id = "UsdPrimvarReader_float2"
                token inputs:varname = "st"
                float2 outputs:result
            }
            def Shader "Texture" {
                uniform token info:id = "UsdUVTexture"
                asset inputs:file = @../textures/icecream_tub.png@
                float2 inputs:st.connect = </Asset/Looks/Front/StReader.outputs:result>
                float3 outputs:rgb
            }
            def Shader "NormalTexture" {
                uniform token info:id = "UsdUVTexture"
                asset inputs:file = @../textures/icecream_tub_normal.png@
                token inputs:sourceColorSpace = "raw"
                float4 inputs:scale = (2, 2, 2, 1)
                float4 inputs:bias = (-1, -1, -1, 0)
                float2 inputs:st.connect = </Asset/Looks/Front/StReader.outputs:result>
                float3 outputs:rgb
            }
            def Shader "RoughnessTexture" {
                uniform token info:id = "UsdUVTexture"
                asset inputs:file = @../textures/icecream_tub_roughness.png@
                token inputs:sourceColorSpace = "raw"
                float2 inputs:st.connect = </Asset/Looks/Front/StReader.outputs:result>
                float outputs:r
            }
            def Shader "Preview" {
                uniform token info:id = "UsdPreviewSurface"
                color3f inputs:diffuseColor = (0.92941, 0.77255, 0.46667)
                float inputs:roughness = 0.5200
                float inputs:metallic = 0.0000
                color3f inputs:diffuseColor.connect = </Asset/Looks/Front/Texture.outputs:rgb>
                normal3f inputs:normal.connect = </Asset/Looks/Front/NormalTexture.outputs:rgb>
                float inputs:roughness.connect = </Asset/Looks/Front/RoughnessTexture.outputs:r>
                token outputs:surface
            }
        }
        def Material "Metal" {
            token outputs:surface.connect = </Asset/Looks/Metal/Preview.outputs:surface>
            def Shader "Preview" {
                uniform token info:id = "UsdPreviewSurface"
                color3f inputs:diffuseColor = (0.48000, 0.52000, 0.55000)
                float inputs:roughness = 0.2800
                float inputs:metallic = 0.7000
                token outputs:surface
            }
        }
        def Material "Stem" {
            token outputs:surface.connect = </Asset/Looks/Stem/Preview.outputs:surface>
            def Shader "Preview" {
                uniform token info:id = "UsdPreviewSurface"
                color3f inputs:diffuseColor = (0.12000, 0.23000, 0.08000)
                float inputs:roughness = 0.7200
                float inputs:metallic = 0.0000
                token outputs:surface
            }
        }
        def Material "Glass" {
            token outputs:surface.connect = </Asset/Looks/Glass/Preview.outputs:surface>
            def Shader "Preview" {
                uniform token info:id = "UsdPreviewSurface"
                color3f inputs:diffuseColor = (0.55000, 0.68000, 0.58000)
                float inputs:roughness = 0.1600
                float inputs:metallic = 0.0000
                float inputs:opacity = 0.7200
                token outputs:surface
            }
        }
        def Material "Paper" {
            token outputs:surface.connect = </Asset/Looks/Paper/Preview.outputs:surface>
            def Shader "Preview" {
                uniform token info:id = "UsdPreviewSurface"
                color3f inputs:diffuseColor = (0.82000, 0.79000, 0.69000)
                float inputs:roughness = 0.7800
                float inputs:metallic = 0.0000
                token outputs:surface
            }
        }
        def Material "Clear" {
            token outputs:surface.connect = </Asset/Looks/Clear/Preview.outputs:surface>
            def Shader "Preview" {
                uniform token info:id = "UsdPreviewSurface"
                color3f inputs:diffuseColor = (0.74000, 0.86000, 0.91000)
                float inputs:roughness = 0.1200
                float inputs:metallic = 0.0000
                float inputs:opacity = 0.3800
                token outputs:surface
            }
        }
        def Material "Dark" {
            token outputs:surface.connect = </Asset/Looks/Dark/Preview.outputs:surface>
            def Shader "Preview" {
                uniform token info:id = "UsdPreviewSurface"
                color3f inputs:diffuseColor = (0.05500, 0.06500, 0.07500)
                float inputs:roughness = 0.3800
                float inputs:metallic = 0.0500
                token outputs:surface
            }
        }
        def Material "Accent" {
            token outputs:surface.connect = </Asset/Looks/Accent/Preview.outputs:surface>
            def Shader "Preview" {
                uniform token info:id = "UsdPreviewSurface"
                color3f inputs:diffuseColor = (0.92941, 0.77255, 0.46667)
                float inputs:roughness = 0.5200
                float inputs:metallic = 0.0000
                token outputs:surface
            }
        }
        def Material "Print" {
            token outputs:surface.connect = </Asset/Looks/Print/Preview.outputs:surface>
            def Shader "StReader" {
                uniform token info:id = "UsdPrimvarReader_float2"
                token inputs:varname = "st"
                float2 outputs:result
            }
            def Shader "Texture" {
                uniform token info:id = "UsdUVTexture"
                asset inputs:file = @../textures/icecream_tub.png@
                float2 inputs:st.connect = </Asset/Looks/Print/StReader.outputs:result>
                float3 outputs:rgb
            }
            def Shader "NormalTexture" {
                uniform token info:id = "UsdUVTexture"
                asset inputs:file = @../textures/icecream_tub_normal.png@
                token inputs:sourceColorSpace = "raw"
                float4 inputs:scale = (2, 2, 2, 1)
                float4 inputs:bias = (-1, -1, -1, 0)
                float2 inputs:st.connect = </Asset/Looks/Print/StReader.outputs:result>
                float3 outputs:rgb
            }
            def Shader "RoughnessTexture" {
                uniform token info:id = "UsdUVTexture"
                asset inputs:file = @../textures/icecream_tub_roughness.png@
                token inputs:sourceColorSpace = "raw"
                float2 inputs:st.connect = </Asset/Looks/Print/StReader.outputs:result>
                float outputs:r
            }
            def Shader "Preview" {
                uniform token info:id = "UsdPreviewSurface"
                color3f inputs:diffuseColor = (0.92941, 0.77255, 0.46667)
                float inputs:roughness = 0.5200
                float inputs:metallic = 0.0000
                color3f inputs:diffuseColor.connect = </Asset/Looks/Print/Texture.outputs:rgb>
                normal3f inputs:normal.connect = </Asset/Looks/Print/NormalTexture.outputs:rgb>
                float inputs:roughness.connect = </Asset/Looks/Print/RoughnessTexture.outputs:r>
                token outputs:surface
            }
        }
    }
}
