#usda 1.0
(
    defaultPrim = "Asset"
    metersPerUnit = 1
    upAxis = "Z"
)
def Xform "Asset" (
    kind = "component"
) {
    def Xform "Geometry" {
        def Xform "Bulb" {
            double3 xformOp:translate = (0.00000, 0.00000, -0.01950)
            double3 xformOp:scale = (0.09500, 0.09000, 0.09100)
            uniform token[] xformOpOrder = ["xformOp:translate", "xformOp:scale"]
            def Sphere "Shape" (
                prepend apiSchemas = ["MaterialBindingAPI"]
            ) {
                double radius = 0.5
                rel material:binding = </Asset/Looks/Body>
            }
        }
        def Mesh "TaperedTop" (
            prepend apiSchemas = ["MaterialBindingAPI"]
        ) {
            point3f[] points = [(0.036100, 0.000000, 0.013000), (0.035406, 0.007043, 0.013000), (0.033352, 0.013815, 0.013000), (0.030016, 0.020056, 0.013000), (0.025527, 0.025527, 0.013000), (0.020056, 0.030016, 0.013000), (0.013815, 0.033352, 0.013000), (0.007043, 0.035406, 0.013000), (0.000000, 0.036100, 0.013000), (-0.007043, 0.035406, 0.013000), (-0.013815, 0.033352, 0.013000), (-0.020056, 0.030016, 0.013000), (-0.025527, 0.025527, 0.013000), (-0.030016, 0.020056, 0.013000), (-0.033352, 0.013815, 0.013000), (-0.035406, 0.007043, 0.013000), (-0.036100, 0.000000, 0.013000), (-0.035406, -0.007043, 0.013000), (-0.033352, -0.013815, 0.013000), (-0.030016, -0.020056, 0.013000), (-0.025527, -0.025527, 0.013000), (-0.020056, -0.030016, 0.013000), (-0.013815, -0.033352, 0.013000), (-0.007043, -0.035406, 0.013000), (-0.000000, -0.036100, 0.013000), (0.007043, -0.035406, 0.013000), (0.013815, -0.033352, 0.013000), (0.020056, -0.030016, 0.013000), (0.025527, -0.025527, 0.013000), (0.030016, -0.020056, 0.013000), (0.033352, -0.013815, 0.013000), (0.035406, -0.007043, 0.013000), (0.015200, 0.000000, 0.052000), (0.014908, 0.002965, 0.052000), (0.014043, 0.005817, 0.052000), (0.012638, 0.008445, 0.052000), (0.010748, 0.010748, 0.052000), (0.008445, 0.012638, 0.052000), (0.005817, 0.014043, 0.052000), (0.002965, 0.014908, 0.052000), (0.000000, 0.015200, 0.052000), (-0.002965, 0.014908, 0.052000), (-0.005817, 0.014043, 0.052000), (-0.008445, 0.012638, 0.052000), (-0.010748, 0.010748, 0.052000), (-0.012638, 0.008445, 0.052000), (-0.014043, 0.005817, 0.052000), (-0.014908, 0.002965, 0.052000), (-0.015200, 0.000000, 0.052000), (-0.014908, -0.002965, 0.052000), (-0.014043, -0.005817, 0.052000), (-0.012638, -0.008445, 0.052000), (-0.010748, -0.010748, 0.052000), (-0.008445, -0.012638, 0.052000), (-0.005817, -0.014043, 0.052000), (-0.002965, -0.014908, 0.052000), (-0.000000, -0.015200, 0.052000), (0.002965, -0.014908, 0.052000), (0.005817, -0.014043, 0.052000), (0.008445, -0.012638, 0.052000), (0.010748, -0.010748, 0.052000), (0.012638, -0.008445, 0.052000), (0.014043, -0.005817, 0.052000), (0.014908, -0.002965, 0.052000)]
            int[] faceVertexCounts = [32, 32, 4, 4, 4, 4, 4, 4, 4, 4, 4, 4, 4, 4, 4, 4, 4, 4, 4, 4, 4, 4, 4, 4, 4, 4, 4, 4, 4, 4, 4, 4, 4, 4]
            int[] faceVertexIndices = [31, 30, 29, 28, 27, 26, 25, 24, 23, 22, 21, 20, 19, 18, 17, 16, 15, 14, 13, 12, 11, 10, 9, 8, 7, 6, 5, 4, 3, 2, 1, 0, 32, 33, 34, 35, 36, 37, 38, 39, 40, 41, 42, 43, 44, 45, 46, 47, 48, 49, 50, 51, 52, 53, 54, 55, 56, 57, 58, 59, 60, 61, 62, 63, 0, 1, 33, 32, 1, 2, 34, 33, 2, 3, 35, 34, 3, 4, 36, 35, 4, 5, 37, 36, 5, 6, 38, 37, 6, 7, 39, 38, 7, 8, 40, 39, 8, 9, 41, 40, 9, 10, 42, 41, 10, 11, 43, 42, 11, 12, 44, 43, 12, 13, 45, 44, 13, 14, 46, 45, 14, 15, 47, 46, 15, 16, 48, 47, 16, 17, 49, 48, 17, 18, 50, 49, 18, 19, 51, 50, 19, 20, 52, 51, 20, 21, 53, 52, 21, 22, 54, 53, 22, 23, 55, 54, 23, 24, 56, 55, 24, 25, 57, 56, 25, 26, 58, 57, 26, 27, 59, 58, 27, 28, 60, 59, 28, 29, 61, 60, 29, 30, 62, 61, 30, 31, 63, 62, 31, 0, 32, 63]
            rel material:binding = </Asset/Looks/Body>
        }
        def Cylinder "Stem" (
            prepend apiSchemas = ["MaterialBindingAPI"]
        ) {
            int vertices = 12
            double radius = 0.00380
            double height = 0.02340
            double3 xformOp:translate = (0, 0, 0.05330)
            uniform token[] xformOpOrder = ["xformOp:translate"]
            rel material:binding = </Asset/Looks/Stem>
        }
        def Mesh "Leaf" (
            prepend apiSchemas = ["MaterialBindingAPI"]
        ) {
            point3f[] points = [(-0.00665, -0.00540, 0.03900), (0.02945, -0.00540, 0.03900), (-0.00665, -0.00540, 0.05980), (-0.00665, 0.00540, 0.03900), (0.02945, 0.00540, 0.03900), (-0.00665, 0.00540, 0.05980)]
            int[] faceVertexCounts = [3, 3, 4, 4, 4]
            int[] faceVertexIndices = [0, 1, 2, 3, 5, 4, 0, 3, 4, 1, 1, 4, 5, 2, 2, 5, 3, 0]
            rel material:binding = </Asset/Looks/Stem>
        }
    }
    def Scope "Looks" {
        def Material "Body" {
            token outputs:surface.connect = </Asset/Looks/Body/Preview.outputs:surface>
            def Shader "Preview" {
                uniform token info:id = "UsdPreviewSurface"
                color3f inputs:diffuseColor = (0.58431, 0.69412, 0.25882)
                float inputs:roughness = 0.8200
                float inputs:metallic = 0.0000
                token outputs:surface
            }
        }
        def Material "Front" {
            token outputs:surface.connect = </Asset/Looks/Front/Preview.outputs:surface>
            def Shader "Preview" {
                uniform token info:id = "UsdPreviewSurface"
                color3f inputs:diffuseColor = (0.43529, 0.29804, 0.15686)
                float inputs:roughness = 0.8000
                float inputs:metallic = 0.0000
                token outputs:surface
            }
        }
        def Material "Metal" {
            token outputs:surface.connect = </Asset/Looks/Metal/Preview.outputs:surface>
            def Shader "Preview" {
                uniform token info:id = "UsdPreviewSurface"
                color3f inputs:diffuseColor = (0.48000, 0.52000, 0.55000)
                float inputs:roughness = 0.2800
                float inputs:metallic = 0.7000
                token outputs:surface
            }
        }
        def Material "Stem" {
            token outputs:surface.connect = </Asset/Looks/Stem/Preview.outputs:surface>
            def Shader "Preview" {
                uniform token info:id = "UsdPreviewSurface"
                color3f inputs:diffuseColor = (0.12000, 0.23000, 0.08000)
                float inputs:roughness = 0.7200
                float inputs:metallic = 0.0000
                token outputs:surface
            }
        }
        def Material "Glass" {
            token outputs:surface.connect = </Asset/Looks/Glass/Preview.outputs:surface>
            def Shader "Preview" {
                uniform token info:id = "UsdPreviewSurface"
                color3f inputs:diffuseColor = (0.55000, 0.68000, 0.58000)
                float inputs:roughness = 0.1600
                float inputs:metallic = 0.0000
                float inputs:opacity = 0.7200
                token outputs:surface
            }
        }
        def Material "Paper" {
            token outputs:surface.connect = </Asset/Looks/Paper/Preview.outputs:surface>
            def Shader "Preview" {
                uniform token info:id = "UsdPreviewSurface"
                color3f inputs:diffuseColor = (0.82000, 0.79000, 0.69000)
                float inputs:roughness = 0.7800
                float inputs:metallic = 0.0000
                token outputs:surface
            }
        }
        def Material "Clear" {
            token outputs:surface.connect = </Asset/Looks/Clear/Preview.outputs:surface>
            def Shader "Preview" {
                uniform token info:id = "UsdPreviewSurface"
                color3f inputs:diffuseColor = (0.74000, 0.86000, 0.91000)
                float inputs:roughness = 0.1200
                float inputs:metallic = 0.0000
                float inputs:opacity = 0.3800
                token outputs:surface
            }
        }
        def Material "Dark" {
            token outputs:surface.connect = </Asset/Looks/Dark/Preview.outputs:surface>
            def Shader "Preview" {
                uniform token info:id = "UsdPreviewSurface"
                color3f inputs:diffuseColor = (0.05500, 0.06500, 0.07500)
                float inputs:roughness = 0.3800
                float inputs:metallic = 0.0500
                token outputs:surface
            }
        }
        def Material "Accent" {
            token outputs:surface.connect = </Asset/Looks/Accent/Preview.outputs:surface>
            def Shader "Preview" {
                uniform token info:id = "UsdPreviewSurface"
                color3f inputs:diffuseColor = (0.43529, 0.29804, 0.15686)
                float inputs:roughness = 0.8000
                float inputs:metallic = 0.0000
                token outputs:surface
            }
        }
        def Material "Print" {
            token outputs:surface.connect = </Asset/Looks/Print/Preview.outputs:surface>
            def Shader "Preview" {
                uniform token info:id = "UsdPreviewSurface"
                color3f inputs:diffuseColor = (0.43529, 0.29804, 0.15686)
                float inputs:roughness = 0.8000
                float inputs:metallic = 0.0000
                token outputs:surface
            }
        }
    }
}
