#usda 1.0
(
    defaultPrim = "Asset"
    metersPerUnit = 1
    upAxis = "Z"
)
def Xform "Asset" (
    kind = "component"
) {
    def Xform "Geometry" {
        def Mesh "CardBacker" (
            prepend apiSchemas = ["MaterialBindingAPI"]
        ) {
            point3f[] points = [(-0.07297, -0.00562, -0.09500), (0.07297, -0.00562, -0.09500), (0.07500, -0.00360, -0.09500), (0.07500, 0.00360, -0.09500), (0.07297, 0.00562, -0.09500), (-0.07297, 0.00562, -0.09500), (-0.07500, 0.00360, -0.09500), (-0.07500, -0.00360, -0.09500), (-0.07297, -0.00562, 0.09500), (0.07297, -0.00562, 0.09500), (0.07500, -0.00360, 0.09500), (0.07500, 0.00360, 0.09500), (0.07297, 0.00562, 0.09500), (-0.07297, 0.00562, 0.09500), (-0.07500, 0.00360, 0.09500), (-0.07500, -0.00360, 0.09500)]
            int[] faceVertexCounts = [8, 8, 4, 4, 4, 4, 4, 4, 4, 4]
            int[] faceVertexIndices = [7, 6, 5, 4, 3, 2, 1, 0, 8, 9, 10, 11, 12, 13, 14, 15, 0, 1, 9, 8, 1, 2, 10, 9, 2, 3, 11, 10, 3, 4, 12, 11, 4, 5, 13, 12, 5, 6, 14, 13, 6, 7, 15, 14, 7, 0, 8, 15]
            rel material:binding = </Asset/Looks/Paper>
        }
        def Xform "ClearBlister" {
            double3 xformOp:translate = (0.00000, 0.00450, -0.01140)
            double3 xformOp:scale = (0.13200, 0.04500, 0.13680)
            uniform token[] xformOpOrder = ["xformOp:translate", "xformOp:scale"]
            def Sphere "Shape" (
                prepend apiSchemas = ["MaterialBindingAPI"]
            ) {
                double radius = 0.5
                rel material:binding = </Asset/Looks/Clear>
            }
        }
        def Mesh "SpongeTop" (
            prepend apiSchemas = ["MaterialBindingAPI"]
        ) {
            point3f[] points = [(-0.05060, -0.00945, -0.02280), (0.05060, -0.00945, -0.02280), (0.05400, -0.00605, -0.02280), (0.05400, 0.00605, -0.02280), (0.05060, 0.00945, -0.02280), (-0.05060, 0.00945, -0.02280), (-0.05400, 0.00605, -0.02280), (-0.05400, -0.00605, -0.02280), (-0.05060, -0.00945, 0.02280), (0.05060, -0.00945, 0.02280), (0.05400, -0.00605, 0.02280), (0.05400, 0.00605, 0.02280), (0.05060, 0.00945, 0.02280), (-0.05060, 0.00945, 0.02280), (-0.05400, 0.00605, 0.02280), (-0.05400, -0.00605, 0.02280)]
            int[] faceVertexCounts = [8, 8, 4, 4, 4, 4, 4, 4, 4, 4]
            int[] faceVertexIndices = [7, 6, 5, 4, 3, 2, 1, 0, 8, 9, 10, 11, 12, 13, 14, 15, 0, 1, 9, 8, 1, 2, 10, 9, 2, 3, 11, 10, 3, 4, 12, 11, 4, 5, 13, 12, 5, 6, 14, 13, 6, 7, 15, 14, 7, 0, 8, 15]
            rel material:binding = </Asset/Looks/Body>
        }
        def Mesh "SpongeBottom" (
            prepend apiSchemas = ["MaterialBindingAPI"]
        ) {
            point3f[] points = [(-0.05060, -0.00945, -0.02280), (0.05060, -0.00945, -0.02280), (0.05400, -0.00605, -0.02280), (0.05400, 0.00605, -0.02280), (0.05060, 0.00945, -0.02280), (-0.05060, 0.00945, -0.02280), (-0.05400, 0.00605, -0.02280), (-0.05400, -0.00605, -0.02280), (-0.05060, -0.00945, 0.02280), (0.05060, -0.00945, 0.02280), (0.05400, -0.00605, 0.02280), (0.05400, 0.00605, 0.02280), (0.05060, 0.00945, 0.02280), (-0.05060, 0.00945, 0.02280), (-0.05400, 0.00605, 0.02280), (-0.05400, -0.00605, 0.02280)]
            int[] faceVertexCounts = [8, 8, 4, 4, 4, 4, 4, 4, 4, 4]
            int[] faceVertexIndices = [7, 6, 5, 4, 3, 2, 1, 0, 8, 9, 10, 11, 12, 13, 14, 15, 0, 1, 9, 8, 1, 2, 10, 9, 2, 3, 11, 10, 3, 4, 12, 11, 4, 5, 13, 12, 5, 6, 14, 13, 6, 7, 15, 14, 7, 0, 8, 15]
            rel material:binding = </Asset/Looks/Accent>
        }
        def Xform "HangSlot" {
            double3 xformOp:translate = (0.00000, 0.00000, 0.07600)
            double3 xformOp:scale = (0.03300, 0.01350, 0.01330)
            uniform token[] xformOpOrder = ["xformOp:translate", "xformOp:scale"]
            def Sphere "Shape" (
                prepend apiSchemas = ["MaterialBindingAPI"]
            ) {
                double radius = 0.5
                rel material:binding = </Asset/Looks/Dark>
            }
        }
        def Mesh "FrontPanel" (
            prepend apiSchemas = ["MaterialBindingAPI"]
        ) {
            point3f[] points = [(-0.05676, 0.02450, -0.04948), (0.05676, 0.02450, -0.04948), (0.05676, 0.02450, 0.04948), (-0.05676, 0.02450, 0.04948)]
            int[] faceVertexCounts = [4]
            # Winding and the authored +Y normal must agree; viewed from the
            # local front (+Y), this order faces outward and preserves upright UVs.
            int[] faceVertexIndices = [0, 3, 2, 1]
            normal3f[] normals = [(0, 1, 0)] (
                interpolation = "uniform"
            )
            texCoord2f[] primvars:st = [(0, 0), (1, 0), (1, 1), (0, 1)] (
                interpolation = "vertex"
            )
            rel material:binding = </Asset/Looks/Front>
        }
        def Xform "SidePrintLeft" {
            double3 xformOp:translate = (-0.07200, 0.00000, -0.00760)
            double3 xformOp:scale = (0.00300, 0.01620, 0.05130)
            uniform token[] xformOpOrder = ["xformOp:translate", "xformOp:scale"]
            def Cube "Shape" (
                prepend apiSchemas = ["MaterialBindingAPI"]
            ) {
                double size = 2.0
                rel material:binding = </Asset/Looks/Accent>
            }
        }
        def Xform "SidePrintRight" {
            double3 xformOp:translate = (0.07200, 0.00000, -0.00760)
            double3 xformOp:scale = (0.00300, 0.01620, 0.05130)
            uniform token[] xformOpOrder = ["xformOp:translate", "xformOp:scale"]
            def Cube "Shape" (
                prepend apiSchemas = ["MaterialBindingAPI"]
            ) {
                double size = 2.0
                rel material:binding = </Asset/Looks/Accent>
            }
        }
        def Xform "BackColorBand" {
            double3 xformOp:translate = (0.00000, -0.01950, -0.05890)
            double3 xformOp:scale = (0.04350, 0.00300, 0.01140)
            uniform token[] xformOpOrder = ["xformOp:translate", "xformOp:scale"]
            def Cube "Shape" (
                prepend apiSchemas = ["MaterialBindingAPI"]
            ) {
                double size = 2.0
                rel material:binding = </Asset/Looks/Accent>
            }
        }
    }
    def Scope "Looks" {
        def Material "Body" {
            token outputs:surface.connect = </Asset/Looks/Body/Preview.outputs:surface>
            def Shader "Preview" {
                uniform token info:id = "UsdPreviewSurface"
                color3f inputs:diffuseColor = (0.88627, 0.74118, 0.23922)
                float inputs:roughness = 0.4000
                float inputs:metallic = 0.0000
                token outputs:surface
            }
        }
        def Material "Front" {
            token outputs:surface.connect = </Asset/Looks/Front/Preview.outputs:surface>
            def Shader "StReader" {
                uniform token info:id = "UsdPrimvarReader_float2"
                token inputs:varname = "st"
                float2 outputs:result
            }
            def Shader "Texture" {
                uniform token info:id = "UsdUVTexture"
                asset inputs:file = @../textures/sponge_pack.png@
                float2 inputs:st.connect = </Asset/Looks/Front/StReader.outputs:result>
                float3 outputs:rgb
            }
            def Shader "Preview" {
                uniform token info:id = "UsdPreviewSurface"
                color3f inputs:diffuseColor = (0.27451, 0.52941, 0.34118)
                float inputs:roughness = 0.4200
                float inputs:metallic = 0.0000
                color3f inputs:diffuseColor.connect = </Asset/Looks/Front/Texture.outputs:rgb>
                token outputs:surface
            }
        }
        def Material "Metal" {
            token outputs:surface.connect = </Asset/Looks/Metal/Preview.outputs:surface>
            def Shader "Preview" {
                uniform token info:id = "UsdPreviewSurface"
                color3f inputs:diffuseColor = (0.48000, 0.52000, 0.55000)
                float inputs:roughness = 0.2800
                float inputs:metallic = 0.7000
                token outputs:surface
            }
        }
        def Material "Stem" {
            token outputs:surface.connect = </Asset/Looks/Stem/Preview.outputs:surface>
            def Shader "Preview" {
                uniform token info:id = "UsdPreviewSurface"
                color3f inputs:diffuseColor = (0.12000, 0.23000, 0.08000)
                float inputs:roughness = 0.7200
                float inputs:metallic = 0.0000
                token outputs:surface
            }
        }
        def Material "Glass" {
            token outputs:surface.connect = </Asset/Looks/Glass/Preview.outputs:surface>
            def Shader "Preview" {
                uniform token info:id = "UsdPreviewSurface"
                color3f inputs:diffuseColor = (0.55000, 0.68000, 0.58000)
                float inputs:roughness = 0.1600
                float inputs:metallic = 0.0000
                float inputs:opacity = 0.7200
                token outputs:surface
            }
        }
        def Material "Paper" {
            token outputs:surface.connect = </Asset/Looks/Paper/Preview.outputs:surface>
            def Shader "Preview" {
                uniform token info:id = "UsdPreviewSurface"
                color3f inputs:diffuseColor = (0.82000, 0.79000, 0.69000)
                float inputs:roughness = 0.7800
                float inputs:metallic = 0.0000
                token outputs:surface
            }
        }
        def Material "Clear" {
            token outputs:surface.connect = </Asset/Looks/Clear/Preview.outputs:surface>
            def Shader "Preview" {
                uniform token info:id = "UsdPreviewSurface"
                color3f inputs:diffuseColor = (0.74000, 0.86000, 0.91000)
                float inputs:roughness = 0.1200
                float inputs:metallic = 0.0000
                float inputs:opacity = 0.3800
                token outputs:surface
            }
        }
        def Material "Dark" {
            token outputs:surface.connect = </Asset/Looks/Dark/Preview.outputs:surface>
            def Shader "Preview" {
                uniform token info:id = "UsdPreviewSurface"
                color3f inputs:diffuseColor = (0.05500, 0.06500, 0.07500)
                float inputs:roughness = 0.3800
                float inputs:metallic = 0.0500
                token outputs:surface
            }
        }
        def Material "Accent" {
            token outputs:surface.connect = </Asset/Looks/Accent/Preview.outputs:surface>
            def Shader "Preview" {
                uniform token info:id = "UsdPreviewSurface"
                color3f inputs:diffuseColor = (0.27451, 0.52941, 0.34118)
                float inputs:roughness = 0.4200
                float inputs:metallic = 0.0000
                token outputs:surface
            }
        }
    }
}
