#usda 1.0
(
    defaultPrim = "Asset"
    metersPerUnit = 1
    upAxis = "Z"
)
def Xform "Asset" (
    kind = "component"
) {
    def Xform "Geometry" {
        def Cylinder "Body" (
            prepend apiSchemas = ["MaterialBindingAPI"]
        ) {
            int vertices = 40
            double radius = 0.04550
            double height = 0.19600
            double3 xformOp:translate = (0, 0, -0.04200)
            uniform token[] xformOpOrder = ["xformOp:translate"]
            rel material:binding = </Asset/Looks/Body>
        }
        def Mesh "Shoulder" (
            prepend apiSchemas = ["MaterialBindingAPI"]
        ) {
            point3f[] points = [(0.045500, 0.000000, 0.055300), (0.044940, 0.007118, 0.055300), (0.043273, 0.014060, 0.055300), (0.040541, 0.020657, 0.055300), (0.036810, 0.026744, 0.055300), (0.032173, 0.032173, 0.055300), (0.026744, 0.036810, 0.055300), (0.020657, 0.040541, 0.055300), (0.014060, 0.043273, 0.055300), (0.007118, 0.044940, 0.055300), (0.000000, 0.045500, 0.055300), (-0.007118, 0.044940, 0.055300), (-0.014060, 0.043273, 0.055300), (-0.020657, 0.040541, 0.055300), (-0.026744, 0.036810, 0.055300), (-0.032173, 0.032173, 0.055300), (-0.036810, 0.026744, 0.055300), (-0.040541, 0.020657, 0.055300), (-0.043273, 0.014060, 0.055300), (-0.044940, 0.007118, 0.055300), (-0.045500, 0.000000, 0.055300), (-0.044940, -0.007118, 0.055300), (-0.043273, -0.014060, 0.055300), (-0.040541, -0.020657, 0.055300), (-0.036810, -0.026744, 0.055300), (-0.032173, -0.032173, 0.055300), (-0.026744, -0.036810, 0.055300), (-0.020657, -0.040541, 0.055300), (-0.014060, -0.043273, 0.055300), (-0.007118, -0.044940, 0.055300), (-0.000000, -0.045500, 0.055300), (0.007118, -0.044940, 0.055300), (0.014060, -0.043273, 0.055300), (0.020657, -0.040541, 0.055300), (0.026744, -0.036810, 0.055300), (0.032173, -0.032173, 0.055300), (0.036810, -0.026744, 0.055300), (0.040541, -0.020657, 0.055300), (0.043273, -0.014060, 0.055300), (0.044940, -0.007118, 0.055300), (0.028500, 0.000000, 0.081900), (0.028149, 0.004458, 0.081900), (0.027105, 0.008807, 0.081900), (0.025394, 0.012939, 0.081900), (0.023057, 0.016752, 0.081900), (0.020153, 0.020153, 0.081900), (0.016752, 0.023057, 0.081900), (0.012939, 0.025394, 0.081900), (0.008807, 0.027105, 0.081900), (0.004458, 0.028149, 0.081900), (0.000000, 0.028500, 0.081900), (-0.004458, 0.028149, 0.081900), (-0.008807, 0.027105, 0.081900), (-0.012939, 0.025394, 0.081900), (-0.016752, 0.023057, 0.081900), (-0.020153, 0.020153, 0.081900), (-0.023057, 0.016752, 0.081900), (-0.025394, 0.012939, 0.081900), (-0.027105, 0.008807, 0.081900), (-0.028149, 0.004458, 0.081900), (-0.028500, 0.000000, 0.081900), (-0.028149, -0.004458, 0.081900), (-0.027105, -0.008807, 0.081900), (-0.025394, -0.012939, 0.081900), (-0.023057, -0.016752, 0.081900), (-0.020153, -0.020153, 0.081900), (-0.016752, -0.023057, 0.081900), (-0.012939, -0.025394, 0.081900), (-0.008807, -0.027105, 0.081900), (-0.004458, -0.028149, 0.081900), (-0.000000, -0.028500, 0.081900), (0.004458, -0.028149, 0.081900), (0.008807, -0.027105, 0.081900), (0.012939, -0.025394, 0.081900), (0.016752, -0.023057, 0.081900), (0.020153, -0.020153, 0.081900), (0.023057, -0.016752, 0.081900), (0.025394, -0.012939, 0.081900), (0.027105, -0.008807, 0.081900), (0.028149, -0.004458, 0.081900)]
            int[] faceVertexCounts = [40, 40, 4, 4, 4, 4, 4, 4, 4, 4, 4, 4, 4, 4, 4, 4, 4, 4, 4, 4, 4, 4, 4, 4, 4, 4, 4, 4, 4, 4, 4, 4, 4, 4, 4, 4, 4, 4, 4, 4, 4, 4]
            int[] faceVertexIndices = [39, 38, 37, 36, 35, 34, 33, 32, 31, 30, 29, 28, 27, 26, 25, 24, 23, 22, 21, 20, 19, 18, 17, 16, 15, 14, 13, 12, 11, 10, 9, 8, 7, 6, 5, 4, 3, 2, 1, 0, 40, 41, 42, 43, 44, 45, 46, 47, 48, 49, 50, 51, 52, 53, 54, 55, 56, 57, 58, 59, 60, 61, 62, 63, 64, 65, 66, 67, 68, 69, 70, 71, 72, 73, 74, 75, 76, 77, 78, 79, 0, 1, 41, 40, 1, 2, 42, 41, 2, 3, 43, 42, 3, 4, 44, 43, 4, 5, 45, 44, 5, 6, 46, 45, 6, 7, 47, 46, 7, 8, 48, 47, 8, 9, 49, 48, 9, 10, 50, 49, 10, 11, 51, 50, 11, 12, 52, 51, 12, 13, 53, 52, 13, 14, 54, 53, 14, 15, 55, 54, 15, 16, 56, 55, 16, 17, 57, 56, 17, 18, 58, 57, 18, 19, 59, 58, 19, 20, 60, 59, 20, 21, 61, 60, 21, 22, 62, 61, 22, 23, 63, 62, 23, 24, 64, 63, 24, 25, 65, 64, 25, 26, 66, 65, 26, 27, 67, 66, 27, 28, 68, 67, 28, 29, 69, 68, 29, 30, 70, 69, 30, 31, 71, 70, 31, 32, 72, 71, 32, 33, 73, 72, 33, 34, 74, 73, 34, 35, 75, 74, 35, 36, 76, 75, 36, 37, 77, 76, 37, 38, 78, 77, 38, 39, 79, 78, 39, 0, 40, 79]
            rel material:binding = </Asset/Looks/Body>
        }
        def Cylinder "Neck" (
            prepend apiSchemas = ["MaterialBindingAPI"]
        ) {
            int vertices = 32
            double radius = 0.02850
            double height = 0.04760
            double3 xformOp:translate = (0, 0, 0.10080)
            uniform token[] xformOpOrder = ["xformOp:translate"]
            rel material:binding = </Asset/Looks/Body>
        }
        def Mesh "FrontPanel" (
            prepend apiSchemas = ["MaterialBindingAPI"]
        ) {
            point3f[] points = [(-0.04400, 0.05200, -0.04939), (0.04400, 0.05200, -0.04939), (0.04400, 0.05200, 0.04939), (-0.04400, 0.05200, 0.04939)]
            int[] faceVertexCounts = [4]
            # Winding and the authored +Y normal must agree; viewed from the
            # local front (+Y), this order faces outward and preserves upright UVs.
            int[] faceVertexIndices = [0, 3, 2, 1]
            normal3f[] normals = [(0, 1, 0)] (
                interpolation = "uniform"
            )
            texCoord2f[] primvars:st = [(0, 0), (1, 0), (1, 1), (0, 1)] (
                interpolation = "vertex"
            )
            rel material:binding = </Asset/Looks/Front>
        }
        def Cylinder "Cap" (
            prepend apiSchemas = ["MaterialBindingAPI"]
        ) {
            int vertices = 32
            double radius = 0.03000
            double height = 0.01400
            double3 xformOp:translate = (0, 0, 0.13300)
            uniform token[] xformOpOrder = ["xformOp:translate"]
            rel material:binding = </Asset/Looks/Metal>
        }
        def Cylinder "CapRidge" (
            prepend apiSchemas = ["MaterialBindingAPI"]
        ) {
            int vertices = 32
            double radius = 0.03150
            double height = 0.00392
            double3 xformOp:translate = (0, 0, 0.12880)
            uniform token[] xformOpOrder = ["xformOp:translate"]
            rel material:binding = </Asset/Looks/Metal>
        }
    }
    def Scope "Looks" {
        def Material "Body" {
            token outputs:surface.connect = </Asset/Looks/Body/Preview.outputs:surface>
            def Shader "Preview" {
                uniform token info:id = "UsdPreviewSurface"
                color3f inputs:diffuseColor = (0.28235, 0.57647, 0.80784)
                float inputs:roughness = 0.6200
                float inputs:metallic = 0.0000
                token outputs:surface
            }
        }
        def Material "Front" {
            token outputs:surface.connect = </Asset/Looks/Front/Preview.outputs:surface>
            def Shader "StReader" {
                uniform token info:id = "UsdPrimvarReader_float2"
                token inputs:varname = "st"
                float2 outputs:result
            }
            def Shader "Texture" {
                uniform token info:id = "UsdUVTexture"
                asset inputs:file = @../textures/water_sky.png@
                float2 inputs:st.connect = </Asset/Looks/Front/StReader.outputs:result>
                float3 outputs:rgb
            }
            def Shader "Preview" {
                uniform token info:id = "UsdPreviewSurface"
                color3f inputs:diffuseColor = (0.82353, 0.93725, 0.98824)
                float inputs:roughness = 0.5400
                float inputs:metallic = 0.0000
                color3f inputs:diffuseColor.connect = </Asset/Looks/Front/Texture.outputs:rgb>
                token outputs:surface
            }
        }
        def Material "Metal" {
            token outputs:surface.connect = </Asset/Looks/Metal/Preview.outputs:surface>
            def Shader "Preview" {
                uniform token info:id = "UsdPreviewSurface"
                color3f inputs:diffuseColor = (0.48000, 0.52000, 0.55000)
                float inputs:roughness = 0.2800
                float inputs:metallic = 0.7000
                token outputs:surface
            }
        }
        def Material "Stem" {
            token outputs:surface.connect = </Asset/Looks/Stem/Preview.outputs:surface>
            def Shader "Preview" {
                uniform token info:id = "UsdPreviewSurface"
                color3f inputs:diffuseColor = (0.12000, 0.23000, 0.08000)
                float inputs:roughness = 0.7200
                float inputs:metallic = 0.0000
                token outputs:surface
            }
        }
    }
}
