<svg xmlns="http://www.w3.org/2000/svg" width="960" height="720" viewBox="0 0 960 720">
  <rect width="960" height="720" fill="#eef2f4"/>
  <path d="M80 650 L780 650 L915 585 L215 585 Z" fill="#dfe5e8" stroke="#c3ccd1"/>
  <g stroke="#cad2d6" stroke-width="1">
    <line x1="160" y1="650" x2="295" y2="585"/><line x1="300" y1="650" x2="435" y2="585"/>
    <line x1="440" y1="650" x2="575" y2="585"/><line x1="580" y1="650" x2="715" y2="585"/>
  </g>
  <g><line x1="160.00" y1="237.73" x2="681.55" y2="237.73" stroke="#b8c1c7" stroke-width="7.20" stroke-linecap="round"/><line x1="178.30" y1="424.59" x2="654.10" y2="449.84" stroke="#b8c1c7" stroke-width="7.20" stroke-linecap="round"/><line x1="174.64" y1="387.22" x2="659.59" y2="407.42" stroke="#b8c1c7" stroke-width="3.02" stroke-linecap="round"/><line x1="170.98" y1="349.85" x2="665.08" y2="365.00" stroke="#b8c1c7" stroke-width="3.02" stroke-linecap="round"/><line x1="167.32" y1="312.48" x2="670.57" y2="322.57" stroke="#b8c1c7" stroke-width="3.02" stroke-linecap="round"/><line x1="163.66" y1="275.11" x2="676.06" y2="280.15" stroke="#b8c1c7" stroke-width="3.02" stroke-linecap="round"/><line x1="217.95" y1="426.69" x2="203.46" y2="237.73" stroke="#b8c1c7" stroke-width="3.02" stroke-linecap="round"/><line x1="257.60" y1="428.79" x2="246.93" y2="237.73" stroke="#b8c1c7" stroke-width="3.02" stroke-linecap="round"/><line x1="297.25" y1="430.90" x2="290.39" y2="237.73" stroke="#b8c1c7" stroke-width="3.02" stroke-linecap="round"/><line x1="336.90" y1="433.00" x2="333.85" y2="237.73" stroke="#b8c1c7" stroke-width="3.02" stroke-linecap="round"/><line x1="376.55" y1="435.11" x2="377.31" y2="237.73" stroke="#b8c1c7" stroke-width="3.02" stroke-linecap="round"/><line x1="416.20" y1="437.21" x2="420.78" y2="237.73" stroke="#b8c1c7" stroke-width="3.02" stroke-linecap="round"/><line x1="455.85" y1="439.31" x2="464.24" y2="237.73" stroke="#b8c1c7" stroke-width="3.02" stroke-linecap="round"/><line x1="495.50" y1="441.42" x2="507.70" y2="237.73" stroke="#b8c1c7" stroke-width="3.02" stroke-linecap="round"/><line x1="535.15" y1="443.52" x2="551.16" y2="237.73" stroke="#b8c1c7" stroke-width="3.02" stroke-linecap="round"/><line x1="574.80" y1="445.63" x2="594.62" y2="237.73" stroke="#b8c1c7" stroke-width="3.02" stroke-linecap="round"/><line x1="614.45" y1="447.73" x2="638.09" y2="237.73" stroke="#b8c1c7" stroke-width="3.02" stroke-linecap="round"/><line x1="172.42" y1="606.28" x2="172.42" y2="645.16" stroke="#8d969d" stroke-width="5.76" stroke-linecap="round"/><line x1="605.52" y1="606.28" x2="605.52" y2="645.16" stroke="#8d969d" stroke-width="5.76" stroke-linecap="round"/><line x1="181.87" y1="640.75" x2="173.32" y2="644.75" stroke="#20252a" stroke-width="48.96" stroke-linecap="round"/><line x1="614.98" y1="640.75" x2="606.42" y2="644.75" stroke="#20252a" stroke-width="48.96" stroke-linecap="round"/><line x1="182.77" y1="640.33" x2="172.42" y2="645.16" stroke="#8d969d" stroke-width="14.40" stroke-linecap="round"/><line x1="615.88" y1="640.33" x2="605.52" y2="645.16" stroke="#8d969d" stroke-width="14.40" stroke-linecap="round"/><line x1="177.60" y1="610.43" x2="177.60" y2="573.57" stroke="#8d969d" stroke-width="7.92" stroke-linecap="round"/><line x1="610.70" y1="610.43" x2="610.70" y2="573.57" stroke="#8d969d" stroke-width="7.92" stroke-linecap="round"/><line x1="160.65" y1="580.51" x2="630.35" y2="593.13" stroke="#8d969d" stroke-width="11.52" stroke-linecap="round"/><line x1="133.20" y1="583.04" x2="144.18" y2="219.43" stroke="#8d969d" stroke-width="11.52" stroke-linecap="round"/><line x1="144.18" y1="219.43" x2="78.30" y2="166.41" stroke="#8d969d" stroke-width="11.52" stroke-linecap="round"/><line x1="138.08" y1="446.69" x2="630.35" y2="583.04" stroke="#8d969d" stroke-width="10.08" stroke-linecap="round"/><line x1="182.77" y1="601.45" x2="182.77" y2="640.33" stroke="#8d969d" stroke-width="5.76" stroke-linecap="round"/><line x1="615.88" y1="601.45" x2="615.88" y2="640.33" stroke="#8d969d" stroke-width="5.76" stroke-linecap="round"/><line x1="669.96" y1="442.43" x2="697.41" y2="230.33" stroke="#b8c1c7" stroke-width="3.02" stroke-linecap="round"/><line x1="194.16" y1="417.18" x2="175.86" y2="230.33" stroke="#b8c1c7" stroke-width="3.02" stroke-linecap="round"/><line x1="220.02" y1="527.60" x2="586.02" y2="542.75" stroke="#b8c1c7" stroke-width="5.04" stroke-linecap="round"/><line x1="200.41" y1="414.27" x2="676.21" y2="439.52" stroke="#b8c1c7" stroke-width="3.02" stroke-linecap="round"/><line x1="685.82" y1="435.03" x2="713.27" y2="222.93" stroke="#b8c1c7" stroke-width="3.02" stroke-linecap="round"/><line x1="210.03" y1="409.78" x2="191.73" y2="222.93" stroke="#b8c1c7" stroke-width="3.02" stroke-linecap="round"/><line x1="214.19" y1="407.84" x2="689.99" y2="433.09" stroke="#b8c1c7" stroke-width="3.02" stroke-linecap="round"/><line x1="701.69" y1="427.63" x2="729.14" y2="215.53" stroke="#b8c1c7" stroke-width="3.02" stroke-linecap="round"/><line x1="225.89" y1="402.38" x2="207.59" y2="215.53" stroke="#b8c1c7" stroke-width="3.02" stroke-linecap="round"/><line x1="227.97" y1="401.41" x2="703.77" y2="426.66" stroke="#b8c1c7" stroke-width="3.02" stroke-linecap="round"/><line x1="202.50" y1="108.45" x2="67.50" y2="171.45" stroke="#17629f" stroke-width="12.96" stroke-linecap="round"/><line x1="743.75" y1="540.21" x2="630.35" y2="593.13" stroke="#8d969d" stroke-width="11.52" stroke-linecap="round"/><line x1="274.05" y1="527.59" x2="160.65" y2="580.51" stroke="#8d969d" stroke-width="11.52" stroke-linecap="round"/><line x1="808.45" y1="178.52" x2="681.55" y2="237.73" stroke="#b8c1c7" stroke-width="7.20" stroke-linecap="round"/><line x1="781.00" y1="390.62" x2="654.10" y2="449.84" stroke="#b8c1c7" stroke-width="7.20" stroke-linecap="round"/><line x1="286.90" y1="178.52" x2="160.00" y2="237.73" stroke="#b8c1c7" stroke-width="7.20" stroke-linecap="round"/><line x1="305.20" y1="365.37" x2="178.30" y2="424.59" stroke="#b8c1c7" stroke-width="7.20" stroke-linecap="round"/><line x1="312.27" y1="484.55" x2="220.02" y2="527.60" stroke="#b8c1c7" stroke-width="3.60" stroke-linecap="round"/><line x1="373.27" y1="487.08" x2="281.02" y2="530.12" stroke="#b8c1c7" stroke-width="3.60" stroke-linecap="round"/><line x1="434.27" y1="489.60" x2="342.02" y2="532.65" stroke="#b8c1c7" stroke-width="3.60" stroke-linecap="round"/><line x1="495.28" y1="492.12" x2="403.03" y2="535.17" stroke="#b8c1c7" stroke-width="3.60" stroke-linecap="round"/><line x1="556.27" y1="494.65" x2="464.02" y2="537.70" stroke="#b8c1c7" stroke-width="3.60" stroke-linecap="round"/><line x1="617.27" y1="497.18" x2="525.02" y2="540.23" stroke="#b8c1c7" stroke-width="3.60" stroke-linecap="round"/><line x1="678.27" y1="499.70" x2="586.02" y2="542.75" stroke="#b8c1c7" stroke-width="3.60" stroke-linecap="round"/><line x1="786.49" y1="348.19" x2="659.59" y2="407.42" stroke="#b8c1c7" stroke-width="3.02" stroke-linecap="round"/><line x1="791.98" y1="305.77" x2="665.08" y2="365.00" stroke="#b8c1c7" stroke-width="3.02" stroke-linecap="round"/><line x1="797.47" y1="263.35" x2="670.57" y2="322.57" stroke="#b8c1c7" stroke-width="3.02" stroke-linecap="round"/><line x1="802.96" y1="220.93" x2="676.06" y2="280.15" stroke="#b8c1c7" stroke-width="3.02" stroke-linecap="round"/><line x1="717.55" y1="420.23" x2="745.00" y2="208.12" stroke="#b8c1c7" stroke-width="3.02" stroke-linecap="round"/><line x1="301.54" y1="328.00" x2="174.64" y2="387.22" stroke="#b8c1c7" stroke-width="3.02" stroke-linecap="round"/><line x1="297.88" y1="290.62" x2="170.98" y2="349.85" stroke="#b8c1c7" stroke-width="3.02" stroke-linecap="round"/><line x1="294.22" y1="253.26" x2="167.32" y2="312.48" stroke="#b8c1c7" stroke-width="3.02" stroke-linecap="round"/><line x1="290.56" y1="215.89" x2="163.66" y2="275.11" stroke="#b8c1c7" stroke-width="3.02" stroke-linecap="round"/><line x1="241.75" y1="394.98" x2="223.45" y2="208.12" stroke="#b8c1c7" stroke-width="3.02" stroke-linecap="round"/><line x1="241.75" y1="394.98" x2="717.55" y2="420.23" stroke="#b8c1c7" stroke-width="3.02" stroke-linecap="round"/><line x1="336.52" y1="371.35" x2="226.27" y2="422.80" stroke="#b8c1c7" stroke-width="3.02" stroke-linecap="round"/><line x1="376.18" y1="373.46" x2="265.93" y2="424.91" stroke="#b8c1c7" stroke-width="3.02" stroke-linecap="round"/><line x1="415.82" y1="375.56" x2="305.57" y2="427.01" stroke="#b8c1c7" stroke-width="3.02" stroke-linecap="round"/><line x1="455.48" y1="377.67" x2="345.23" y2="429.12" stroke="#b8c1c7" stroke-width="3.02" stroke-linecap="round"/><line x1="495.12" y1="379.77" x2="384.88" y2="431.22" stroke="#b8c1c7" stroke-width="3.02" stroke-linecap="round"/><line x1="534.77" y1="381.88" x2="424.52" y2="433.33" stroke="#b8c1c7" stroke-width="3.02" stroke-linecap="round"/><line x1="574.43" y1="383.98" x2="464.18" y2="435.43" stroke="#b8c1c7" stroke-width="3.02" stroke-linecap="round"/><line x1="614.08" y1="386.08" x2="503.83" y2="437.53" stroke="#b8c1c7" stroke-width="3.02" stroke-linecap="round"/><line x1="653.72" y1="388.19" x2="543.47" y2="439.64" stroke="#b8c1c7" stroke-width="3.02" stroke-linecap="round"/><line x1="693.38" y1="390.29" x2="583.12" y2="441.74" stroke="#b8c1c7" stroke-width="3.02" stroke-linecap="round"/><line x1="733.02" y1="392.40" x2="622.77" y2="443.85" stroke="#b8c1c7" stroke-width="3.02" stroke-linecap="round"/><line x1="255.53" y1="388.54" x2="731.33" y2="413.79" stroke="#b8c1c7" stroke-width="3.02" stroke-linecap="round"/><line x1="733.41" y1="412.82" x2="760.86" y2="200.72" stroke="#b8c1c7" stroke-width="3.02" stroke-linecap="round"/><line x1="257.61" y1="387.57" x2="239.31" y2="200.72" stroke="#b8c1c7" stroke-width="3.02" stroke-linecap="round"/><line x1="269.31" y1="382.11" x2="745.11" y2="407.36" stroke="#b8c1c7" stroke-width="3.02" stroke-linecap="round"/><line x1="749.27" y1="405.42" x2="776.73" y2="193.32" stroke="#b8c1c7" stroke-width="3.02" stroke-linecap="round"/><line x1="273.48" y1="380.17" x2="255.18" y2="193.32" stroke="#b8c1c7" stroke-width="3.02" stroke-linecap="round"/><line x1="283.09" y1="375.68" x2="758.89" y2="400.93" stroke="#b8c1c7" stroke-width="3.02" stroke-linecap="round"/><line x1="312.27" y1="484.55" x2="678.27" y2="499.70" stroke="#b8c1c7" stroke-width="5.04" stroke-linecap="round"/><line x1="765.14" y1="398.02" x2="792.59" y2="185.92" stroke="#b8c1c7" stroke-width="3.02" stroke-linecap="round"/><line x1="289.34" y1="372.77" x2="271.04" y2="185.92" stroke="#b8c1c7" stroke-width="3.02" stroke-linecap="round"/><line x1="288.52" y1="552.10" x2="288.52" y2="590.99" stroke="#8d969d" stroke-width="5.76" stroke-linecap="round"/><line x1="721.62" y1="552.10" x2="721.62" y2="590.99" stroke="#8d969d" stroke-width="5.76" stroke-linecap="round"/><line x1="274.05" y1="527.59" x2="743.75" y2="540.21" stroke="#8d969d" stroke-width="11.52" stroke-linecap="round"/><line x1="246.60" y1="530.12" x2="257.58" y2="166.51" stroke="#8d969d" stroke-width="11.52" stroke-linecap="round"/><line x1="257.58" y1="166.51" x2="191.70" y2="113.49" stroke="#8d969d" stroke-width="11.52" stroke-linecap="round"/><line x1="251.48" y1="393.77" x2="743.75" y2="530.12" stroke="#8d969d" stroke-width="10.08" stroke-linecap="round"/><line x1="297.97" y1="586.57" x2="289.42" y2="590.56" stroke="#20252a" stroke-width="48.96" stroke-linecap="round"/><line x1="731.08" y1="586.57" x2="722.52" y2="590.56" stroke="#20252a" stroke-width="48.96" stroke-linecap="round"/><line x1="298.88" y1="586.15" x2="288.52" y2="590.99" stroke="#8d969d" stroke-width="14.40" stroke-linecap="round"/><line x1="731.98" y1="586.15" x2="721.62" y2="590.99" stroke="#8d969d" stroke-width="14.40" stroke-linecap="round"/><line x1="293.70" y1="556.25" x2="293.70" y2="519.38" stroke="#8d969d" stroke-width="7.92" stroke-linecap="round"/><line x1="726.80" y1="556.25" x2="726.80" y2="519.38" stroke="#8d969d" stroke-width="7.92" stroke-linecap="round"/><line x1="298.88" y1="547.27" x2="298.88" y2="586.15" stroke="#8d969d" stroke-width="5.76" stroke-linecap="round"/><line x1="731.98" y1="547.27" x2="731.98" y2="586.15" stroke="#8d969d" stroke-width="5.76" stroke-linecap="round"/><line x1="286.90" y1="178.52" x2="808.45" y2="178.52" stroke="#b8c1c7" stroke-width="7.20" stroke-linecap="round"/><line x1="305.20" y1="365.37" x2="781.00" y2="390.62" stroke="#b8c1c7" stroke-width="7.20" stroke-linecap="round"/><line x1="301.54" y1="328.00" x2="786.49" y2="348.19" stroke="#b8c1c7" stroke-width="3.02" stroke-linecap="round"/><line x1="297.88" y1="290.62" x2="791.98" y2="305.77" stroke="#b8c1c7" stroke-width="3.02" stroke-linecap="round"/><line x1="294.22" y1="253.26" x2="797.47" y2="263.35" stroke="#b8c1c7" stroke-width="3.02" stroke-linecap="round"/><line x1="290.56" y1="215.89" x2="802.96" y2="220.93" stroke="#b8c1c7" stroke-width="3.02" stroke-linecap="round"/><line x1="344.85" y1="367.47" x2="330.36" y2="178.52" stroke="#b8c1c7" stroke-width="3.02" stroke-linecap="round"/><line x1="384.50" y1="369.57" x2="373.82" y2="178.52" stroke="#b8c1c7" stroke-width="3.02" stroke-linecap="round"/><line x1="424.15" y1="371.68" x2="417.29" y2="178.52" stroke="#b8c1c7" stroke-width="3.02" stroke-linecap="round"/><line x1="463.80" y1="373.78" x2="460.75" y2="178.52" stroke="#b8c1c7" stroke-width="3.02" stroke-linecap="round"/><line x1="503.45" y1="375.89" x2="504.21" y2="178.52" stroke="#b8c1c7" stroke-width="3.02" stroke-linecap="round"/><line x1="543.10" y1="377.99" x2="547.68" y2="178.52" stroke="#b8c1c7" stroke-width="3.02" stroke-linecap="round"/><line x1="582.75" y1="380.09" x2="591.14" y2="178.52" stroke="#b8c1c7" stroke-width="3.02" stroke-linecap="round"/><line x1="622.40" y1="382.20" x2="634.60" y2="178.52" stroke="#b8c1c7" stroke-width="3.02" stroke-linecap="round"/><line x1="662.05" y1="384.30" x2="678.06" y2="178.52" stroke="#b8c1c7" stroke-width="3.02" stroke-linecap="round"/><line x1="701.70" y1="386.41" x2="721.53" y2="178.52" stroke="#b8c1c7" stroke-width="3.02" stroke-linecap="round"/><line x1="741.35" y1="388.51" x2="764.99" y2="178.52" stroke="#b8c1c7" stroke-width="3.02" stroke-linecap="round"/></g>
  <text x="42" y="52" font-family="Segoe UI, sans-serif" font-size="28" font-weight="600" fill="#17242d">Grocery shopping cart</text>
  <text x="42" y="82" font-family="Segoe UI, sans-serif" font-size="16" fill="#445761">CPU vector preview • 1.03 × 0.60 × 1.03 m • open wire basket</text>
  <g fill="none" stroke="#607783" stroke-width="1.5">
    <line x1="124" y1="678" x2="752" y2="678"/><line x1="124" y1="671" x2="124" y2="685"/><line x1="752" y1="671" x2="752" y2="685"/>
  </g>
  <text x="380" y="704" font-family="Segoe UI, sans-serif" font-size="14" fill="#607783">1.03 m overall length</text>
</svg>
